<?xml version="1.0" encoding="UTF-8"?>
<svg width="27px" height="22px" viewBox="0 0 27 22" version="1.1" xmlns="http://www.w3.org/2000/svg" xmlns:xlink="http://www.w3.org/1999/xlink">
    <title>fb</title>
    <g id="Page-1" stroke="none" stroke-width="1" fill="none" fill-rule="evenodd">
        <g id="manjam_main-v0.2" transform="translate(-644.000000, -6547.000000)" fill="#1DA1F2">
            <g id="footer" transform="translate(0.000000, 6350.000000)">
                <g id="icons" transform="translate(560.000000, 162.000000)">
                    <g id="fb" transform="translate(84.000000, 35.000000)">
                        <path d="M27,2.60333333 C26.0064,3.04516667 24.939,3.344 23.8176,3.47783333 C24.9624,2.79033333 25.8408,1.70133333 26.253,0.405166667 C25.1838,1.04133333 23.9976,1.50333333 22.7358,1.75266667 C21.726,0.672833333 20.286,0 18.693,0 C15.1182,0 12.4884,3.344 13.2966,6.81816667 C8.694,6.58716667 4.6116,4.37616667 1.8792,1.01566667 C0.4284,3.51083333 1.1268,6.77783333 3.5946,8.4315 C2.6856,8.40216667 1.8324,8.15283333 1.0854,7.73666667 C1.0242,10.3088333 2.8638,12.716 5.5278,13.2513333 C4.7484,13.464 3.8934,13.5135 3.0258,13.3466667 C3.7314,15.554 5.7762,17.16 8.2008,17.204 C5.8716,19.0336667 2.9394,19.8513333 0,19.5048333 C2.4516,21.0796667 5.364,22 8.4906,22 C18.7758,22 24.5862,13.2898333 24.2352,5.478 C25.3188,4.69516667 26.2566,3.71616667 27,2.60333333" id="Fill-1"></path>
                    </g>
                </g>
            </g>
        </g>
    </g>
</svg>