<svg xmlns="http://www.w3.org/2000/svg" xmlns:xlink="http://www.w3.org/1999/xlink" viewBox="0 0 1238.79 418.71"><defs><style>.cls-1{fill:none;}.cls-2{clip-path:url(#clip-path);}.cls-3{fill:#926eaa;}.cls-4{fill:#936eaa;}.cls-5{fill:#946daa;}.cls-6{fill:#956ca9;}.cls-7{fill:#966ba9;}.cls-8{fill:#976ba9;}.cls-9{fill:#996aa9;}.cls-10{fill:#9a69a8;}.cls-11{fill:#9b69a8;}.cls-12{fill:#9c68a8;}.cls-13{fill:#9d67a7;}.cls-14{fill:#9e66a7;}.cls-15{fill:#9f66a7;}.cls-16{fill:#a065a6;}.cls-17{fill:#a164a6;}.cls-18{fill:#a263a6;}.cls-19{fill:#a363a6;}.cls-20{fill:#a462a5;}.cls-21{fill:#a561a5;}.cls-22{fill:#a661a5;}.cls-23{fill:#827aaf;}.cls-24{fill:#8379af;}.cls-25{fill:#8479ae;}.cls-26{fill:#8578ae;}.cls-27{fill:#8677ae;}.cls-28{fill:#8776ae;}.cls-29{fill:#8876ad;}.cls-30{fill:#8975ad;}.cls-31{fill:#8a74ad;}.cls-32{fill:#8b73ac;}.cls-33{fill:#8c73ac;}.cls-34{fill:#8d72ac;}.cls-35{fill:#8e71ab;}.cls-36{fill:#8f71ab;}.cls-37{fill:#9070ab;}.cls-38{fill:#916fab;}.cls-39{fill:#38b5c6;}.cls-40{fill:#39b4c6;}.cls-41{fill:#3ab3c5;}.cls-42{fill:#3bb3c5;}.cls-43{fill:#3cb2c5;}.cls-44{fill:#3db1c4;}.cls-45{fill:#3eb0c4;}.cls-46{fill:#3fafc4;}.cls-47{fill:#40afc3;}.cls-48{fill:#41aec3;}.cls-49{fill:#42adc3;}.cls-50{fill:#43acc3;}.cls-51{fill:#44abc2;}.cls-52{fill:#45aac2;}.cls-53{fill:#46aac2;}.cls-54{fill:#47a9c1;}.cls-55{fill:#48a8c1;}.cls-56{fill:#49a7c1;}.cls-57{fill:#4aa6c0;}.cls-58{fill:#4ba6c0;}.cls-59{fill:#4ca5c0;}.cls-60{fill:#4da4bf;}.cls-61{fill:#4ea3bf;}.cls-62{fill:#4fa2bf;}.cls-63{fill:#50a2be;}.cls-64{fill:#51a1be;}.cls-65{fill:#52a0be;}.cls-66{fill:#539fbd;}.cls-67{fill:#549ebd;}.cls-68{fill:#559ebd;}.cls-69{fill:#569dbd;}.cls-70{fill:#579cbc;}.cls-71{fill:#589bbc;}.cls-72{fill:#599abc;}.cls-73{fill:#5a9abb;}.cls-74{fill:#5b99bb;}.cls-75{fill:#5c98bb;}.cls-76{fill:#5e97ba;}.cls-77{fill:#5f96ba;}.cls-78{fill:#6095ba;}.cls-79{fill:#6195b9;}.cls-80{fill:#6294b9;}.cls-81{fill:#6393b9;}.cls-82{fill:#6492b8;}.cls-83{fill:#6591b8;}.cls-84{fill:#6691b8;}.cls-85{fill:#6790b8;}.cls-86{fill:#688fb7;}.cls-87{fill:#698eb7;}.cls-88{fill:#6a8db7;}.cls-89{fill:#6b8db6;}.cls-90{fill:#6c8cb6;}.cls-91{fill:#6d8bb6;}.cls-92{fill:#6e8ab5;}.cls-93{fill:#6f89b5;}.cls-94{fill:#7089b5;}.cls-95{fill:#7188b4;}.cls-96{fill:#7287b4;}.cls-97{fill:#7386b4;}.cls-98{fill:#7485b3;}.cls-99{fill:#7585b3;}.cls-100{fill:#7684b3;}.cls-101{fill:#7783b2;}.cls-102{fill:#7882b2;}.cls-103{fill:#7981b2;}.cls-104{fill:#7a80b2;}.cls-105{fill:#7b80b1;}.cls-106{fill:#7c7fb1;}.cls-107{fill:#7d7eb1;}.cls-108{fill:#7e7db0;}.cls-109{fill:#7f7cb0;}.cls-110{fill:#807cb0;}.cls-111{fill:#817baf;}.cls-112{fill:#a760a4;}.cls-113{fill:#a85fa4;}.cls-114{fill:#a95ea4;}.cls-115{fill:#aa5ea3;}.cls-116{fill:#ab5da3;}.cls-117{fill:#ac5ca3;}.cls-118{fill:#ad5ba3;}.cls-119{fill:#ae5ba2;}.cls-120{fill:#af5aa2;}.cls-121{clip-path:url(#clip-path-2);}.cls-122{clip-path:url(#clip-path-3);}.cls-123{clip-path:url(#clip-path-4);}.cls-124{clip-path:url(#clip-path-5);}.cls-125{clip-path:url(#clip-path-6);}.cls-126{clip-path:url(#clip-path-7);}.cls-127{clip-path:url(#clip-path-8);}.cls-128{clip-path:url(#clip-path-9);}.cls-129{clip-path:url(#clip-path-10);}.cls-130{clip-path:url(#clip-path-11);}.cls-131{clip-path:url(#clip-path-12);}.cls-132{clip-path:url(#clip-path-13);}.cls-133{clip-path:url(#clip-path-14);}.cls-134{clip-path:url(#clip-path-15);}.cls-135{clip-path:url(#clip-path-16);}.cls-136{clip-path:url(#clip-path-17);}.cls-137{clip-path:url(#clip-path-18);}.cls-138{clip-path:url(#clip-path-19);}.cls-139{clip-path:url(#clip-path-20);}</style><clipPath id="clip-path" transform="translate(2.21)"><path class="cls-1" d="M1143.58,143.26a93,93,0,0,0-93,93V406.14a10.37,10.37,0,0,0,.06,1.12,10.26,10.26,0,0,0,10.19,9.13h.17a10.26,10.26,0,0,0,10.19-9.13,10.37,10.37,0,0,0,.06-1.12V376.51a10.25,10.25,0,0,1,10.25-10.25h.16a10.25,10.25,0,0,1,10.25,10.25v15.87a10.25,10.25,0,0,0,10.25,10.25h.17a10.25,10.25,0,0,0,10.25-10.25V376.51a10.25,10.25,0,0,1,10.25-10.25h.17a10.25,10.25,0,0,1,10.25,10.25v4.56a10.25,10.25,0,0,0,10.25,10.25h.16a10.25,10.25,0,0,0,10.25-10.25v-4.56a10.25,10.25,0,0,1,10.25-10.25h.17a10.25,10.25,0,0,1,10.25,10.25v15.87a10.25,10.25,0,0,0,10.25,10.25h.17a10.25,10.25,0,0,0,10.25-10.25V376.51a10.25,10.25,0,0,1,10.25-10.25h.16a10.25,10.25,0,0,1,10.25,10.25v29.63a10.37,10.37,0,0,0,.06,1.12,10.26,10.26,0,0,0,10.19,9.13h.17a10.26,10.26,0,0,0,10.19-9.13,10.37,10.37,0,0,0,.06-1.12V236.26A93,93,0,0,0,1143.58,143.26Zm-34.25,107.63c-8.91,0-16.13-8.4-16.13-18.76s7.22-18.74,16.13-18.74,16.13,8.39,16.13,18.74S1118.24,250.89,1109.33,250.89Zm35.19,27.61c-13.5,0-17.82-13.37-14.82-16.18s8.63.94,14.82.94,11.81-3.75,14.81-.94S1158,278.5,1144.52,278.5Zm34.09-27.61c-8.91,0-16.13-8.4-16.13-18.76s7.22-18.74,16.13-18.74,16.12,8.39,16.12,18.74S1187.51,250.89,1178.61,250.89Z"/></clipPath><clipPath id="clip-path-2" transform="translate(2.21)"><path class="cls-1" d="M150.43,159.12a24.52,24.52,0,0,0-22.81-15.36h-7.57a24.51,24.51,0,0,0-22.81,15.36L55.08,263h-31a16.5,16.5,0,1,0,0,33H41.69L1.22,395.73a16.5,16.5,0,0,0,9.08,21.49,16.5,16.5,0,0,0,21.49-9.08L77.3,296h30.53a16.5,16.5,0,0,0,0-33H90.69l33.14-81.65L215.09,406.2a16.5,16.5,0,0,0,30.58-12.41Z"/></clipPath><clipPath id="clip-path-3" transform="translate(2.21)"><path class="cls-1" d="M747.16,145a16.49,16.49,0,0,0-21.49,9.08l-92,226.79L542.37,156a16.5,16.5,0,1,0-30.58,12.41L607,403.07a24.52,24.52,0,0,0,22.81,15.36h7.57a24.52,24.52,0,0,0,22.81-15.36l96-236.6A16.49,16.49,0,0,0,747.16,145Z"/></clipPath><clipPath id="clip-path-4" transform="translate(2.21)"><path class="cls-1" d="M434.32,159.12a24.52,24.52,0,0,0-22.81-15.36h-7.57a24.52,24.52,0,0,0-22.81,15.36L339,263H308a16.5,16.5,0,0,0,0,33h17.61l-40.47,99.73a16.5,16.5,0,0,0,9.08,21.49,16.33,16.33,0,0,0,6.2,1.21,16.51,16.51,0,0,0,15.3-10.29L361.19,296h30.53a16.5,16.5,0,0,0,0-33H374.59l33.13-81.65L499,406.2a16.5,16.5,0,0,0,30.58-12.41Z"/></clipPath><clipPath id="clip-path-5" transform="translate(2.21)"><path class="cls-1" d="M966.08,176.76a16.5,16.5,0,1,0,0-33H813.58a16.5,16.5,0,0,0-16.5,16.5V399.93a16.5,16.5,0,0,0,16.5,16.5h152.5a16.5,16.5,0,0,0,0-33h-136V296h121.5a16.5,16.5,0,0,0,0-33H830.08V176.76Z"/></clipPath><clipPath id="clip-path-6" transform="translate(2.21)"><path class="cls-1" d="M351.35,56.92c6.59,0,7.09,8.91,16,8.91,5,0,9.63-4.66,9.63-10,0-7.7-6.18-10.53-12.36-12.76-11.75-4.25-18.23-10.63-18.23-21.37C346.39,9.11,355.51,0,367.86,0c7.7,0,15.39,4.35,18.43,11.44a6.83,6.83,0,0,1,.51,2.43,5.82,5.82,0,0,1-11,2.74,9.37,9.37,0,0,0-17.52,4.45c0,7.3,5.77,8.92,11.85,11.55C382.85,38.18,388.62,44,388.62,55.8s-9.62,21.67-21,21.67-21.37-6.88-21.37-15A5.4,5.4,0,0,1,351.35,56.92Z"/></clipPath><clipPath id="clip-path-7" transform="translate(2.21)"><path class="cls-1" d="M409.59,19.65c0-4.36,1.52-8.21,5.67-8.21s5.47,3.24,5.47,8.21v6.78h5.77c4.45,0,7.39,1.32,7.39,5,0,3.85-2.83,5.17-7.39,5.17h-5.77v31.9c0,4.66-1.52,8.61-5.47,8.61-4.56,0-5.67-3.24-5.67-8.61V36.56h-5.88c-4.45,0-7.19-1-7.19-4.76,0-4.05,2.53-5.37,7.19-5.37h5.88Z"/></clipPath><clipPath id="clip-path-8" transform="translate(2.21)"><path class="cls-1" d="M490.5,26.33c3.14,0,4.86,3,4.86,8.31V68.16c0,4-.71,8.4-4.76,8.4-3.44,0-4.65-1.31-5.87-4.25a26.13,26.13,0,0,1-41.72-21,26,26,0,0,1,41.72-20.87C485.54,28.56,486.15,26.33,490.5,26.33Zm-21.26,40a15,15,0,1,0-15-15A14.74,14.74,0,0,0,469.24,66.33Z"/></clipPath><clipPath id="clip-path-9" transform="translate(2.21)"><path class="cls-1" d="M544.79,47.5a11.38,11.38,0,0,0-11.14-11.14c-5.78,0-11.14,3.24-11.14,10.63V68.26c0,4.76-1.22,8.81-5.47,8.81-4.76,0-5.47-3.34-5.78-8.91V34.23c0-4.56,1-8.81,5.68-8.81a5.31,5.31,0,0,1,4.86,3.34,19.63,19.63,0,0,1,11.74-3.54c13,0,22.39,8.71,22.39,21.57V68.16c0,5.16-1,8.91-5.47,8.91-3.14,0-5.67-2.23-5.67-6.18Z"/></clipPath><clipPath id="clip-path-10" transform="translate(2.21)"><path class="cls-1" d="M571.62,14.89a5.62,5.62,0,0,1,11.24,0,5.62,5.62,0,1,1-11.24,0Zm0,17c0-3.95,2.53-6.28,5.67-6.28,2.94,0,5.57,2.33,5.57,6.28v39c0,4-2.63,6.18-5.57,6.18-3.14,0-5.67-2.23-5.67-6.18Z"/></clipPath><clipPath id="clip-path-11" transform="translate(2.21)"><path class="cls-1" d="M636.54,69.27V6.08c0-2.84,3.24-5.37,6-5.37a5.83,5.83,0,0,1,5.78,6V33.62c0,.31.1.41.2.41,4.35-6.69,10.13-16,19.54-30.89A5.33,5.33,0,0,1,672.8.51a6,6,0,0,1,6.07,5.77,5.35,5.35,0,0,1-.91,3c-6,9.31-11.85,18.73-17.72,28.05a2.19,2.19,0,0,0-.51,1.42,2.55,2.55,0,0,0,.51,1.62L678,68.16a5.24,5.24,0,0,1,.91,2.93v.41A6.14,6.14,0,0,1,672.8,77c-3.14,0-3.85-1.62-6-4.36-9.52-15.19-14.48-23.19-18.13-28.76l-.3-.3c-.1,0-.1,11.75-.1,27.85a5.71,5.71,0,0,1-5.88,5.67C637.86,77.07,636.54,73.32,636.54,69.27Z"/></clipPath><clipPath id="clip-path-12" transform="translate(2.21)"><path class="cls-1" d="M704,55.09a11.3,11.3,0,0,0,11.14,11.14c5.77,0,11.14-3.14,11.14-10.53V34.43c0-5.06,1.31-8.81,5.47-8.81,4.86,0,5.47,3.65,5.77,8.91V68.46c0,4.86-1.22,8.71-5.67,8.71A5.16,5.16,0,0,1,727,73.83a19.74,19.74,0,0,1-11.75,3.64c-13,0-22.38-8.81-22.38-21.67V34.53c0-5.06.91-8.91,5.47-8.91,3.14,0,5.67,2.23,5.67,6.28Z"/></clipPath><clipPath id="clip-path-13" transform="translate(2.21)"><path class="cls-1" d="M753.51,11.65c0-4.05,2.53-6.28,5.67-6.28,2.94,0,5.47,2.23,5.47,6.28V70.89c0,4-2.53,6.18-5.47,6.18-3.14,0-5.67-2.23-5.67-6.18Z"/></clipPath><clipPath id="clip-path-14" transform="translate(2.21)"><path class="cls-1" d="M779.23,51.24a26.06,26.06,0,0,1,26.23-26c13.17,0,25.83,10.93,25.83,24.2a5.9,5.9,0,0,1-5.47,5.88H794.63c-1.22,0-2.33.1-3.45.2a15,15,0,0,0,14.28,11.24c5.67,0,9-2.33,12.46-4.36a5,5,0,0,1,2.53-1,4.77,4.77,0,0,1,4.86,4.76c0,7.19-13,11.34-19.85,11.34A26.1,26.1,0,0,1,779.23,51.24Zm12.16-4.76a26.37,26.37,0,0,0,3,.21h22c1.11,0,2-.1,3-.1-1.12-5.78-7.8-10.13-14-10.13S792.5,40.71,791.39,46.48Z"/></clipPath><clipPath id="clip-path-15" transform="translate(2.21)"><path class="cls-1" d="M883.75,60.46c1.41-1.62,4.65-4.76,6.68-4.76a5.2,5.2,0,0,1,5.06,5.37,6.53,6.53,0,0,1-.4,2A25.61,25.61,0,0,1,871.9,77.47a26.13,26.13,0,1,1,0-52.25c8.71,0,16.5,5,21.16,11a5.8,5.8,0,0,1,1.22,3.64,5,5,0,0,1-5.17,5c-1.31,0-3.34-1.31-4.05-1.82-2.93-3.34-6.78-6.58-13.06-6.58a14.89,14.89,0,1,0,0,29.77C876.66,66.23,880.61,64.11,883.75,60.46Z"/></clipPath><clipPath id="clip-path-16" transform="translate(2.21)"><path class="cls-1" d="M911,13.27c0-4,1-7.9,5.67-7.9,4.05,0,5.47,3,5.47,7.8V28.26a21.44,21.44,0,0,1,11-3c13,0,22.38,8.71,22.38,21.57V69.17c0,4.35-1.82,7.9-5.47,7.9-4.66,0-5.67-4.46-5.67-9.42V49c0-6.69-4.15-12.66-11.14-12.66-6,0-11.14,3.44-11.14,10.93v23.6c0,3.14-1.93,6.18-5.67,6.18a3.4,3.4,0,0,1-1.52-.3h-.2a3.14,3.14,0,0,1-2-1.12l-.3-.3A5.69,5.69,0,0,1,911,71.19Z"/></clipPath><clipPath id="clip-path-17" transform="translate(2.21)"><path class="cls-1" d="M996.77,25.22a26.13,26.13,0,1,1-26.23,26A26,26,0,0,1,996.77,25.22Zm0,41a14.89,14.89,0,1,0-15-15A14.78,14.78,0,0,0,996.77,66.23Z"/></clipPath><clipPath id="clip-path-18" transform="translate(2.21)"><path class="cls-1" d="M1034,33a5.78,5.78,0,0,1-.41-1.93,5.64,5.64,0,0,1,5.67-5.57c3.55,0,5,2.74,6.08,6.28l6.89,22a40.39,40.39,0,0,0,1.51,4.55c3.14-8.71,5.57-17.72,8.31-26.53,1.11-3.54,2.53-6.28,6.07-6.28a5.74,5.74,0,0,1,5.78,5.57,6,6,0,0,1-.41,1.93l-14.07,40.2a6.11,6.11,0,0,1-11.35,0C1043.45,59.75,1038.69,46.48,1034,33Z"/></clipPath><clipPath id="clip-path-19" transform="translate(2.21)"><path class="cls-1" d="M1151.61,25.22a26.13,26.13,0,1,1-26.23,26A26,26,0,0,1,1151.61,25.22Zm0,41a14.89,14.89,0,1,0-15-15A14.78,14.78,0,0,0,1151.61,66.23Z"/></clipPath><clipPath id="clip-path-20" transform="translate(2.21)"><path class="cls-1" d="M1197.9,20.76c0-9.72,6.58-15.59,14.78-15.59h.71c8.41,0,14,6.38,14,10.53a4.52,4.52,0,0,1-4.56,4.45c-4.15-.2-4.66-5.06-8.81-5.26h-.61c-2.63,0-4.25,1.72-4.25,6.48v5.06H1219c4,0,7,1.32,7,5.27,0,3.34-2.63,4.86-7,4.86h-9.82V69c0,4.86-1.72,8.3-5.57,8.3-4.46,0-5.67-3.34-5.67-8.3V36.56h-3.75c-4.25,0-7.6-1.32-7.6-5.17,0-3.64,2.94-5,7.6-5h3.75Z"/></clipPath></defs><title>Recurso 1</title><g id="Capa_2" data-name="Capa 2"><g id="Capa_2-2" data-name="Capa 2"><g class="cls-2"><polygon class="cls-3" points="1164.69 249.87 1166 250.9 1164.69 250.9 1164.69 249.87"/><polygon class="cls-4" points="1164.69 246.52 1170.29 250.9 1166 250.9 1164.69 249.87 1164.69 246.52"/><polygon class="cls-5" points="1164.69 243.16 1174.57 250.9 1170.29 250.9 1164.69 246.52 1164.69 243.16"/><polygon class="cls-6" points="1164.69 239.81 1178.86 250.9 1174.57 250.9 1164.69 243.16 1164.69 239.81"/><polygon class="cls-7" points="1164.69 236.45 1183.14 250.9 1178.86 250.9 1164.69 239.81 1164.69 236.45"/><polygon class="cls-8" points="1164.69 233.1 1187.42 250.9 1183.14 250.9 1164.69 236.45 1164.69 233.1"/><polygon class="cls-9" points="1164.69 229.74 1191.71 250.9 1187.42 250.9 1164.69 233.1 1164.69 229.74"/><polygon class="cls-10" points="1164.69 226.39 1194.08 249.4 1192.91 250.9 1191.71 250.9 1164.69 229.74 1164.69 226.39"/><polygon class="cls-11" points="1164.69 223.03 1195.71 247.32 1194.08 249.4 1164.69 226.39 1164.69 223.03"/><polygon class="cls-12" points="1164.69 219.68 1196.94 244.93 1196.94 245.74 1195.71 247.32 1164.69 223.03 1164.69 219.68"/><polygon class="cls-13" points="1164.69 218.54 1165.77 217.16 1196.94 241.57 1196.94 244.93 1164.69 219.68 1164.69 218.54"/><polygon class="cls-14" points="1165.77 217.16 1167.4 215.09 1196.94 238.22 1196.94 241.57 1165.77 217.16"/><polygon class="cls-15" points="1167.4 215.09 1168.72 213.4 1169.53 213.4 1196.94 234.86 1196.94 238.22 1167.4 215.09"/><polygon class="cls-16" points="1173.81 213.4 1196.94 231.51 1196.94 234.86 1169.53 213.4 1173.81 213.4"/><polygon class="cls-17" points="1178.1 213.4 1196.94 228.15 1196.94 231.51 1173.81 213.4 1178.1 213.4"/><polygon class="cls-18" points="1182.38 213.4 1196.94 224.8 1196.94 228.15 1178.1 213.4 1182.38 213.4"/><polygon class="cls-19" points="1186.67 213.4 1196.94 221.44 1196.94 224.8 1182.38 213.4 1186.67 213.4"/><polygon class="cls-20" points="1190.95 213.4 1196.94 218.09 1196.94 221.44 1186.67 213.4 1190.95 213.4"/><polygon class="cls-21" points="1195.24 213.4 1196.94 214.73 1196.94 218.09 1190.95 213.4 1195.24 213.4"/><polygon class="cls-22" points="1196.94 214.73 1195.24 213.4 1196.94 213.4 1196.94 214.73"/><polygon class="cls-23" points="1128.91 275.54 1132.7 278.5 1128.91 278.5 1128.91 275.54"/><polygon class="cls-24" points="1128.91 272.19 1136.99 278.5 1132.7 278.5 1128.91 275.54 1128.91 272.19"/><polygon class="cls-25" points="1128.91 268.83 1141.27 278.5 1136.99 278.5 1128.91 272.19 1128.91 268.83"/><polygon class="cls-26" points="1128.91 265.47 1145.56 278.5 1141.27 278.5 1128.91 268.83 1128.91 265.47"/><polygon class="cls-27" points="1128.91 262.12 1149.84 278.5 1145.56 278.5 1128.91 265.47 1128.91 262.12"/><polygon class="cls-28" points="1128.91 261.89 1130.43 259.95 1154.13 278.5 1149.84 278.5 1128.91 262.12 1128.91 261.89"/><polygon class="cls-29" points="1130.43 259.95 1130.77 259.51 1134.16 259.51 1158.41 278.5 1154.13 278.5 1130.43 259.95"/><polygon class="cls-30" points="1138.44 259.51 1162.7 278.5 1158.41 278.5 1134.16 259.51 1138.44 259.51"/><polygon class="cls-31" points="1142.73 259.51 1164.37 276.46 1162.77 278.5 1162.7 278.5 1138.44 259.51 1142.73 259.51"/><polygon class="cls-32" points="1147.01 259.51 1164.54 273.24 1164.54 276.24 1164.37 276.46 1142.73 259.51 1147.01 259.51"/><polygon class="cls-33" points="1151.3 259.51 1164.54 269.89 1164.54 273.24 1147.01 259.51 1151.3 259.51"/><polygon class="cls-34" points="1155.58 259.51 1164.54 266.53 1164.54 269.89 1151.3 259.51 1155.58 259.51"/><polygon class="cls-35" points="1159.87 259.51 1164.54 263.18 1164.54 266.53 1155.58 259.51 1159.87 259.51"/><polygon class="cls-36" points="1164.15 259.51 1164.54 259.82 1164.54 263.18 1159.87 259.51 1164.15 259.51"/><polygon class="cls-37" points="1164.54 259.82 1164.15 259.51 1164.54 259.51 1164.54 259.82"/><polygon class="cls-23" points="1095.41 249.31 1097.44 250.9 1095.41 250.9 1095.41 249.31"/><polygon class="cls-24" points="1095.41 245.95 1101.72 250.9 1097.44 250.9 1095.41 249.31 1095.41 245.95"/><polygon class="cls-25" points="1095.41 242.6 1106.01 250.9 1101.72 250.9 1095.41 245.95 1095.41 242.6"/><polygon class="cls-26" points="1095.41 239.24 1110.29 250.9 1106.01 250.9 1095.41 242.6 1095.41 239.24"/><polygon class="cls-27" points="1095.41 235.89 1114.58 250.9 1110.29 250.9 1095.41 239.24 1095.41 235.89"/><polygon class="cls-28" points="1095.41 232.53 1118.86 250.9 1114.58 250.9 1095.41 235.89 1095.41 232.53"/><polygon class="cls-29" points="1095.41 229.18 1123.15 250.9 1118.86 250.9 1095.41 232.53 1095.41 229.18"/><polygon class="cls-30" points="1095.41 225.82 1125.08 249.05 1123.64 250.9 1123.15 250.9 1095.41 229.18 1095.41 225.82"/><polygon class="cls-31" points="1095.41 222.47 1126.71 246.97 1125.08 249.05 1095.41 225.82 1095.41 222.47"/><polygon class="cls-32" points="1095.41 219.11 1127.67 244.37 1127.67 245.74 1126.71 246.97 1095.41 222.47 1095.41 219.11"/><polygon class="cls-33" points="1095.41 218.54 1096.77 216.82 1127.67 241.02 1127.67 244.37 1095.41 219.11 1095.41 218.54"/><polygon class="cls-34" points="1096.77 216.82 1098.39 214.74 1127.67 237.66 1127.67 241.02 1096.77 216.82"/><polygon class="cls-35" points="1098.39 214.74 1099.44 213.4 1100.97 213.4 1127.67 234.31 1127.67 237.66 1098.39 214.74"/><polygon class="cls-36" points="1105.25 213.4 1127.67 230.95 1127.67 234.31 1100.97 213.4 1105.25 213.4"/><polygon class="cls-37" points="1109.54 213.4 1127.67 227.6 1127.67 230.95 1105.25 213.4 1109.54 213.4"/><polygon class="cls-38" points="1113.82 213.4 1127.67 224.24 1127.67 227.6 1109.54 213.4 1113.82 213.4"/><polygon class="cls-3" points="1118.11 213.4 1127.67 220.89 1127.67 224.24 1113.82 213.4 1118.11 213.4"/><polygon class="cls-4" points="1122.39 213.4 1127.67 217.53 1127.67 220.89 1118.11 213.4 1122.39 213.4"/><polygon class="cls-5" points="1126.68 213.4 1127.67 214.18 1127.67 217.53 1122.39 213.4 1126.68 213.4"/><polygon class="cls-6" points="1127.67 214.18 1126.68 213.4 1127.67 213.4 1127.67 214.18"/><polygon class="cls-39" points="1052.79 353.26 1133.42 416.39 1052.79 416.39 1052.79 353.26"/><polygon class="cls-39" points="1052.79 351.45 1135.73 416.39 1133.42 416.39 1052.79 353.26 1052.79 351.45"/><polygon class="cls-40" points="1052.79 349.64 1138.05 416.39 1135.73 416.39 1052.79 351.45 1052.79 349.64"/><polygon class="cls-41" points="1052.79 347.83 1140.36 416.39 1138.05 416.39 1052.79 349.64 1052.79 347.83"/><polygon class="cls-42" points="1052.79 346.02 1142.67 416.39 1140.36 416.39 1052.79 347.83 1052.79 346.02"/><polygon class="cls-43" points="1052.79 344.21 1144.98 416.39 1142.67 416.39 1052.79 346.02 1052.79 344.21"/><polygon class="cls-44" points="1052.79 342.4 1147.29 416.39 1144.98 416.39 1052.79 344.21 1052.79 342.4"/><polygon class="cls-45" points="1052.79 340.59 1149.61 416.39 1147.29 416.39 1052.79 342.4 1052.79 340.59"/><polygon class="cls-46" points="1052.79 338.78 1151.92 416.39 1149.61 416.39 1052.79 340.59 1052.79 338.78"/><polygon class="cls-47" points="1052.79 336.97 1154.23 416.39 1151.92 416.39 1052.79 338.78 1052.79 336.97"/><polygon class="cls-48" points="1052.79 335.16 1156.54 416.39 1154.23 416.39 1052.79 336.97 1052.79 335.16"/><polygon class="cls-49" points="1052.79 333.35 1158.86 416.39 1156.54 416.39 1052.79 335.16 1052.79 333.35"/><polygon class="cls-50" points="1052.79 331.54 1161.17 416.39 1158.86 416.39 1052.79 333.35 1052.79 331.54"/><polygon class="cls-51" points="1052.79 329.73 1163.48 416.39 1161.17 416.39 1052.79 331.54 1052.79 329.73"/><polygon class="cls-52" points="1052.79 327.92 1165.79 416.39 1163.48 416.39 1052.79 329.73 1052.79 327.92"/><polygon class="cls-53" points="1052.79 326.11 1168.1 416.39 1165.79 416.39 1052.79 327.92 1052.79 326.11"/><polygon class="cls-54" points="1052.79 324.3 1170.42 416.39 1168.1 416.39 1052.79 326.11 1052.79 324.3"/><polygon class="cls-55" points="1052.79 322.49 1172.73 416.39 1170.42 416.39 1052.79 324.3 1052.79 322.49"/><polygon class="cls-56" points="1052.79 320.68 1175.04 416.39 1172.73 416.39 1052.79 322.49 1052.79 320.68"/><polygon class="cls-57" points="1052.79 318.87 1177.35 416.39 1175.04 416.39 1052.79 320.68 1052.79 318.87"/><polygon class="cls-58" points="1052.79 317.06 1179.66 416.39 1177.35 416.39 1052.79 318.87 1052.79 317.06"/><polygon class="cls-59" points="1052.79 315.25 1181.98 416.39 1179.66 416.39 1052.79 317.06 1052.79 315.25"/><polygon class="cls-60" points="1052.79 313.44 1184.29 416.39 1181.98 416.39 1052.79 315.25 1052.79 313.44"/><polygon class="cls-61" points="1052.79 311.63 1186.6 416.39 1184.29 416.39 1052.79 313.44 1052.79 311.63"/><polygon class="cls-62" points="1052.79 309.81 1188.91 416.39 1186.6 416.39 1052.79 311.63 1052.79 309.81"/><polygon class="cls-63" points="1052.79 308 1191.23 416.39 1188.91 416.39 1052.79 309.81 1052.79 308"/><polygon class="cls-64" points="1052.79 306.19 1193.54 416.39 1191.23 416.39 1052.79 308 1052.79 306.19"/><polygon class="cls-65" points="1052.79 304.38 1195.85 416.39 1193.54 416.39 1052.79 306.19 1052.79 304.38"/><polygon class="cls-66" points="1052.79 302.57 1198.16 416.39 1195.85 416.39 1052.79 304.38 1052.79 302.57"/><polygon class="cls-67" points="1052.79 300.76 1200.47 416.39 1198.16 416.39 1052.79 302.57 1052.79 300.76"/><polygon class="cls-68" points="1052.79 298.95 1202.79 416.39 1200.47 416.39 1052.79 300.76 1052.79 298.95"/><polygon class="cls-69" points="1052.79 297.14 1205.1 416.39 1202.79 416.39 1052.79 298.95 1052.79 297.14"/><polygon class="cls-70" points="1052.79 295.33 1207.41 416.39 1205.1 416.39 1052.79 297.14 1052.79 295.33"/><polygon class="cls-71" points="1052.79 293.52 1209.72 416.39 1207.41 416.39 1052.79 295.33 1052.79 293.52"/><polygon class="cls-72" points="1052.79 291.71 1212.04 416.39 1209.72 416.39 1052.79 293.52 1052.79 291.71"/><polygon class="cls-73" points="1052.79 289.9 1214.35 416.39 1212.04 416.39 1052.79 291.71 1052.79 289.9"/><polygon class="cls-74" points="1052.79 288.09 1216.66 416.39 1214.35 416.39 1052.79 289.9 1052.79 288.09"/><polygon class="cls-75" points="1052.79 286.28 1218.97 416.39 1216.66 416.39 1052.79 288.09 1052.79 286.28"/><polygon class="cls-76" points="1052.79 284.47 1221.28 416.39 1218.97 416.39 1052.79 286.28 1052.79 284.47"/><polygon class="cls-77" points="1052.79 282.66 1223.6 416.39 1221.28 416.39 1052.79 284.47 1052.79 282.66"/><polygon class="cls-78" points="1052.79 280.85 1225.91 416.39 1223.6 416.39 1052.79 282.66 1052.79 280.85"/><polygon class="cls-79" points="1052.79 279.04 1228.22 416.39 1225.91 416.39 1052.79 280.85 1052.79 279.04"/><polygon class="cls-80" points="1052.79 277.23 1230.53 416.39 1228.22 416.39 1052.79 279.04 1052.79 277.23"/><polygon class="cls-81" points="1052.79 275.42 1232.85 416.39 1230.53 416.39 1052.79 277.23 1052.79 275.42"/><polygon class="cls-82" points="1052.79 273.61 1235.16 416.39 1232.85 416.39 1052.79 275.42 1052.79 273.61"/><polygon class="cls-83" points="1052.79 271.8 1237.47 416.39 1235.16 416.39 1052.79 273.61 1052.79 271.8"/><polygon class="cls-84" points="1052.79 269.99 1238.42 415.33 1237.58 416.39 1237.47 416.39 1052.79 271.8 1052.79 269.99"/><polygon class="cls-85" points="1052.79 268.18 1238.79 413.81 1238.79 414.85 1238.42 415.33 1052.79 269.99 1052.79 268.18"/><polygon class="cls-86" points="1052.79 266.36 1238.79 412 1238.79 413.81 1052.79 268.18 1052.79 266.36"/><polygon class="cls-87" points="1052.79 264.55 1238.79 410.19 1238.79 412 1052.79 266.36 1052.79 264.55"/><polygon class="cls-88" points="1052.79 262.74 1238.79 408.38 1238.79 410.19 1052.79 264.55 1052.79 262.74"/><polygon class="cls-89" points="1052.79 260.93 1238.79 406.57 1238.79 408.38 1052.79 262.74 1052.79 260.93"/><polygon class="cls-90" points="1052.79 259.12 1238.79 404.76 1238.79 406.57 1052.79 260.93 1052.79 259.12"/><polygon class="cls-91" points="1052.79 257.31 1238.79 402.95 1238.79 404.76 1052.79 259.12 1052.79 257.31"/><polygon class="cls-92" points="1052.79 255.5 1238.79 401.14 1238.79 402.95 1052.79 257.31 1052.79 255.5"/><polygon class="cls-93" points="1052.79 253.69 1238.79 399.33 1238.79 401.14 1052.79 255.5 1052.79 253.69"/><polygon class="cls-94" points="1052.79 251.88 1238.79 397.52 1238.79 399.33 1052.79 253.69 1052.79 251.88"/><polygon class="cls-95" points="1052.79 250.07 1238.79 395.71 1238.79 397.52 1052.79 251.88 1052.79 250.07"/><polygon class="cls-96" points="1052.79 248.26 1238.79 393.9 1238.79 395.71 1052.79 250.07 1052.79 248.26"/><polygon class="cls-97" points="1052.79 246.45 1238.79 392.09 1238.79 393.9 1052.79 248.26 1052.79 246.45"/><polygon class="cls-98" points="1052.79 244.64 1238.79 390.28 1238.79 392.09 1052.79 246.45 1052.79 244.64"/><polygon class="cls-99" points="1052.79 242.83 1238.79 388.46 1238.79 390.28 1052.79 244.64 1052.79 242.83"/><polygon class="cls-100" points="1052.79 241.02 1238.79 386.65 1238.79 388.46 1052.79 242.83 1052.79 241.02"/><polygon class="cls-101" points="1052.79 239.21 1238.79 384.85 1238.79 386.65 1052.79 241.02 1052.79 239.21"/><polygon class="cls-102" points="1052.79 237.4 1238.79 383.03 1238.79 384.85 1052.79 239.21 1052.79 237.4"/><polygon class="cls-103" points="1052.79 235.59 1238.79 381.22 1238.79 383.03 1052.79 237.4 1052.79 235.59"/><polygon class="cls-104" points="1052.79 233.78 1238.79 379.41 1238.79 381.22 1052.79 235.59 1052.79 233.78"/><polygon class="cls-105" points="1052.79 231.97 1238.79 377.6 1238.79 379.41 1052.79 233.78 1052.79 231.97"/><polygon class="cls-106" points="1052.79 230.16 1238.79 375.79 1238.79 377.6 1052.79 231.97 1052.79 230.16"/><polygon class="cls-107" points="1052.79 228.35 1238.79 373.98 1238.79 375.79 1052.79 230.16 1052.79 228.35"/><polygon class="cls-108" points="1052.79 226.53 1238.79 372.17 1238.79 373.98 1052.79 228.35 1052.79 226.53"/><polygon class="cls-109" points="1052.79 224.72 1238.79 370.36 1238.79 372.17 1052.79 226.53 1052.79 224.72"/><polygon class="cls-110" points="1052.79 222.91 1238.79 368.55 1238.79 370.36 1052.79 224.72 1052.79 222.91"/><polygon class="cls-111" points="1052.79 221.1 1238.79 366.74 1238.79 368.55 1052.79 222.91 1052.79 221.1"/><polygon class="cls-23" points="1052.79 219.29 1238.79 364.93 1238.79 366.74 1052.79 221.1 1052.79 219.29"/><polygon class="cls-23" points="1052.79 215.94 1238.79 361.57 1238.79 364.93 1052.79 219.29 1052.79 215.94"/><polygon class="cls-24" points="1052.79 212.58 1238.79 358.22 1238.79 361.57 1052.79 215.94 1052.79 212.58"/><polygon class="cls-25" points="1052.79 209.23 1238.79 354.87 1238.79 358.22 1052.79 212.58 1052.79 209.23"/><polygon class="cls-26" points="1052.79 205.87 1238.79 351.51 1238.79 354.87 1052.79 209.23 1052.79 205.87"/><polygon class="cls-27" points="1052.79 202.52 1238.79 348.15 1238.79 351.51 1052.79 205.87 1052.79 202.52"/><polygon class="cls-28" points="1052.79 199.16 1238.79 344.8 1238.79 348.15 1052.79 202.52 1052.79 199.16"/><polygon class="cls-29" points="1052.79 195.81 1238.79 341.44 1238.79 344.8 1052.79 199.16 1052.79 195.81"/><polygon class="cls-30" points="1052.79 192.45 1238.79 338.09 1238.79 341.44 1052.79 195.81 1052.79 192.45"/><polygon class="cls-31" points="1052.79 189.1 1238.79 334.73 1238.79 338.09 1052.79 192.45 1052.79 189.1"/><polygon class="cls-32" points="1052.79 185.74 1238.79 331.38 1238.79 334.73 1052.79 189.1 1052.79 185.74"/><polygon class="cls-33" points="1052.79 182.39 1238.79 328.02 1238.79 331.38 1052.79 185.74 1052.79 182.39"/><polygon class="cls-34" points="1052.79 181.66 1054.07 180.03 1238.79 324.67 1238.79 328.02 1052.79 182.39 1052.79 181.66"/><polygon class="cls-35" points="1054.07 180.03 1055.7 177.95 1238.79 321.31 1238.79 324.67 1054.07 180.03"/><polygon class="cls-36" points="1055.7 177.95 1057.33 175.87 1238.79 317.96 1238.79 321.31 1055.7 177.95"/><polygon class="cls-37" points="1057.33 175.87 1058.96 173.79 1238.79 314.6 1238.79 317.96 1057.33 175.87"/><polygon class="cls-38" points="1058.96 173.79 1060.58 171.71 1238.79 311.25 1238.79 314.6 1058.96 173.79"/><polygon class="cls-3" points="1060.58 171.71 1062.21 169.63 1238.79 307.89 1238.79 311.25 1060.58 171.71"/><polygon class="cls-4" points="1062.21 169.63 1063.84 167.55 1238.79 304.54 1238.79 307.89 1062.21 169.63"/><polygon class="cls-5" points="1063.84 167.55 1065.47 165.47 1238.79 301.18 1238.79 304.54 1063.84 167.55"/><polygon class="cls-6" points="1065.47 165.47 1067.1 163.39 1238.79 297.83 1238.79 301.18 1065.47 165.47"/><polygon class="cls-7" points="1067.1 163.39 1068.73 161.31 1238.79 294.47 1238.79 297.83 1067.1 163.39"/><polygon class="cls-8" points="1068.73 161.31 1070.36 159.23 1238.79 291.12 1238.79 294.47 1068.73 161.31"/><polygon class="cls-9" points="1070.36 159.23 1071.98 157.15 1238.79 287.76 1238.79 291.12 1070.36 159.23"/><polygon class="cls-10" points="1071.98 157.15 1073.61 155.07 1238.79 284.41 1238.79 287.76 1071.98 157.15"/><polygon class="cls-11" points="1073.61 155.07 1075.24 152.99 1238.79 281.05 1238.79 284.41 1073.61 155.07"/><polygon class="cls-12" points="1075.24 152.99 1076.87 150.91 1238.79 277.7 1238.79 281.05 1075.24 152.99"/><polygon class="cls-13" points="1076.87 150.91 1078.5 148.83 1238.79 274.34 1238.79 277.7 1076.87 150.91"/><polygon class="cls-14" points="1078.5 148.83 1080.13 146.75 1238.79 270.99 1238.79 274.34 1078.5 148.83"/><polygon class="cls-15" points="1080.13 146.75 1081.76 144.67 1238.79 267.63 1238.79 270.99 1080.13 146.75"/><polygon class="cls-16" points="1081.76 144.67 1082.86 143.26 1084.24 143.26 1238.79 264.27 1238.79 267.63 1081.76 144.67"/><polygon class="cls-17" points="1088.53 143.26 1238.79 260.92 1238.79 264.27 1084.24 143.26 1088.53 143.26"/><polygon class="cls-18" points="1092.82 143.26 1238.79 257.56 1238.79 260.92 1088.53 143.26 1092.82 143.26"/><polygon class="cls-19" points="1097.1 143.26 1238.79 254.21 1238.79 257.56 1092.82 143.26 1097.1 143.26"/><polygon class="cls-20" points="1101.39 143.26 1238.79 250.85 1238.79 254.21 1097.1 143.26 1101.39 143.26"/><polygon class="cls-21" points="1105.67 143.26 1238.79 247.5 1238.79 250.85 1101.39 143.26 1105.67 143.26"/><polygon class="cls-22" points="1109.96 143.26 1238.79 244.14 1238.79 247.5 1105.67 143.26 1109.96 143.26"/><polygon class="cls-112" points="1114.24 143.26 1238.79 240.79 1238.79 244.14 1109.96 143.26 1114.24 143.26"/><polygon class="cls-113" points="1118.53 143.26 1238.79 237.43 1238.79 240.79 1114.24 143.26 1118.53 143.26"/><polygon class="cls-114" points="1122.81 143.26 1238.79 234.08 1238.79 237.43 1118.53 143.26 1122.81 143.26"/><polygon class="cls-115" points="1127.1 143.26 1238.79 230.72 1238.79 234.08 1122.81 143.26 1127.1 143.26"/><polygon class="cls-116" points="1131.38 143.26 1238.79 227.37 1238.79 230.72 1127.1 143.26 1131.38 143.26"/><polygon class="cls-117" points="1135.67 143.26 1238.79 224.01 1238.79 227.37 1131.38 143.26 1135.67 143.26"/><polygon class="cls-118" points="1139.95 143.26 1238.79 220.66 1238.79 224.01 1135.67 143.26 1139.95 143.26"/><polygon class="cls-119" points="1144.24 143.26 1238.79 217.3 1238.79 220.66 1139.95 143.26 1144.24 143.26"/><polygon class="cls-120" points="1148.52 143.26 1238.79 213.95 1238.79 217.3 1144.24 143.26 1148.52 143.26"/><polygon class="cls-120" points="1238.79 213.95 1148.52 143.26 1238.79 143.26 1238.79 213.95"/></g><g class="cls-121"><polygon class="cls-39" points="0 175.66 92.58 147.61 174.71 418.71 0 418.71 0 175.66"/><polygon class="cls-39" points="92.58 147.61 97.06 146.26 179.6 418.71 174.71 418.71 92.58 147.61"/><polygon class="cls-40" points="97.06 146.26 101.54 144.9 184.48 418.71 179.6 418.71 97.06 146.26"/><polygon class="cls-41" points="101.54 144.9 105.29 143.76 106.08 143.76 189.37 418.71 184.48 418.71 101.54 144.9"/><polygon class="cls-42" points="110.97 143.76 194.26 418.71 189.37 418.71 106.08 143.76 110.97 143.76"/><polygon class="cls-43" points="115.85 143.76 199.15 418.71 194.26 418.71 110.97 143.76 115.85 143.76"/><polygon class="cls-44" points="120.74 143.76 204.03 418.71 199.15 418.71 115.85 143.76 120.74 143.76"/><polygon class="cls-45" points="125.63 143.76 208.92 418.71 204.03 418.71 120.74 143.76 125.63 143.76"/><polygon class="cls-46" points="130.51 143.76 213.81 418.71 208.92 418.71 125.63 143.76 130.51 143.76"/><polygon class="cls-47" points="135.4 143.76 218.69 418.71 213.81 418.71 130.51 143.76 135.4 143.76"/><polygon class="cls-48" points="140.29 143.76 223.58 418.71 218.69 418.71 135.4 143.76 140.29 143.76"/><polygon class="cls-49" points="145.18 143.76 228.47 418.71 223.58 418.71 140.29 143.76 145.18 143.76"/><polygon class="cls-50" points="150.06 143.76 233.35 418.71 228.47 418.71 145.18 143.76 150.06 143.76"/><polygon class="cls-51" points="154.95 143.76 238.16 418.43 237.25 418.71 233.35 418.71 150.06 143.76 154.95 143.76"/><polygon class="cls-52" points="159.84 143.76 242.63 417.08 238.16 418.43 154.95 143.76 159.84 143.76"/><polygon class="cls-53" points="164.72 143.76 247.11 415.72 242.63 417.08 159.84 143.76 164.72 143.76"/><polygon class="cls-54" points="169.61 143.76 251.31 413.45 251.31 414.45 247.11 415.72 164.72 143.76 169.61 143.76"/><polygon class="cls-55" points="174.5 143.76 251.31 397.31 251.31 413.45 169.61 143.76 174.5 143.76"/><polygon class="cls-56" points="179.38 143.76 251.31 381.18 251.31 397.31 174.5 143.76 179.38 143.76"/><polygon class="cls-57" points="184.27 143.76 251.31 365.05 251.31 381.18 179.38 143.76 184.27 143.76"/><polygon class="cls-58" points="189.16 143.76 251.31 348.92 251.31 365.05 184.27 143.76 189.16 143.76"/><polygon class="cls-59" points="194.04 143.76 251.31 332.79 251.31 348.92 189.16 143.76 194.04 143.76"/><polygon class="cls-60" points="198.93 143.76 251.31 316.66 251.31 332.79 194.04 143.76 198.93 143.76"/><polygon class="cls-61" points="203.82 143.76 251.31 300.52 251.31 316.66 198.93 143.76 203.82 143.76"/><polygon class="cls-62" points="208.71 143.76 251.31 284.39 251.31 300.52 203.82 143.76 208.71 143.76"/><polygon class="cls-63" points="213.59 143.76 251.31 268.26 251.31 284.39 208.71 143.76 213.59 143.76"/><polygon class="cls-64" points="218.48 143.76 251.31 252.13 251.31 268.26 213.59 143.76 218.48 143.76"/><polygon class="cls-65" points="223.37 143.76 251.31 236 251.31 252.13 218.48 143.76 223.37 143.76"/><polygon class="cls-66" points="228.25 143.76 251.31 219.87 251.31 236 223.37 143.76 228.25 143.76"/><polygon class="cls-67" points="233.14 143.76 251.31 203.73 251.31 219.87 228.25 143.76 233.14 143.76"/><polygon class="cls-68" points="238.03 143.76 251.31 187.6 251.31 203.73 233.14 143.76 238.03 143.76"/><polygon class="cls-69" points="242.91 143.76 251.31 171.47 251.31 187.6 238.03 143.76 242.91 143.76"/><polygon class="cls-70" points="247.8 143.76 251.31 155.34 251.31 171.47 242.91 143.76 247.8 143.76"/><polygon class="cls-71" points="251.31 155.34 247.8 143.76 251.31 143.76 251.31 155.34"/></g><g class="cls-122"><polygon class="cls-107" points="510.57 414.3 511.83 418.43 510.57 418.43 510.57 414.3"/><polygon class="cls-108" points="510.57 398.16 516.71 418.43 511.83 418.43 510.57 414.3 510.57 398.16"/><polygon class="cls-109" points="510.57 382.03 521.6 418.43 516.71 418.43 510.57 398.16 510.57 382.03"/><polygon class="cls-110" points="510.57 365.9 526.49 418.43 521.6 418.43 510.57 382.03 510.57 365.9"/><polygon class="cls-111" points="510.57 349.77 531.38 418.43 526.49 418.43 510.57 365.9 510.57 349.77"/><polygon class="cls-23" points="510.57 333.64 536.26 418.43 531.38 418.43 510.57 349.77 510.57 333.64"/><polygon class="cls-23" points="510.57 303.74 545.32 418.43 536.26 418.43 510.57 333.64 510.57 303.74"/><polygon class="cls-24" points="510.57 273.84 554.38 418.43 545.32 418.43 510.57 303.74 510.57 273.84"/><polygon class="cls-25" points="510.57 243.95 563.43 418.43 554.38 418.43 510.57 273.84 510.57 243.95"/><polygon class="cls-26" points="510.57 214.05 572.49 418.43 563.43 418.43 510.57 243.95 510.57 214.05"/><polygon class="cls-27" points="510.57 184.15 581.55 418.43 572.49 418.43 510.57 214.05 510.57 184.15"/><polygon class="cls-28" points="510.57 154.26 590.6 418.43 581.55 418.43 510.57 184.15 510.57 154.26"/><polygon class="cls-29" points="510.57 147.74 517.06 145.78 599.66 418.43 590.6 418.43 510.57 154.26 510.57 147.74"/><polygon class="cls-30" points="517.06 145.78 525.36 143.27 608.72 418.43 599.66 418.43 517.06 145.78"/><polygon class="cls-31" points="525.36 143.27 531.03 141.55 533.89 141.55 617.77 418.43 608.72 418.43 525.36 143.27"/><polygon class="cls-32" points="542.95 141.55 626.83 418.43 617.77 418.43 533.89 141.55 542.95 141.55"/><polygon class="cls-33" points="552.01 141.55 635.89 418.43 626.83 418.43 542.95 141.55 552.01 141.55"/><polygon class="cls-34" points="561.07 141.55 644.94 418.43 635.89 418.43 552.01 141.55 561.07 141.55"/><polygon class="cls-35" points="570.12 141.55 654 418.43 644.94 418.43 561.07 141.55 570.12 141.55"/><polygon class="cls-36" points="579.18 141.55 662.51 416.64 656.59 418.43 654 418.43 570.12 141.55 579.18 141.55"/><polygon class="cls-37" points="588.24 141.55 670.81 414.12 662.51 416.64 579.18 141.55 588.24 141.55"/><polygon class="cls-38" points="597.29 141.55 679.11 411.61 670.81 414.12 588.24 141.55 597.29 141.55"/><polygon class="cls-3" points="606.35 141.55 687.4 409.1 679.11 411.61 597.29 141.55 606.35 141.55"/><polygon class="cls-4" points="615.41 141.55 695.7 406.58 687.4 409.1 606.35 141.55 615.41 141.55"/><polygon class="cls-5" points="624.46 141.55 703.99 404.07 695.7 406.58 615.41 141.55 624.46 141.55"/><polygon class="cls-6" points="633.52 141.55 712.29 401.56 703.99 404.07 624.46 141.55 633.52 141.55"/><polygon class="cls-7" points="642.58 141.55 720.58 399.05 712.29 401.56 633.52 141.55 642.58 141.55"/><polygon class="cls-8" points="651.63 141.55 728.88 396.53 720.58 399.05 642.58 141.55 651.63 141.55"/><polygon class="cls-9" points="660.69 141.55 737.17 394.02 728.88 396.53 651.63 141.55 660.69 141.55"/><polygon class="cls-10" points="669.75 141.55 745.47 391.51 737.17 394.02 660.69 141.55 669.75 141.55"/><polygon class="cls-11" points="678.8 141.55 753.76 388.99 745.47 391.51 669.75 141.55 678.8 141.55"/><polygon class="cls-12" points="687.86 141.55 761.88 385.89 761.88 386.53 753.76 388.99 678.8 141.55 687.86 141.55"/><polygon class="cls-13" points="696.92 141.55 761.88 355.99 761.88 385.89 687.86 141.55 696.92 141.55"/><polygon class="cls-14" points="705.97 141.55 761.88 326.1 761.88 355.99 696.92 141.55 705.97 141.55"/><polygon class="cls-15" points="715.03 141.55 761.88 296.2 761.88 326.1 705.97 141.55 715.03 141.55"/><polygon class="cls-16" points="724.09 141.55 761.88 266.3 761.88 296.2 715.03 141.55 724.09 141.55"/><polygon class="cls-17" points="733.14 141.55 761.88 236.41 761.88 266.3 724.09 141.55 733.14 141.55"/><polygon class="cls-18" points="742.2 141.55 761.88 206.51 761.88 236.41 733.14 141.55 742.2 141.55"/><polygon class="cls-19" points="751.26 141.55 761.88 176.62 761.88 206.51 742.2 141.55 751.26 141.55"/><polygon class="cls-20" points="760.32 141.55 761.88 146.72 761.88 176.62 751.26 141.55 760.32 141.55"/><polygon class="cls-21" points="761.88 146.72 760.32 141.55 761.88 141.55 761.88 146.72"/></g><g class="cls-123"><polygon class="cls-61" points="283.89 408.08 287.11 418.71 283.89 418.71 283.89 408.08"/><polygon class="cls-62" points="283.89 391.95 292 418.71 287.11 418.71 283.89 408.08 283.89 391.95"/><polygon class="cls-63" points="283.89 375.82 296.88 418.71 292 418.71 283.89 391.95 283.89 375.82"/><polygon class="cls-64" points="283.89 359.69 301.77 418.71 296.88 418.71 283.89 375.82 283.89 359.69"/><polygon class="cls-65" points="283.89 343.56 306.66 418.71 301.77 418.71 283.89 359.69 283.89 343.56"/><polygon class="cls-66" points="283.89 327.42 311.55 418.71 306.66 418.71 283.89 343.56 283.89 327.42"/><polygon class="cls-67" points="283.89 311.29 316.43 418.71 311.55 418.71 283.89 327.42 283.89 311.29"/><polygon class="cls-68" points="283.89 295.16 321.32 418.71 316.43 418.71 283.89 311.29 283.89 295.16"/><polygon class="cls-69" points="283.89 279.03 326.21 418.71 321.32 418.71 283.89 295.16 283.89 279.03"/><polygon class="cls-70" points="283.89 262.9 331.09 418.71 326.21 418.71 283.89 279.03 283.89 262.9"/><polygon class="cls-71" points="283.89 246.76 335.98 418.71 331.09 418.71 283.89 262.9 283.89 246.76"/><polygon class="cls-72" points="283.89 230.63 340.87 418.71 335.98 418.71 283.89 246.76 283.89 230.63"/><polygon class="cls-73" points="283.89 214.5 345.75 418.71 340.87 418.71 283.89 230.63 283.89 214.5"/><polygon class="cls-74" points="283.89 198.37 350.64 418.71 345.75 418.71 283.89 214.5 283.89 198.37"/><polygon class="cls-75" points="283.89 182.24 355.53 418.71 350.64 418.71 283.89 198.37 283.89 182.24"/><polygon class="cls-76" points="283.89 175.66 286.54 174.86 360.42 418.71 355.53 418.71 283.89 182.24 283.89 175.66"/><polygon class="cls-77" points="286.54 174.86 291.02 173.5 365.3 418.71 360.42 418.71 286.54 174.86"/><polygon class="cls-78" points="291.02 173.5 295.5 172.15 370.19 418.71 365.3 418.71 291.02 173.5"/><polygon class="cls-79" points="295.5 172.15 299.97 170.79 375.08 418.71 370.19 418.71 295.5 172.15"/><polygon class="cls-80" points="299.97 170.79 304.45 169.43 379.96 418.71 375.08 418.71 299.97 170.79"/><polygon class="cls-81" points="304.45 169.43 308.92 168.08 384.85 418.71 379.96 418.71 304.45 169.43"/><polygon class="cls-82" points="308.92 168.08 313.4 166.72 389.74 418.71 384.85 418.71 308.92 168.08"/><polygon class="cls-83" points="313.4 166.72 317.88 165.37 394.62 418.71 389.74 418.71 313.4 166.72"/><polygon class="cls-84" points="317.88 165.37 322.35 164.01 399.51 418.71 394.62 418.71 317.88 165.37"/><polygon class="cls-85" points="322.35 164.01 326.83 162.65 404.4 418.71 399.51 418.71 322.35 164.01"/><polygon class="cls-86" points="326.83 162.65 331.31 161.3 409.29 418.71 404.4 418.71 326.83 162.65"/><polygon class="cls-87" points="331.31 161.3 335.78 159.94 414.17 418.71 409.29 418.71 331.31 161.3"/><polygon class="cls-88" points="335.78 159.94 340.26 158.59 419.06 418.71 414.17 418.71 335.78 159.94"/><polygon class="cls-89" points="340.26 158.59 344.73 157.23 423.95 418.71 419.06 418.71 340.26 158.59"/><polygon class="cls-90" points="344.73 157.23 349.21 155.87 428.83 418.71 423.95 418.71 344.73 157.23"/><polygon class="cls-91" points="349.21 155.87 353.69 154.52 433.72 418.71 428.83 418.71 349.21 155.87"/><polygon class="cls-92" points="353.69 154.52 358.16 153.16 438.61 418.71 433.72 418.71 353.69 154.52"/><polygon class="cls-93" points="358.16 153.16 362.64 151.81 443.49 418.71 438.61 418.71 358.16 153.16"/><polygon class="cls-94" points="362.64 151.81 367.11 150.45 448.38 418.71 443.49 418.71 362.64 151.81"/><polygon class="cls-95" points="367.11 150.45 371.59 149.09 453.27 418.71 448.38 418.71 367.11 150.45"/><polygon class="cls-96" points="371.59 149.09 376.07 147.74 458.15 418.71 453.27 418.71 371.59 149.09"/><polygon class="cls-97" points="376.07 147.74 380.54 146.38 463.04 418.71 458.15 418.71 376.07 147.74"/><polygon class="cls-98" points="380.54 146.38 385.02 145.03 467.93 418.71 463.04 418.71 380.54 146.38"/><polygon class="cls-99" points="385.02 145.03 389.18 143.76 389.52 143.76 472.82 418.71 467.93 418.71 385.02 145.03"/><polygon class="cls-100" points="394.41 143.76 477.7 418.71 472.82 418.71 389.52 143.76 394.41 143.76"/><polygon class="cls-101" points="399.3 143.76 482.59 418.71 477.7 418.71 394.41 143.76 399.3 143.76"/><polygon class="cls-102" points="404.19 143.76 487.48 418.71 482.59 418.71 399.3 143.76 404.19 143.76"/><polygon class="cls-103" points="409.07 143.76 492.36 418.71 487.48 418.71 404.19 143.76 409.07 143.76"/><polygon class="cls-104" points="413.96 143.76 497.25 418.71 492.36 418.71 409.07 143.76 413.96 143.76"/><polygon class="cls-105" points="418.85 143.76 502.14 418.71 497.25 418.71 413.96 143.76 418.85 143.76"/><polygon class="cls-106" points="423.73 143.76 507.02 418.71 502.14 418.71 418.85 143.76 423.73 143.76"/><polygon class="cls-107" points="428.62 143.76 511.91 418.71 507.02 418.71 423.73 143.76 428.62 143.76"/><polygon class="cls-108" points="433.51 143.76 516.8 418.71 511.91 418.71 428.62 143.76 433.51 143.76"/><polygon class="cls-109" points="438.39 143.76 521.64 418.56 521.14 418.71 516.8 418.71 433.51 143.76 438.39 143.76"/><polygon class="cls-110" points="443.28 143.76 526.12 417.2 521.64 418.56 438.39 143.76 443.28 143.76"/><polygon class="cls-111" points="448.17 143.76 530.59 415.85 526.12 417.2 443.28 143.76 448.17 143.76"/><polygon class="cls-23" points="453.05 143.76 535.07 414.49 530.59 415.85 448.17 143.76 453.05 143.76"/><polygon class="cls-23" points="462.11 143.76 535.2 385.03 535.2 414.45 535.07 414.49 453.05 143.76 462.11 143.76"/><polygon class="cls-24" points="471.17 143.76 535.2 355.13 535.2 385.03 462.11 143.76 471.17 143.76"/><polygon class="cls-25" points="480.23 143.76 535.2 325.23 535.2 355.13 471.17 143.76 480.23 143.76"/><polygon class="cls-26" points="489.28 143.76 535.2 295.34 535.2 325.23 480.23 143.76 489.28 143.76"/><polygon class="cls-27" points="498.34 143.76 535.2 265.44 535.2 295.34 489.28 143.76 498.34 143.76"/><polygon class="cls-28" points="507.39 143.76 535.2 235.54 535.2 265.44 498.34 143.76 507.39 143.76"/><polygon class="cls-29" points="516.45 143.76 535.2 205.65 535.2 235.54 507.39 143.76 516.45 143.76"/><polygon class="cls-30" points="525.51 143.76 535.2 175.75 535.2 205.65 516.45 143.76 525.51 143.76"/><polygon class="cls-31" points="534.57 143.76 535.2 145.85 535.2 175.75 525.51 143.76 534.57 143.76"/><polygon class="cls-32" points="535.2 145.85 534.57 143.76 535.2 143.76 535.2 145.85"/></g><g class="cls-124"><polygon class="cls-16" points="799.29 389.8 807.36 416.43 799.29 416.43 799.29 389.8"/><polygon class="cls-17" points="799.29 359.9 816.42 416.43 807.36 416.43 799.29 389.8 799.29 359.9"/><polygon class="cls-18" points="799.29 330.01 825.48 416.43 816.42 416.43 799.29 359.9 799.29 330.01"/><polygon class="cls-19" points="799.29 300.11 834.53 416.43 825.48 416.43 799.29 330.01 799.29 300.11"/><polygon class="cls-20" points="799.29 270.21 843.59 416.43 834.53 416.43 799.29 300.11 799.29 270.21"/><polygon class="cls-21" points="799.29 240.32 852.65 416.43 843.59 416.43 799.29 270.21 799.29 240.32"/><polygon class="cls-22" points="799.29 210.42 861.7 416.43 852.65 416.43 799.29 240.32 799.29 210.42"/><polygon class="cls-112" points="799.29 180.53 870.76 416.43 861.7 416.43 799.29 210.42 799.29 180.53"/><polygon class="cls-113" points="799.29 150.63 879.82 416.43 870.76 416.43 799.29 180.53 799.29 150.63"/><polygon class="cls-114" points="799.29 143.91 799.78 143.76 806.27 143.76 888.87 416.43 879.82 416.43 799.29 150.63 799.29 143.91"/><polygon class="cls-115" points="815.33 143.76 897.93 416.43 888.87 416.43 806.27 143.76 815.33 143.76"/><polygon class="cls-116" points="824.38 143.76 906.99 416.43 897.93 416.43 815.33 143.76 824.38 143.76"/><polygon class="cls-117" points="833.44 143.76 916.04 416.43 906.99 416.43 824.38 143.76 833.44 143.76"/><polygon class="cls-118" points="842.5 143.76 925.1 416.43 916.04 416.43 833.44 143.76 842.5 143.76"/><polygon class="cls-119" points="851.55 143.76 934.16 416.43 925.1 416.43 842.5 143.76 851.55 143.76"/><polygon class="cls-120" points="860.61 143.76 943.21 416.43 934.16 416.43 851.55 143.76 860.61 143.76"/><polygon class="cls-120" points="984.79 416.28 984.3 416.43 943.21 416.43 860.61 143.76 984.79 143.76 984.79 416.28"/></g><g class="cls-125"><rect class="cls-39" x="348.5" width="42.33" height="77.47"/></g><g class="cls-126"><rect class="cls-39" x="398.73" y="11.44" width="37.37" height="65.63"/></g><g class="cls-127"><polygon class="cls-39" points="456.46 38.02 459.23 66.33 456.46 66.33 456.46 38.02"/><polygon class="cls-40" points="460.23 36.36 463.17 66.33 459.23 66.33 456.46 38.02 456.46 36.36 460.23 36.36"/><polygon class="cls-41" points="464.16 36.36 467.1 66.33 463.17 66.33 460.23 36.36 464.16 36.36"/><polygon class="cls-42" points="468.1 36.36 471.04 66.33 467.1 66.33 464.16 36.36 468.1 36.36"/><polygon class="cls-43" points="472.03 36.36 474.97 66.33 471.04 66.33 468.1 36.36 472.03 36.36"/><polygon class="cls-44" points="475.97 36.36 478.9 66.33 474.97 66.33 472.03 36.36 475.97 36.36"/><polygon class="cls-45" points="479.9 36.36 482.84 66.33 478.9 66.33 475.97 36.36 479.9 36.36"/><polygon class="cls-46" points="483.84 36.36 486.33 61.85 486.33 66.33 482.84 66.33 479.9 36.36 483.84 36.36"/><polygon class="cls-47" points="486.33 61.85 483.84 36.36 486.33 36.36 486.33 61.85"/><polygon class="cls-39" points="451.27 25.22 456.39 77.47 445.22 77.47 445.22 25.22 451.27 25.22"/><polygon class="cls-39" points="455.2 25.22 460.32 77.47 456.39 77.47 451.27 25.22 455.2 25.22"/><polygon class="cls-40" points="459.14 25.22 464.26 77.47 460.32 77.47 455.2 25.22 459.14 25.22"/><polygon class="cls-41" points="463.07 25.22 468.19 77.47 464.26 77.47 459.14 25.22 463.07 25.22"/><polygon class="cls-42" points="467.01 25.22 472.13 77.47 468.19 77.47 463.07 25.22 467.01 25.22"/><polygon class="cls-43" points="470.94 25.22 476.06 77.47 472.13 77.47 467.01 25.22 470.94 25.22"/><polygon class="cls-44" points="474.88 25.22 480 77.47 476.06 77.47 470.94 25.22 474.88 25.22"/><polygon class="cls-45" points="478.81 25.22 483.93 77.47 480 77.47 474.88 25.22 478.81 25.22"/><polygon class="cls-46" points="482.75 25.22 487.86 77.47 483.93 77.47 478.81 25.22 482.75 25.22"/><polygon class="cls-47" points="486.68 25.22 491.8 77.47 487.86 77.47 482.75 25.22 486.68 25.22"/><polygon class="cls-48" points="490.61 25.22 495.73 77.47 491.8 77.47 486.68 25.22 490.61 25.22"/><polygon class="cls-49" points="494.55 25.22 497.57 56.12 497.57 77.47 495.73 77.47 490.61 25.22 494.55 25.22"/><polygon class="cls-50" points="497.57 56.12 494.55 25.22 497.57 25.22 497.57 56.12"/></g><g class="cls-128"><polygon class="cls-53" points="513.48 57.78 515.37 77.07 513.48 77.07 513.48 57.78"/><polygon class="cls-54" points="514.22 25.22 519.3 77.07 515.37 77.07 513.48 57.78 513.48 25.22 514.22 25.22"/><polygon class="cls-55" points="518.15 25.22 523.23 77.07 519.3 77.07 514.22 25.22 518.15 25.22"/><polygon class="cls-56" points="522.09 25.22 527.17 77.07 523.23 77.07 518.15 25.22 522.09 25.22"/><polygon class="cls-57" points="526.02 25.22 531.1 77.07 527.17 77.07 522.09 25.22 526.02 25.22"/><polygon class="cls-58" points="529.96 25.22 535.04 77.07 531.1 77.07 526.02 25.22 529.96 25.22"/><polygon class="cls-59" points="533.89 25.22 538.97 77.07 535.04 77.07 529.96 25.22 533.89 25.22"/><polygon class="cls-60" points="537.83 25.22 542.9 77.07 538.97 77.07 533.89 25.22 537.83 25.22"/><polygon class="cls-61" points="541.76 25.22 546.84 77.07 542.9 77.07 537.83 25.22 541.76 25.22"/><polygon class="cls-62" points="545.69 25.22 550.77 77.07 546.84 77.07 541.76 25.22 545.69 25.22"/><polygon class="cls-63" points="549.63 25.22 554.71 77.07 550.77 77.07 545.69 25.22 549.63 25.22"/><polygon class="cls-64" points="553.56 25.22 558.14 71.91 558.14 77.07 554.71 77.07 549.63 25.22 553.56 25.22"/><polygon class="cls-65" points="557.5 25.22 558.14 31.75 558.14 71.91 553.56 25.22 557.5 25.22"/><polygon class="cls-66" points="558.14 31.75 557.5 25.22 558.14 25.22 558.14 31.75"/></g><g class="cls-129"><polygon class="cls-68" points="573.84 71.51 574.38 77.07 573.84 77.07 573.84 71.51"/><polygon class="cls-69" points="573.84 31.35 578.31 77.07 574.38 77.07 573.84 71.51 573.84 31.35"/><polygon class="cls-70" points="577.21 25.62 582.25 77.07 578.31 77.07 573.84 31.35 573.84 25.62 577.21 25.62"/><polygon class="cls-71" points="581.14 25.62 585.08 65.78 585.08 77.07 582.25 77.07 577.21 25.62 581.14 25.62"/><polygon class="cls-72" points="585.08 65.78 581.14 25.62 585.08 25.62 585.08 65.78"/><polygon class="cls-70" points="575.62 9.42 576.71 20.56 573.84 20.56 573.84 9.42 575.62 9.42"/><polygon class="cls-71" points="579.55 9.42 580.65 20.56 576.71 20.56 575.62 9.42 579.55 9.42"/><polygon class="cls-72" points="583.49 9.42 584.58 20.56 580.65 20.56 579.55 9.42 583.49 9.42"/><polygon class="cls-73" points="584.58 20.56 583.49 9.42 585.08 9.42 585.08 20.56 584.58 20.56"/></g><g class="cls-130"><polygon class="cls-85" points="638.75 51.43 641.26 77.07 638.75 77.07 638.75 51.43"/><polygon class="cls-86" points="638.75 11.27 645.2 77.07 641.26 77.07 638.75 51.43 638.75 11.27"/><polygon class="cls-87" points="641.63 0.51 649.13 77.07 645.2 77.07 638.75 11.27 638.75 0.51 641.63 0.51"/><polygon class="cls-88" points="645.57 0.51 653.07 77.07 649.13 77.07 641.63 0.51 645.57 0.51"/><polygon class="cls-89" points="649.5 0.51 657 77.07 653.07 77.07 645.57 0.51 649.5 0.51"/><polygon class="cls-90" points="653.43 0.51 660.93 77.07 657 77.07 649.5 0.51 653.43 0.51"/><polygon class="cls-91" points="657.37 0.51 664.87 77.07 660.93 77.07 653.43 0.51 657.37 0.51"/><polygon class="cls-92" points="661.3 0.51 668.8 77.07 664.87 77.07 657.37 0.51 661.3 0.51"/><polygon class="cls-93" points="665.24 0.51 672.74 77.07 668.8 77.07 661.3 0.51 665.24 0.51"/><polygon class="cls-94" points="669.17 0.51 676.67 77.07 672.74 77.07 665.24 0.51 669.17 0.51"/><polygon class="cls-95" points="673.11 0.51 680.61 77.07 676.67 77.07 669.17 0.51 673.11 0.51"/><polygon class="cls-96" points="677.04 0.51 681.08 41.78 681.08 77.07 680.61 77.07 673.11 0.51 677.04 0.51"/><polygon class="cls-97" points="680.97 0.51 681.08 1.62 681.08 41.78 677.04 0.51 680.97 0.51"/><polygon class="cls-98" points="681.08 1.62 680.97 0.51 681.08 0.51 681.08 1.62"/></g><g class="cls-131"><polygon class="cls-99" points="695.06 63.97 696.38 77.47 695.06 77.47 695.06 63.97"/><polygon class="cls-100" points="695.24 25.62 700.32 77.47 696.38 77.47 695.06 63.97 695.06 25.62 695.24 25.62"/><polygon class="cls-101" points="699.17 25.62 704.25 77.47 700.32 77.47 695.24 25.62 699.17 25.62"/><polygon class="cls-102" points="703.11 25.62 708.19 77.47 704.25 77.47 699.17 25.62 703.11 25.62"/><polygon class="cls-103" points="707.04 25.62 712.12 77.47 708.19 77.47 703.11 25.62 707.04 25.62"/><polygon class="cls-104" points="710.97 25.62 716.05 77.47 712.12 77.47 707.04 25.62 710.97 25.62"/><polygon class="cls-105" points="714.91 25.62 719.99 77.47 716.05 77.47 710.97 25.62 714.91 25.62"/><polygon class="cls-106" points="718.84 25.62 723.92 77.47 719.99 77.47 714.91 25.62 718.84 25.62"/><polygon class="cls-107" points="722.78 25.62 727.86 77.47 723.92 77.47 718.84 25.62 722.78 25.62"/><polygon class="cls-108" points="726.71 25.62 731.79 77.47 727.86 77.47 722.78 25.62 726.71 25.62"/><polygon class="cls-109" points="730.65 25.62 735.73 77.47 731.79 77.47 726.71 25.62 730.65 25.62"/><polygon class="cls-110" points="734.58 25.62 739.66 77.47 735.73 77.47 730.65 25.62 734.58 25.62"/><polygon class="cls-111" points="738.51 25.62 739.72 37.93 739.72 77.47 739.66 77.47 734.58 25.62 738.51 25.62"/><polygon class="cls-23" points="739.72 37.93 738.51 25.62 739.72 25.62 739.72 37.93"/></g><g class="cls-132"><polygon class="cls-24" points="755.72 12.25 762.07 77.07 755.72 77.07 755.72 12.25"/><polygon class="cls-25" points="762.34 5.37 766.86 51.53 766.86 77.07 762.07 77.07 755.72 12.25 755.72 5.37 762.34 5.37"/><polygon class="cls-26" points="766.86 51.53 762.34 5.37 766.86 5.37 766.86 51.53"/></g><g class="cls-133"><polygon class="cls-29" points="794.55 36.46 795.55 46.69 793.6 46.69 793.6 36.46 794.55 36.46"/><polygon class="cls-30" points="801.84 36.46 802.84 46.69 795.55 46.69 794.55 36.46 801.84 36.46"/><polygon class="cls-31" points="809.13 36.46 810.13 46.69 802.84 46.69 801.84 36.46 809.13 36.46"/><polygon class="cls-32" points="816.42 36.46 817.43 46.69 810.13 46.69 809.13 36.46 816.42 36.46"/><polygon class="cls-33" points="817.43 46.69 816.42 36.46 821.65 36.46 821.65 46.69 817.43 46.69"/><polygon class="cls-27" points="781.44 51.52 783.99 77.47 781.44 77.47 781.44 51.52"/><polygon class="cls-28" points="786.16 25.22 791.28 77.47 783.99 77.47 781.44 51.52 781.44 25.22 786.16 25.22"/><polygon class="cls-29" points="793.45 25.22 798.57 77.47 791.28 77.47 786.16 25.22 793.45 25.22"/><polygon class="cls-30" points="800.74 25.22 805.86 77.47 798.57 77.47 793.45 25.22 800.74 25.22"/><polygon class="cls-31" points="808.03 25.22 813.15 77.47 805.86 77.47 800.74 25.22 808.03 25.22"/><polygon class="cls-32" points="815.32 25.22 820.44 77.47 813.15 77.47 808.03 25.22 815.32 25.22"/><polygon class="cls-33" points="822.61 25.22 827.73 77.47 820.44 77.47 815.32 25.22 822.61 25.22"/><polygon class="cls-34" points="829.9 25.22 833.5 61.89 833.5 77.47 827.73 77.47 822.61 25.22 829.9 25.22"/><polygon class="cls-35" points="833.5 61.89 829.9 25.22 833.5 25.22 833.5 61.89"/></g><g class="cls-134"><polygon class="cls-36" points="847.88 59.83 849.61 77.47 847.88 77.47 847.88 59.83"/><polygon class="cls-37" points="851.78 25.22 856.9 77.47 849.61 77.47 847.88 59.83 847.88 25.22 851.78 25.22"/><polygon class="cls-38" points="859.07 25.22 864.19 77.47 856.9 77.47 851.78 25.22 859.07 25.22"/><polygon class="cls-3" points="866.36 25.22 871.48 77.47 864.19 77.47 859.07 25.22 866.36 25.22"/><polygon class="cls-4" points="873.65 25.22 878.77 77.47 871.48 77.47 866.36 25.22 873.65 25.22"/><polygon class="cls-5" points="880.94 25.22 886.06 77.47 878.77 77.47 873.65 25.22 880.94 25.22"/><polygon class="cls-6" points="888.24 25.22 893.36 77.47 886.06 77.47 880.94 25.22 888.24 25.22"/><polygon class="cls-7" points="895.53 25.22 897.71 47.45 897.71 77.47 893.36 77.47 888.24 25.22 895.53 25.22"/><polygon class="cls-8" points="897.71 47.45 895.53 25.22 897.71 25.22 897.71 47.45"/></g><g class="cls-135"><polygon class="cls-9" points="913.2 56.76 915.19 77.07 913.2 77.07 913.2 56.76"/><polygon class="cls-10" points="915.46 5.37 922.48 77.07 915.19 77.07 913.2 56.76 913.2 5.37 915.46 5.37"/><polygon class="cls-11" points="922.75 5.37 929.77 77.07 922.48 77.07 915.46 5.37 922.75 5.37"/><polygon class="cls-12" points="930.04 5.37 937.06 77.07 929.77 77.07 922.75 5.37 930.04 5.37"/><polygon class="cls-13" points="937.33 5.37 944.36 77.07 937.06 77.07 930.04 5.37 937.33 5.37"/><polygon class="cls-14" points="944.62 5.37 951.65 77.07 944.36 77.07 937.33 5.37 944.62 5.37"/><polygon class="cls-15" points="951.91 5.37 957.76 65.05 957.76 77.07 951.65 77.07 944.62 5.37 951.91 5.37"/><polygon class="cls-16" points="957.76 65.05 951.91 5.37 957.76 5.37 957.76 65.05"/></g><g class="cls-136"><polygon class="cls-19" points="984.12 36.46 987.04 66.23 983.99 66.23 983.99 36.46 984.12 36.46"/><polygon class="cls-20" points="991.41 36.46 994.33 66.23 987.04 66.23 984.12 36.46 991.41 36.46"/><polygon class="cls-21" points="998.71 36.46 1001.62 66.23 994.33 66.23 991.41 36.46 998.71 36.46"/><polygon class="cls-22" points="1006 36.46 1008.91 66.23 1001.62 66.23 998.71 36.46 1006 36.46"/><polygon class="cls-112" points="1013.29 36.46 1013.76 41.3 1013.76 66.23 1008.91 66.23 1006 36.46 1013.29 36.46"/><polygon class="cls-113" points="1013.76 41.3 1013.29 36.46 1013.76 36.46 1013.76 41.3"/><polygon class="cls-17" points="972.75 69.19 973.56 77.47 972.75 77.47 972.75 69.19"/><polygon class="cls-18" points="975.73 25.22 980.85 77.47 973.56 77.47 972.75 69.19 972.75 25.22 975.73 25.22"/><polygon class="cls-19" points="983.02 25.22 988.14 77.47 980.85 77.47 975.73 25.22 983.02 25.22"/><polygon class="cls-20" points="990.31 25.22 995.43 77.47 988.14 77.47 983.02 25.22 990.31 25.22"/><polygon class="cls-21" points="997.61 25.22 1002.73 77.47 995.43 77.47 990.31 25.22 997.61 25.22"/><polygon class="cls-22" points="1004.9 25.22 1010.02 77.47 1002.73 77.47 997.61 25.22 1004.9 25.22"/><polygon class="cls-112" points="1012.19 25.22 1017.31 77.47 1010.02 77.47 1004.9 25.22 1012.19 25.22"/><polygon class="cls-113" points="1019.48 25.22 1024.6 77.47 1017.31 77.47 1012.19 25.22 1019.48 25.22"/><polygon class="cls-114" points="1024.6 77.47 1019.48 25.22 1025.01 25.22 1025.01 77.47 1024.6 77.47"/></g><g class="cls-137"><polygon class="cls-115" points="1035.84 43.38 1039.14 77.07 1035.84 77.07 1035.84 43.38"/><polygon class="cls-116" points="1041.38 25.52 1046.43 77.07 1039.14 77.07 1035.84 43.38 1035.84 25.52 1041.38 25.52"/><polygon class="cls-117" points="1048.67 25.52 1053.72 77.07 1046.43 77.07 1041.38 25.52 1048.67 25.52"/><polygon class="cls-118" points="1055.97 25.52 1061.02 77.07 1053.72 77.07 1048.67 25.52 1055.97 25.52"/><polygon class="cls-119" points="1063.26 25.52 1068.31 77.07 1061.02 77.07 1055.97 25.52 1063.26 25.52"/><polygon class="cls-120" points="1070.55 25.52 1075.6 77.07 1068.31 77.07 1063.26 25.52 1070.55 25.52"/><polygon class="cls-120" points="1075.6 77.07 1070.55 25.52 1076.15 25.52 1076.15 77.07 1075.6 77.07"/></g><g class="cls-138"><rect class="cls-120" x="1138.84" y="36.46" width="29.77" height="29.77"/><rect class="cls-120" x="1127.59" y="25.22" width="52.26" height="52.26"/></g><g class="cls-139"><rect class="cls-120" x="1188.76" y="5.17" width="40.81" height="72.11"/></g></g></g></svg>