<svg xmlns="http://www.w3.org/2000/svg" viewBox="0 0 1831.96 363.75"><title>Recurso 3</title><g id="Capa_2" data-name="Capa 2"><g id="Capa_2-2" data-name="Capa 2"><path d="M940.86,34.63h-17a.42.42,0,0,0-.48.48V54c0,3.49-1,6.35-4.66,6.35S914,57.59,914,54V4.92a4.4,4.4,0,0,1,4.49-4.6h22.41a4.4,4.4,0,0,1,4.34,4.29c0,3.41-2.25,5-6.19,5H923.83a.42.42,0,0,0-.48.48V24.86c0,.4.16.48.48.48h17A4.68,4.68,0,0,1,945.44,30,4.58,4.58,0,0,1,940.86,34.63Z"/><path d="M955.72,40a20.56,20.56,0,0,1,20.8-20.42c10.44,0,20.47,8.58,20.47,19a4.62,4.62,0,0,1-4.33,4.6H967.92c-1,0-1.84.08-2.73.16a11.83,11.83,0,0,0,11.33,8.82c4.49,0,7.14-1.83,9.87-3.41a4,4,0,0,1,2-.8,3.77,3.77,0,0,1,3.86,3.73c0,5.64-10.28,8.9-15.74,8.9A20.58,20.58,0,0,1,955.72,40Zm9.63-3.74a23,23,0,0,0,2.41.16h17.43c.88,0,1.6-.08,2.41-.08-.89-4.53-6.19-7.94-11.08-7.94S966.24,31.7,965.35,36.22Z"/><path d="M1028.48,28.6c-1.13,0-.89-.16-2.49-.16-4,0-7.87,2.46-7.87,8.34v16c0,3.89-.89,7.46-4.34,7.46-3.29,0-4.58-2.22-4.58-6.19V25.82c0-3.58,1.13-6,4.34-6,2.49,0,3.69,1.67,4.25,4.21,3-2.78,6-4.37,9.72-4.37s5.86,2.14,5.86,4.13C1033.37,26.85,1031.69,28.6,1028.48,28.6Z"/><path d="M1071.68,37a9,9,0,0,0-8.83-8.74c-4.58,0-8.84,2.54-8.84,8.34V53.3c0,3.74-1,6.91-4.33,6.91-3.78,0-4.34-2.62-4.58-7V26.61c0-3.57.8-6.91,4.5-6.91a4.2,4.2,0,0,1,3.85,2.62,15.74,15.74,0,0,1,9.32-2.78c10.28,0,17.75,6.83,17.75,16.92V53.22c0,4.05-.81,7-4.34,7-2.49,0-4.5-1.74-4.5-4.84Z"/><path d="M1129.58,20.42c2.49,0,3.86,2.38,3.86,6.51V53.22c0,3.1-.56,6.6-3.78,6.6-2.73,0-3.69-1-4.65-3.34A20.77,20.77,0,0,1,1091.92,40,20.69,20.69,0,0,1,1125,23.67C1125.65,22.16,1126.13,20.42,1129.58,20.42Zm-16.86,31.37A11.76,11.76,0,1,0,1100.83,40,11.62,11.62,0,0,0,1112.72,51.79Z"/><path d="M1172.63,37a9,9,0,0,0-8.83-8.74c-4.58,0-8.84,2.54-8.84,8.34V53.3c0,3.74-1,6.91-4.33,6.91-3.78,0-4.34-2.62-4.58-7V26.61c0-3.57.8-6.91,4.5-6.91a4.2,4.2,0,0,1,3.85,2.62,15.74,15.74,0,0,1,9.32-2.78c10.27,0,17.74,6.83,17.74,16.92V53.22c0,4.05-.8,7-4.33,7-2.49,0-4.5-1.74-4.5-4.84Z"/><path d="M1226,56.48A20.71,20.71,0,0,1,1193,40a20.61,20.61,0,0,1,20.72-20.5,20.06,20.06,0,0,1,11.88,3.89V8.9c0-3.18,2-4.93,4.42-4.93,2.81,0,4.5,2,4.5,4.93V55.37a4.56,4.56,0,0,1-4.5,4.84C1228.36,60.21,1226.68,59.26,1226,56.48Zm-12.29-4.69A11.76,11.76,0,1,0,1201.86,40,11.69,11.69,0,0,0,1213.75,51.79Z"/><path d="M1267.07,19.54A20.5,20.5,0,1,1,1246.27,40,20.52,20.52,0,0,1,1267.07,19.54Zm0,32.17A11.68,11.68,0,1,0,1255.19,40,11.66,11.66,0,0,0,1267.07,51.71Z"/><path d="M1371.15,8.26c1.29-4,3.46-8.26,8.11-8.26,5.71,0,7.63,4.45,7.63,10.49V55.76a4.77,4.77,0,0,1-4.9,4.45,4.35,4.35,0,0,1-4.41-4.29V21.84c0-2,0-3.89-.08-5.79a27.66,27.66,0,0,0-1.45,3.81c-2.33,6.75-13,36.62-13.09,36.7a4.91,4.91,0,0,1-9.47.08c-2-5.72-9.8-28.6-11.89-34.8-.72-2.06-1.45-4.13-2.25-6-.08,1.9-.16,3.81-.16,5.8V55.53a4.6,4.6,0,0,1-4.66,4.68,4.7,4.7,0,0,1-4.82-4.45V10.49c0-5.88,2.82-10.49,7.63-10.49a7.63,7.63,0,0,1,7,5.64l13.57,38.61c.08.23.24.31.32.31s.24-.08.32-.31Q1364.81,26.25,1371.15,8.26Z"/><path d="M1436.44,20.42c2.49,0,3.86,2.38,3.86,6.51V53.22c0,3.1-.56,6.6-3.78,6.6-2.73,0-3.69-1-4.65-3.34A20.77,20.77,0,0,1,1398.78,40a20.69,20.69,0,0,1,33.09-16.37C1432.51,22.16,1433,20.42,1436.44,20.42Zm-16.86,31.37A11.76,11.76,0,1,0,1407.69,40,11.62,11.62,0,0,0,1419.58,51.79Z"/><path d="M1472.18,28.6c-1.12,0-.88-.16-2.49-.16-4,0-7.87,2.46-7.87,8.34v16c0,3.89-.88,7.46-4.33,7.46-3.3,0-4.58-2.22-4.58-6.19V25.82c0-3.58,1.12-6,4.33-6,2.5,0,3.7,1.67,4.26,4.21,3-2.78,6-4.37,9.72-4.37s5.86,2.14,5.86,4.13C1477.08,26.85,1475.39,28.6,1472.18,28.6Z"/><path d="M1497.64,15.17c0-3.41,1.2-6.43,4.5-6.43s4.33,2.54,4.33,6.43V20.5h4.58c3.53,0,5.86,1,5.86,3.89,0,3-2.25,4.05-5.86,4.05h-4.58v25c0,3.66-1.2,6.75-4.33,6.75-3.62,0-4.5-2.54-4.5-6.75v-25H1493c-3.53,0-5.7-.8-5.7-3.73,0-3.18,2-4.21,5.7-4.21h4.66Z"/><path d="M1528.8,11.44a4.46,4.46,0,0,1,8.91,0,4.46,4.46,0,0,1-8.91,0Zm0,13.34c0-3.09,2-4.92,4.5-4.92,2.33,0,4.41,1.83,4.41,4.92V55.37c0,3.1-2.08,4.84-4.41,4.84-2.49,0-4.5-1.74-4.5-4.84Z"/><path d="M1576.9,37a9,9,0,0,0-8.83-8.74c-4.58,0-8.83,2.54-8.83,8.34V53.3c0,3.74-1,6.91-4.34,6.91-3.78,0-4.34-2.62-4.58-7V26.61c0-3.57.8-6.91,4.5-6.91a4.19,4.19,0,0,1,3.85,2.62,15.77,15.77,0,0,1,9.32-2.78c10.28,0,17.75,6.83,17.75,16.92V53.22c0,4.05-.81,7-4.34,7-2.49,0-4.5-1.74-4.5-4.84Z"/><path d="M1597.22,40A20.57,20.57,0,0,1,1618,19.54c10.44,0,20.48,8.58,20.48,19a4.63,4.63,0,0,1-4.34,4.6h-24.73c-1,0-1.85.08-2.73.16A11.82,11.82,0,0,0,1618,52.11c4.5,0,7.15-1.83,9.88-3.41a3.93,3.93,0,0,1,2-.8,3.76,3.76,0,0,1,3.85,3.73c0,5.64-10.28,8.9-15.74,8.9A20.59,20.59,0,0,1,1597.22,40Zm9.64-3.74a22.67,22.67,0,0,0,2.41.16h17.42c.89,0,1.61-.08,2.41-.08-.88-4.53-6.18-7.94-11.08-7.94S1607.74,31.7,1606.86,36.22Z"/><path d="M1650.79,8.9c0-3.18,2-4.93,4.5-4.93,2.33,0,4.33,1.75,4.33,4.93V55.37c0,3.1-2,4.84-4.33,4.84-2.49,0-4.5-1.74-4.5-4.84Z"/><path d="M1672.39,8.9c0-3.18,2-4.93,4.5-4.93,2.33,0,4.33,1.75,4.33,4.93V55.37c0,3.1-2,4.84-4.33,4.84-2.49,0-4.5-1.74-4.5-4.84Z"/><path d="M1693.75,11.44a4.46,4.46,0,0,1,8.92,0,4.46,4.46,0,0,1-8.92,0Zm0,13.34c0-3.09,2-4.92,4.5-4.92,2.33,0,4.42,1.83,4.42,4.92V55.37c0,3.1-2.09,4.84-4.42,4.84-2.49,0-4.5-1.74-4.5-4.84Z"/><path d="M1764.58,19.54A20.5,20.5,0,1,1,1743.78,40,20.52,20.52,0,0,1,1764.58,19.54Zm0,32.17A11.68,11.68,0,1,0,1752.7,40,11.66,11.66,0,0,0,1764.58,51.71Z"/><path d="M1801.29,16.05c0-7.63,5.21-12.24,11.72-12.24h.56c6.67,0,11.08,5,11.08,8.26a3.56,3.56,0,0,1-3.61,3.5c-3.29-.16-3.69-4-7-4.13h-.48c-2.09,0-3.37,1.35-3.37,5.08v4H1818c3.21,0,5.54,1,5.54,4.13,0,2.62-2.09,3.81-5.54,3.81h-7.79V53.86c0,3.81-1.37,6.51-4.42,6.51-3.53,0-4.49-2.62-4.49-6.51V28.44h-3c-3.37,0-6-1-6-4.05,0-2.86,2.33-3.89,6-3.89h3Z"/><path d="M273.08,242.28c-24.22,4.71-51.75,7.22-80.34,7.22s-56.12-2.51-80.35-7.22C46.06,252.34,0,274.46,0,300.13c0,35.14,86.29,63.62,192.74,63.62s192.73-28.48,192.73-63.62C385.47,274.46,339.41,252.34,273.08,242.28Z"/><path d="M101.81,223.85c9.45,2.31,19.74,4.28,30.69,5.83a432.33,432.33,0,0,0,60.24,4.07A432.54,432.54,0,0,0,253,229.68c11-1.55,21.23-3.52,30.68-5.83,37.54-9.19,61.87-23.92,61.87-40.53,0-21.57-41-40-98.65-47.18a333.79,333.79,0,0,1-54.14,4.24,333.92,333.92,0,0,1-54.15-4.24C80.94,143.36,40,161.75,40,183.32,40,199.93,64.28,214.66,101.81,223.85Z"/><path d="M127.44,121.77a261.86,261.86,0,0,0,28.71,4.67,337.68,337.68,0,0,0,36.59,1.94,337.36,337.36,0,0,0,36.58-1.94A261.46,261.46,0,0,0,258,121.77c30.86-6.91,51.14-18.59,51.14-31.83,0-21.23-52.13-38.44-116.43-38.44S76.3,68.71,76.3,89.94C76.3,103.18,96.58,114.86,127.44,121.77Z"/><path d="M602.84,192.43c8.27-10,15.32-21.82,15.32-42.43,0-35.16-27.27-61.82-64-61.82H516.75c-12.87,0-21.75,10.6-21.75,24.54V292.43c0,13,8.88,23,21.75,23h47.79c38.91,0,68.32-28.49,68.32-66.68C632.86,225.16,621.83,204.55,602.84,192.43Zm-72-66.68c0-1.51.61-2.42,2.15-2.42H552.9c22.36,0,30.64,16.67,30.64,29.09,0,12.13-8,29.4-29.72,30H532.68c-1.23,0-1.84-.61-1.84-2.13Zm33.09,154.56H533c-1.54,0-2.15-.6-2.15-2.12V216.37c0-.91.61-1.52,1.84-1.82h31.25c23.59,0,33.09,18.79,33.09,33S587.52,280.31,563.93,280.31Z"/><path d="M811.47,164.85c-13.17,0-15,6.67-17.46,12.42a79.23,79.23,0,0,0-46.88-15.76c-43.81,0-79.34,35.16-79.34,78.19,0,43.34,35.53,78.19,79.34,78.19A78.91,78.91,0,0,0,794,302.43c3.67,8.79,7.35,12.73,17.77,12.73,12.25,0,14.4-13.33,14.4-25.15V189.7C826.18,173.94,821,164.85,811.47,164.85ZM747.13,284.56c-25.42,0-45.34-19.7-45.34-44.86s19.92-44.85,45.34-44.85,45,19.7,45,44.85S772.56,284.56,747.13,284.56Z"/><path d="M897.25,102.12c-9.49,0-17.15,6.66-17.15,18.78V298.19c0,11.82,7.66,18.49,17.15,18.49,8.89,0,16.55-6.67,16.55-18.49V120.9C913.8,108.78,906.14,102.12,897.25,102.12Z"/><path d="M1101.29,164.85c-13.18,0-15,6.67-17.46,12.42A79.26,79.26,0,0,0,1037,161.51c-43.81,0-79.35,35.16-79.35,78.19,0,43.34,35.54,78.19,79.35,78.19a78.93,78.93,0,0,0,46.88-15.46c3.67,8.79,7.35,12.73,17.76,12.73,12.26,0,14.4-13.33,14.4-25.15V189.7C1116,173.94,1110.79,164.85,1101.29,164.85ZM1037,284.56c-25.43,0-45.34-19.7-45.34-44.86s19.91-44.85,45.34-44.85,45,19.7,45,44.85S1062.38,284.56,1037,284.56Z"/><path d="M1230.57,161.51c-12.86,0-25.73,3.34-35.53,10.61a16.05,16.05,0,0,0-14.71-10c-14.09,0-17.16,12.73-17.16,26.37V290c.92,16.67,3.07,26.67,17.47,26.67,12.86,0,16.54-12.12,16.54-26.37V226.67c0-22.12,16.24-31.82,33.7-31.82,18.07,0,33.7,15.46,33.7,33.34v70c0,11.82,7.66,18.49,17.16,18.49,13.48,0,16.54-11.21,16.54-26.67V226.06C1298.28,187.58,1269.79,161.51,1230.57,161.51Z"/><path d="M1476.28,252.73c-6.13,0-15.93,9.4-20.22,14.25-9.5,10.91-21.45,17.27-35.54,17.27-25.43,0-45.34-19.7-45.34-44.85,0-24.55,19.91-44.25,45.34-44.25,19,0,30.64,9.7,39.52,19.7,2.15,1.52,8.27,5.46,12.26,5.46,8.57,0,15.62-6.37,15.62-14.85a17.27,17.27,0,0,0-3.68-10.91c-14.09-18.19-37.68-33-64-33-44.11,0-79.34,34.86-79.34,77.89,0,43.64,35.23,78.49,79.34,78.49,30.64,0,57.29-17,70.16-43a19.5,19.5,0,0,0,1.23-6.06C1491.6,260.61,1485.47,252.73,1476.28,252.73Z"/><path d="M1613.22,161.51c-44.12,0-79.35,34.86-79.35,77.89,0,43.64,35.23,78.49,79.35,78.49,20.83,0,60-12.42,60-33.94a14.38,14.38,0,0,0-14.71-14.25c-2.75,0-5.21,1.52-7.66,3-10.41,6.06-20.52,13-37.68,13-20.83,0-38-14.55-43.2-33.64,3.37-.31,6.74-.61,10.42-.61h94.36c8.88-.3,16.54-8.18,16.54-17.58C1691.34,194.24,1653.05,161.51,1613.22,161.51Zm33.09,64.25h-66.48a88.48,88.48,0,0,1-9.19-.6c3.37-17.28,23.59-30,42.58-30,18.69,0,38.91,13,42.28,30.31C1652.44,225.46,1649.68,225.76,1646.31,225.76Z"/><path d="M1809.6,162.12c-14.09,0-25.74,6.06-37.07,16.67-2.15-9.7-6.74-16.06-16.24-16.06-12.25,0-16.54,9.09-16.54,22.73V293c0,15.15,4.9,23.64,17.46,23.64,13.17,0,16.54-13.64,16.54-28.49V227.28c0-22.43,14.71-31.82,30-31.82,6.13,0,5.21.6,9.5.6,12.25,0,18.68-6.67,18.68-18.18C1832,170.3,1823.39,162.12,1809.6,162.12Z"/></g></g></svg>