<svg xmlns="http://www.w3.org/2000/svg" viewBox="0 0 1851.5 419.96"><defs><style>.cls-1{fill:#2c56dd;}</style></defs><title>Recurso 2</title><g id="Capa_2" data-name="Capa 2"><g id="Capa_2-2" data-name="Capa 2"><path class="cls-1" d="M742.32,135.3a80.14,80.14,0,0,0-80.09,80.62c.15,44.22,36.11,80.22,80,80.14a80.38,80.38,0,1,0,.05-160.76Zm-.12,139.45A58.89,58.89,0,1,1,801.32,216,58.81,58.81,0,0,1,742.2,274.75Z"/><path class="cls-1" d="M1174.57,157c21.11.07,50.22.06,71.34,0a10.79,10.79,0,0,0,11-10.86c0-6.35-4.54-11.15-10.89-11.16-25.63,0-59.26,0-84.89,0a10.63,10.63,0,0,0-8.2,3.71c-2.21,2.47-2.81,5.42-2.8,8.61q0,33.81,0,67.6v67a25.47,25.47,0,0,0,.11,2.9,10.69,10.69,0,0,0,10.71,9.72c25.76,0,57.52.05,83.28,0a10.75,10.75,0,0,0,10.33-13.78c-1.32-4.95-5.4-7.92-11-7.94-20.92-.07-47.83-.11-68.75-.17-3.07,0-2.65.21-2.65-2.74,0-14.14,0-28.28-.05-42.42,0-1.77.46-2.25,2.24-2.24,14,.07,35,0,49,.05a10.79,10.79,0,0,0,9.82-5.48,11,11,0,0,0-9.6-16.64c-14-.07-35-.06-49,0-1.87,0-2.49-.33-2.47-2.38q.17-20.73,0-41.45C1172.07,157.31,1172.72,157,1174.57,157Z"/><path class="cls-1" d="M937,139.53c-9.85-4.3-20.22-5.52-30.86-4.58-16.55,1.46-30,8.61-39.62,22.27-8,11.36-11.08,24.27-11.11,38s0,27.5,0,41.25q0,23.24,0,46.47a24.51,24.51,0,0,0,.16,3.09,10.85,10.85,0,0,0,9.58,9.22,11.1,11.1,0,0,0,11.56-6.67,13.82,13.82,0,0,0,.72-5.33V197.09a53.23,53.23,0,0,1,3.16-19.37c6.35-16.56,22.53-23.63,39.37-20.41,14.67,2.8,23.12,12.4,27.11,26.37a52.46,52.46,0,0,1,1.68,14.56q0,42.6,0,85.21c0,3.06.56,5.89,2.71,8.23a11.28,11.28,0,0,0,12.41,2.9c4.35-1.62,6.91-5.39,6.91-10.38q0-43.95,0-87.92A70.27,70.27,0,0,0,968,176C963,159.36,953.28,146.63,937,139.53Z"/><path class="cls-1" d="M1396.19,176c-5-16.68-14.7-29.41-31-36.51-9.86-4.3-20.23-5.52-30.87-4.58-16.54,1.46-30,8.61-39.62,22.27-8,11.36-11.07,24.28-11.11,38s0,27.5,0,41.25q0,23.24,0,46.48a22.63,22.63,0,0,0,.17,3.08,10.82,10.82,0,0,0,9.58,9.22,11.08,11.08,0,0,0,11.55-6.67,13.82,13.82,0,0,0,.72-5.33V197.09a53.44,53.44,0,0,1,3.16-19.37c6.35-16.56,22.54-23.63,39.37-20.41,14.67,2.8,23.13,12.4,27.11,26.37a52.46,52.46,0,0,1,1.68,14.56q0,42.6,0,85.21c0,3,.53,5.76,2.58,8.09a11.28,11.28,0,0,0,12.54,3,10.41,10.41,0,0,0,6.91-10.19q0-44.53,0-89.08A67.18,67.18,0,0,0,1396.19,176Z"/><path class="cls-1" d="M587.63,156.9a60.88,60.88,0,0,1,33.73,16.75,10.58,10.58,0,0,0,15.12-.29c4.25-4.35,4.22-10.46-.31-14.84-21.29-20.58-46.59-28.19-75.42-21.7-43.66,9.84-70.77,55.62-59.38,98.94,10.06,38.25,43.71,60.33,75.31,60.3,12.61-.09,22.78-1.87,32.56-5.73a78.23,78.23,0,0,0,27-18,10.55,10.55,0,0,0,2-11.85,10.11,10.11,0,0,0-10.21-5.91c-3.22.17-5.69,1.72-8,3.88C604,273.58,584.92,278,564,272.5c-31.26-8.14-49.59-39.67-42.1-71.09A59.13,59.13,0,0,1,587.63,156.9Z"/><path class="cls-1" d="M1710.28,136.94c-4.73-3.54-10.82-2.43-14.8,2.71q-24.9,32.16-49.75,64.33c-1,1.24-1.38,1.34-2.39,0q-15.21-19.68-30.54-39.28c-6.62-8.51-13.21-17-19.88-25.5a10.36,10.36,0,0,0-15.52-1.36c-4.47,4.14-4.92,10.19-1,15.15q28,36,56.15,71.86a5.76,5.76,0,0,1,1.37,3.85c-.06,9.1,0,18.2,0,27.3,0,9.3,0,18.6,0,27.89a10.37,10.37,0,0,0,8,10.31,10.73,10.73,0,0,0,12.13-5,12.85,12.85,0,0,0,1.28-6.56q0-27,0-54a5.51,5.51,0,0,1,1.27-3.69q11-14.13,22-28.31c11.34-14.64,22.72-29.26,34-44C1716.57,147.32,1715.55,140.87,1710.28,136.94Z"/><path class="cls-1" d="M1486.36,195.91c-16.38-3.32-27.8-12.52-27.8-18.7,0-6.92,7.14-20,34.16-20,26.4,0,31.8,19.82,32.33,22.08l0-.09,19.56-4.17c-2.79-13.08-17.22-37.82-51.87-37.82-37.21,0-54.16,20.73-54.16,40,0,17.32,18,33.07,43.83,38.3,28.77,5.82,43.36,16.09,43.36,30.51,0,18.16-20.93,29.31-35.94,29.31-15.59,0-33.88-9.26-37.19-29.6a10,10,0,1,0-19.74,3.21c4.95,30.46,32.39,46.39,56.93,46.39,12.26,0,25.78-4.58,36.16-12.26,12.75-9.44,19.78-22.6,19.78-37C1545.75,228.64,1535.45,205.84,1486.36,195.91Z"/><path class="cls-1" d="M1792.11,195.91c-16.38-3.32-27.8-12.52-27.8-18.7,0-6.92,7.14-20,34.16-20,26.4,0,31.8,19.82,32.33,22.08l0-.09,19.56-4.17c-2.79-13.08-17.22-37.82-51.87-37.82-37.21,0-54.16,20.73-54.16,40,0,17.32,18,33.07,43.83,38.3,28.77,5.82,43.36,16.09,43.36,30.51,0,18.16-20.93,29.31-35.94,29.31-15.59,0-33.88-9.26-37.19-29.6a10,10,0,1,0-19.74,3.21c4.95,30.46,32.39,46.39,56.93,46.39,12.26,0,25.78-4.58,36.16-12.26,12.75-9.44,19.78-22.6,19.78-37C1851.5,228.64,1841.2,205.84,1792.11,195.91Z"/><path class="cls-1" d="M1057.55,195.91c-16.38-3.32-27.79-12.52-27.79-18.7,0-6.92,7.14-20,34.15-20,26.4,0,31.81,19.82,32.34,22.08l0-.09,19.56-4.17c-2.79-13.08-17.22-37.82-51.88-37.82-37.21,0-54.15,20.73-54.15,40,0,17.32,18,33.07,43.82,38.3,28.78,5.82,43.36,16.09,43.36,30.51,0,18.16-20.93,29.31-35.93,29.31-15.6,0-33.89-9.26-37.2-29.6a10,10,0,1,0-19.74,3.21c5,30.46,32.4,46.39,56.94,46.39,12.26,0,25.77-4.58,36.16-12.26,12.75-9.44,19.77-22.6,19.77-37C1116.94,228.64,1106.64,205.84,1057.55,195.91Z"/><path class="cls-1" d="M65.82,129.18l0-.05h0Z"/><path class="cls-1" d="M272.61,342.2a9.26,9.26,0,0,0-4.1-6.47c-2.31-1.68-4.92-1.64-7.71-1.32a18.32,18.32,0,0,0,4.85-6.82c.41-1,1-.58,1.55-.18,7.48,5.12,17.42-.24,18-8.35.1-1.31.49-1.54,1.8-.92a11.33,11.33,0,0,0,12.31-1.25c3.9-2.9,4.53-7,4.13-11.81,4.93,2.16,9.59,2.21,13.41-1.76s3.83-8.52,1.56-13.28c.94-.18,1.37.33,1.9.57a10.54,10.54,0,0,0,11.31-1.8,10.21,10.21,0,0,0,2.32-11c-2.12-5.52-8.6-7.77-14.11-4.93-.61.31-1.33,1.36-1.88.66a4.76,4.76,0,0,1-.72-2.93c0-1.12,1.19-.56,1.83-.74a14.24,14.24,0,0,0,7.61-4.51c.39-.47.64-1.45,1.47-1.12.57.23.35,1.06.4,1.65a9.48,9.48,0,0,0,7.77,8.51c4.51.57,9.13-2.13,10.47-6.12a9.71,9.71,0,0,0-4-11.24,9.18,9.18,0,0,0-11.72,1.66c-.39.41-.61,1.08-1.61,1.06A18.32,18.32,0,0,0,328,252c-.52-1.18.7-1.1,1.34-1.21,8.19-1.36,12.11-11.3,7-18.36-1.25-1.75-.95-2.17.88-2.81a10.52,10.52,0,0,0,6.91-12.37,13.32,13.32,0,0,0-4.94-7.78,2.79,2.79,0,0,1,1.54-1c4.62-1.91,6.73-5.44,6.53-10.94-.13-3.58-3.31-7.52-7.12-8.81-.55-.18-1.4-.08-1.39-.85s.94-.56,1.45-.72A9.64,9.64,0,0,0,347,176.4a9.94,9.94,0,0,0-19.61-.88,10,10,0,0,0,6.05,11.13c.48.2,1.06.18,1.28,1.06-4.52,1.23-7.75,4-8.61,8.72s1.05,8.57,5.3,11.27c-1.49.68-2.7,1.1-3.78,1.74-5.58,3.29-6.88,9.9-3.09,15.91.76,1.2.92,1.87-.68,2.14-5.91,1-10.61,9.21-7.57,15.77.49,1.07.85,1.62-.89,2.1-7.52,2-10.67,6.9-9.82,14.83.15,1.41-.56,1.22-1.39,1.31a13,13,0,0,0-11.91,12.07c-.08,1.47-.52,1.66-1.83,1.73-6.59.38-11.48,4-12.93,9.71-.44,1.71-1.07,2.1-2.75,1.88-5.88-.79-10.47,1.46-13.63,6.41-.85,1.34-1.35,1.26-2.57.55-6.11-3.56-13-1.89-16.67,4.1-.78,1.25-1.21,1.06-2.17.31-5.94-4.66-13-3.9-17.75,2-.87,1.08-1.31,1.25-2.43.31-5.33-4.48-10.9-4.69-16.46-.67-.89.65-1.33.89-2.07-.29-3.69-5.84-10.41-7.74-16.43-4.6-1.59.83-2,.41-2.45-1.09a9.78,9.78,0,0,0-4.32-5.59,14.1,14.1,0,0,0-11.71-1.45c-1.32.37-1.85.27-2.19-1.16-1.69-7-5.29-9.93-12.54-10.1-1.18,0-1.45-.36-1.24-1.44,1.15-6-3.63-13.06-10.59-13.85-1.29-.15-1.74-.58-1.26-1.89,2.33-6.34-1.67-12.21-6.7-14.52-1.58-.72-1.75-1.18-.94-2.71A11.75,11.75,0,0,0,127.47,226c-1.45-1.13-1-1.69,0-2.74a12.41,12.41,0,0,0,.36-17c-.76-.85-.93-1.31.08-2.12,5.8-4.7,7-9.39,4.21-16.29-.42-1-.11-1.43.77-1.85,6.51-3.14,8.78-7.18,7.9-14.23-.18-1.44.16-2.1,1.67-2.2,6.27-.42,12.12-5.76,11.45-12.6-.09-1,.31-1.36,1.47-1.29,7.24.46,11.47-2.5,13.81-9.6.36-1.11.61-1.58,2-1.13,6.51,2.11,11.8.07,15.32-5.89.75-1.25,1.2-1.24,2.38-.48,5.7,3.67,11.82,2.81,16.43-2.3.93-1,1.41-1,2.24,0,4.37,5.07,11.22,4.69,16,1.6,1.33-.86,1.83-.85,2.71.56,3.57,5.77,9.42,7.6,15.57,4.92,1.41-.61,1.8-.48,2.32,1a11.65,11.65,0,0,0,12.38,8.07c2.46-.33,3.36.65,3.62,2.75a9.79,9.79,0,0,0,3,5.91,79.06,79.06,0,0,1,5.89,6.53c9.25,11.37,14.8,24,12.74,39-.25,1.87-.19,4.07,1.86,4.91s3.41-.69,4.63-2.05A72.14,72.14,0,0,0,306,174.33c1.87-9.87,2.62-19.8.18-29.72a8.29,8.29,0,0,1-.3-2.9A20.64,20.64,0,0,0,299.41,124a3.52,3.52,0,0,1-1.17-3.37,18.13,18.13,0,0,0-9.37-18.32A4.87,4.87,0,0,1,286,98.19c-1.1-6.83-5.17-11.45-11.48-13.9-2.45-1-3.83-2-4.85-4.63-2.57-6.68-7.84-10.23-15.07-10.73-.89-.06-1.8.21-2.39-1.07-3.65-7.85-9.93-11.13-18.46-10.22a1.51,1.51,0,0,1-1.76-.93,14.18,14.18,0,0,0-4.38-5.08c-4.56-3.18-9.51-3.42-14.67-1.9A1.93,1.93,0,0,1,210.5,49c-5-6.45-12.53-8-19.67-4a1.81,1.81,0,0,1-2.67-.37c-5.93-6.34-14.31-6-19.6-.56-.83.85-1.35.74-2.24,0-7-5.49-15-4.12-19.82,3.4-.79,1.22-1.27,1.26-2.36.3a11.52,11.52,0,0,0-18.77,5.52c-.4,1.4-.56,1.83-1.91.62-3.3-3-7-4.15-11.4-2.22s-7.15,6.42-6.59,10.78c.67,5.15,4,8.59,9,9.23,5.15.65,9.49-1.8,11.3-6.61.66-1.76,1-1.88,2.41-.53a11.3,11.3,0,0,0,16.91-1c1.29-1.65,2-1.59,3.42-.28a12.26,12.26,0,0,0,16.29.44c1.37-1.18,1.93-.85,3,.29a12.7,12.7,0,0,0,9.39,4.22,15,15,0,0,0,6.9-1.73c.6-.3,1.21-.75,1.79,0,.36.47.93,1,.91,1.48,0,.91-1,.67-1.61.8a11.59,11.59,0,0,0-5.25,2.46c-1.28,1.11-2.12,1-3.49.12-6.11-4-14-3.34-18.73,1.83-1.42,1.55-2.31,1.38-3.91.55-6.77-3.53-14-1.68-18.2,4.62-.94,1.43-1.58,1.66-3.15.88a12.78,12.78,0,0,0-17.66,6.53c-.65,1.69-1.15,1.94-2.83,1.23-6.77-2.88-15.19,1.6-16.32,8.81-.38,2.42-1.13,2.3-3,1.67a11.26,11.26,0,0,0-14.88,11.16c.1,2.53.1,2.53-2.28,1.73C68.43,108,61.13,114.25,62,121.7c.37,3.07,2.14,5.15,3.76,7.43.42-.18.67.14,1,.32,3.73,2.2,7.63,2.5,11.35.26s5.68-5.72,5-10.28c-.21-1.41.42-1.29,1.42-.92,8,2.93,13.92-.24,16.18-8.64.19-.7.43-1.25,1.18-.81,1.88,1.11,4,1.25,6.43,1.77-1.88,2.2-3.49,4.28-3.82,6.86-.29,2.25-1.38,2.49-3.32,2.37-7.22-.43-13.87,6-13.57,13.22.06,1.52-.37,1.72-1.74,1.69-7.75-.18-14.12,7.67-12.21,15.14.41,1.6,0,1.81-1.35,1.93-8.23.71-13.26,8.55-10.15,16.15.9,2.21.26,2.33-1.6,2.63A11.14,11.14,0,0,0,53.1,188c1.49,2.23,1.49,2.23-1,2.72a10.68,10.68,0,0,0,2.55,21.12A10.58,10.58,0,0,0,65,202.15c.25-2.89-.85-5.28-2.29-7.61-.46-.74-.77-1.55.53-1.45,2.79.21,4.91-1.13,6.93-2.73.83-.66,1.18-.44,1.3.5a16.67,16.67,0,0,0,1.83,6c.42.77.11,1.27-.66,1.58-7.38,3-9.43,13.63-3.89,19.93.72.82.83,1.31-.27,2.07-7.45,5.19-7.72,13.76-.68,19.77.79.68,1.16,1.09,0,1.79-6.77,4.14-6.93,15.72,2,19.65,1.82.8,1.29,1.18.16,2.1a10.69,10.69,0,0,0,1,17.49,13.69,13.69,0,0,0,6.2,1.77c-5.78,5.82-6.89,10-4,14.64,2.17,3.47,7.35,5.54,11,4.41,4.54-1.4,7.76-5.83,7.41-10.13a9.81,9.81,0,0,0-10.68-9.46c.22-.42.27-.7.43-.79,3.53-2,5.69-4.84,6-9,.07-1,.55-.92,1.17-.46a11.52,11.52,0,0,0,3.67,2.18c1.5.42,1.39,1,.68,2.22a11.57,11.57,0,0,0,4.65,16.55c1.68.92,3.55,1.05,5.49,1.41a5.59,5.59,0,0,1-.31.91,11.35,11.35,0,0,0,11.22,17.12c2.12-.25,1,.94.7,1.74a10.44,10.44,0,0,0,1.6,10.66,9.77,9.77,0,0,0,10,3.73c1.39-.27,2.76-.68,4.27-1.06-2.43,6.64-1.53,11.53,2.48,14.23a10.18,10.18,0,0,0,12.54-.63c4-3.59,4.31-8,1.1-14.09.35-.53.95-.32,1.42-.48,1.78-.61,2.67-.28,2.85,1.91a10.2,10.2,0,0,0,2.93,6c.78.84,2.5,1.48,2.19,2.51s-2.13.63-3.26.95a9,9,0,0,0-6.31,11.66c1.73,5.56,7,7.68,11.05,6.34,6-2,8.63-7.29,6.64-12.49-.76-2-2.41-3.16-3.83-4.87,2.81-.34,5.36-.38,7.7-1.51,1-.46,1.37.11,1.54,1a11.69,11.69,0,0,0,18.25,7.53c2.22-1.52,2.2-1.51,3.09.92a10,10,0,0,0,2.63,3.88c4.85,4.5,11.77,4,16.45-1.1.58-.64,1.18-2.28,2,0,1.67,4.8,5.14,7.1,10.32,7a10.44,10.44,0,0,0,9.56-7.35c.16-.49.16-1,.77-1.24,2.52,6.48,5.81,8.83,11.42,8.17a9.59,9.59,0,0,0,8.76-8.34c.79-5.58-1.63-8.61-9.69-11.93a5.66,5.66,0,0,0,.86-1c.93-2,1.9-2.15,3.66-.68a9.91,9.91,0,0,0,7.63,2.09c.53-.06,1.2-.42,1.63.28-3.42,4.61-3.72,9.28-.82,13a9,9,0,0,0,10.73,2.87A9.38,9.38,0,0,0,272.61,342.2Z"/><path class="cls-1" d="M38.75,223.3a10.16,10.16,0,0,0,11.55,8c4.92-.81,8.46-6.11,7.58-11.34-.91-5.46-5.76-8.8-11.43-7.86S37.74,217.66,38.75,223.3Z"/><path class="cls-1" d="M65.81,129.17l0,0h0Z"/><path class="cls-1" d="M54.88,126.26a9.79,9.79,0,0,0-6.45,11.62,10,10,0,0,0,12.21,6.9c4.62-1.15,7.53-6.26,6.6-11.32-.29-1.53-1.36-2.75-1.47-4.31-.81-.52-1.65-1-2.42-1.56A8.55,8.55,0,0,0,54.88,126.26Z"/><path class="cls-1" d="M333.32,147.92c-5.91,1-9,5.23-8,11,.92,5.34,5.35,8.27,11,7.28a9.4,9.4,0,0,0,7.38-10.91A8.93,8.93,0,0,0,333.32,147.92Z"/><path class="cls-1" d="M98.56,78.48c4.7-.68,8.11-6.07,7.3-10.88A8.94,8.94,0,0,0,95.2,60.05c-5.28,1-9,6-7.84,11C88.63,76.5,92.9,79.3,98.56,78.48Z"/><path class="cls-1" d="M98.17,311.2a9.37,9.37,0,0,0-10.92-7.91,9.14,9.14,0,0,0-7.34,10.65c.94,5.53,5.14,8.67,10.37,7.76C96,320.71,99.1,316.62,98.17,311.2Z"/><path class="cls-1" d="M47.07,250.89a8.43,8.43,0,0,0,7.26-9.84c-.81-5.17-5.15-8.6-9.95-7.85-5.62.87-8.81,4.83-8,9.93A9,9,0,0,0,47.07,250.89Z"/><path class="cls-1" d="M36,153.23a8.71,8.71,0,0,0,10.49,7.41,8.69,8.69,0,0,0,7.19-10c-.93-5.22-5.24-8.44-10.17-7.58C38.37,143.91,35.12,148.33,36,153.23Z"/><path class="cls-1" d="M346.69,239.13c-5.08.88-7.6,4.56-6.71,9.78s5,8.21,10,7.35a8.69,8.69,0,0,0,7.38-9.88A8.85,8.85,0,0,0,346.69,239.13Z"/><path class="cls-1" d="M181.69,356.64a9.12,9.12,0,0,0-10.57-7.46,8.34,8.34,0,0,0-6.74,9.81c.88,5.19,5.3,8.54,10.09,7.65A8.72,8.72,0,0,0,181.69,356.64Z"/><path class="cls-1" d="M327.64,128.39A8.6,8.6,0,0,0,321,138.57c.82,4.63,5.7,8.09,10.16,7.21,4.69-.93,8.13-5.7,7.3-10.12A9.25,9.25,0,0,0,327.64,128.39Z"/><path class="cls-1" d="M292.42,337.87c-.75-4.23-4.33-8.48-10.55-7.35a8.3,8.3,0,0,0-7,9.43c.76,5.05,5.32,8.6,10.08,7.85S293.23,342.45,292.42,337.87Z"/><path class="cls-1" d="M107.81,329.59a8.65,8.65,0,0,0-10-7.22,8.34,8.34,0,0,0-7.27,9.86,8.74,8.74,0,1,0,17.28-2.64Z"/><path class="cls-1" d="M46.16,271.64a8.2,8.2,0,0,0,7.11-9.5A8.54,8.54,0,0,0,43.07,255a8.09,8.09,0,0,0-6.54,9.25A8.61,8.61,0,0,0,46.16,271.64Z"/><path class="cls-1" d="M311.36,330.24a8.35,8.35,0,0,0-9.85-7,8.45,8.45,0,0,0,2.89,16.64A8.29,8.29,0,0,0,311.36,330.24Z"/><path class="cls-1" d="M365,227.26a8.39,8.39,0,0,0-10-6.87,8.53,8.53,0,0,0-6.66,9.73A8.15,8.15,0,0,0,358,237,8.4,8.4,0,0,0,365,227.26Z"/><path class="cls-1" d="M313.47,119.33a8.45,8.45,0,1,0,16.58-3.26,8.17,8.17,0,0,0-9.48-6.64A8.72,8.72,0,0,0,313.47,119.33Z"/><path class="cls-1" d="M200.06,365.08c-.82-4.8-4.73-7.74-9.32-7a8.85,8.85,0,0,0-7.27,9.78,8.5,8.5,0,0,0,9.71,6.93A8.32,8.32,0,0,0,200.06,365.08Z"/><path class="cls-1" d="M80.09,87.85A7.81,7.81,0,0,0,87,78.5c-.76-5-4.57-7.88-9.38-7.12s-7.83,4.5-7.15,9.19C71.19,85.83,74.92,88.64,80.09,87.85Z"/><path class="cls-1" d="M35.25,177.65a7.59,7.59,0,0,0,6.44-9.14c-.82-4.64-4.56-7.39-9-6.63-4.69.78-7.35,4.6-6.5,9.33S30.68,178.47,35.25,177.65Z"/><path class="cls-1" d="M119.37,346.42a8,8,0,1,0-6.39,9.16A8.09,8.09,0,0,0,119.37,346.42Z"/><path class="cls-1" d="M304.35,101.19a7.14,7.14,0,0,0,8.54,6c4.67-.85,7.46-5.24,6.45-10.17-.76-3.75-4.9-6.24-9.06-5.44S303.48,96.62,304.35,101.19Z"/><path class="cls-1" d="M328.78,319.65a7.42,7.42,0,0,0-8.84-6,7.85,7.85,0,0,0-6.29,9.34c.8,4.3,4.67,6.73,9.32,5.86C327.1,328.09,329.59,324.14,328.78,319.65Z"/><path class="cls-1" d="M370.08,206.69c-.62-3.9-4.57-6.5-8.79-5.78-4.66.81-7.2,4.45-6.39,9.16.75,4.36,4.3,6.65,9.06,5.84C368.35,215.16,370.83,211.43,370.08,206.69Z"/><path class="cls-1" d="M219.94,371.1c-.74-4.51-4.56-7.15-9.21-6.36s-6.67,3.91-5.84,8.68,4.57,7.3,9.19,6.43A7.41,7.41,0,0,0,219.94,371.1Z"/><path class="cls-1" d="M48.55,291.62a7.52,7.52,0,0,0,6.05-8.86,7.36,7.36,0,0,0-8.88-6.23,7.58,7.58,0,0,0-6.37,8.86A7.68,7.68,0,0,0,48.55,291.62Z"/><path class="cls-1" d="M124.7,355.29a7.43,7.43,0,1,0,2.5,14.64,7.61,7.61,0,0,0,6.18-8.6A7.52,7.52,0,0,0,124.7,355.29Z"/><path class="cls-1" d="M63.24,98.62a6.69,6.69,0,0,0,5.54-8.07c-.78-4.19-3.91-6.65-8.39-5.8-4.31.82-6.51,4-5.61,8.21A6.89,6.89,0,0,0,63.24,98.62Z"/><path class="cls-1" d="M32.58,187.4a6.76,6.76,0,0,0-8.23-5.71,6.94,6.94,0,0,0-5.79,8.25,7.13,7.13,0,0,0,8.37,5.71C31,194.94,33.31,191.59,32.58,187.4Z"/><path class="cls-1" d="M364.49,180.66a7.13,7.13,0,1,0,2.44,14,6.82,6.82,0,0,0,5.78-8.18A7,7,0,0,0,364.49,180.66Z"/><path class="cls-1" d="M239.69,374a7.12,7.12,0,0,0-8.28-5.76,6.9,6.9,0,0,0-5.72,8.23c.7,4.12,4,6.38,8.16,5.67A6.86,6.86,0,0,0,239.69,374Z"/><path class="cls-1" d="M336.79,302.28c-4.13.71-6.4,4-5.68,8.16.68,4,4.07,6.33,8.26,5.68a7,7,0,0,0,5.73-8.27C344.4,303.87,341,301.57,336.79,302.28Z"/><path class="cls-1" d="M300.21,89.35c4.29-.61,6.61-3.74,6-8.15a6.91,6.91,0,0,0-7.89-6,7.11,7.11,0,0,0-6,8C293,87.52,296.06,89.94,300.21,89.35Z"/><path class="cls-1" d="M59.17,303.15c-.7-4.12-4-6.36-8.24-5.63-3.94.68-6,3.77-5.39,8a7.39,7.39,0,0,0,8.22,6C57.33,310.89,59.84,307,59.17,303.15Z"/><path class="cls-1" d="M148.58,374.45a6.34,6.34,0,0,0-7.24-5.45c-4,.68-6.52,4-5.91,7.66a6.61,6.61,0,0,0,7.86,5.54A6.34,6.34,0,0,0,148.58,374.45Z"/><path class="cls-1" d="M286.16,73.87c3.72-.68,5.75-3.77,5-7.68s-3.58-5.81-8-5c-3.39.6-5.38,3.73-4.73,7.43C279.14,72.48,282.23,74.59,286.16,73.87Z"/><path class="cls-1" d="M364.7,160.37a6.52,6.52,0,0,0-5.12,7.77,7.09,7.09,0,0,0,7.84,5.25c3.22-.58,5.82-4.56,5.16-7.91A6.89,6.89,0,0,0,364.7,160.37Z"/><path class="cls-1" d="M351.73,288.34a6.46,6.46,0,0,0-5.2,7.63c.66,3.54,4,5.7,7.8,5.06,3.58-.6,5.6-3.7,4.92-7.53S355.71,287.65,351.73,288.34Z"/><path class="cls-1" d="M260,374.23a6.31,6.31,0,0,0-7.34-5c-3.87.65-6,3.47-5.44,7.09.67,4,3.83,6.37,7.65,5.68A6.64,6.64,0,0,0,260,374.23Z"/><path class="cls-1" d="M20.78,215.44a6.4,6.4,0,0,0,5.71-7.06,6.76,6.76,0,0,0-7.7-5.9,6.51,6.51,0,0,0-5.15,7.34A6.37,6.37,0,0,0,20.78,215.44Z"/><path class="cls-1" d="M66.06,322.37a6.49,6.49,0,0,0-7.43-5,6.12,6.12,0,0,0-4.76,7.26,6,6,0,0,0,7.3,4.89A6.19,6.19,0,0,0,66.06,322.37Z"/><path class="cls-1" d="M47.46,112.12c3-.44,5.55-4,5.07-7.21a6.21,6.21,0,0,0-7.14-5,5.9,5.9,0,0,0-5.1,7A6.73,6.73,0,0,0,47.46,112.12Z"/><path class="cls-1" d="M166.06,385.51a6.08,6.08,0,0,0-6.92-4.95A6,6,0,1,0,161,392.51,6,6,0,0,0,166.06,385.51Z"/><path class="cls-1" d="M365,272.49a5.69,5.69,0,0,0-4.93,7A6,6,0,1,0,372,277.62,6.09,6.09,0,0,0,365,272.49Z"/><path class="cls-1" d="M280.25,372.7c-.66-3.71-3.4-5.8-6.79-5.2s-5.94,3.85-5.38,6.87a6.27,6.27,0,0,0,7.1,5.05C278.65,378.79,280.82,375.92,280.25,372.7Z"/><path class="cls-1" d="M362.83,140.16a6.15,6.15,0,0,0,1.65,12.18,6.13,6.13,0,0,0,5.08-7.07C368.94,141.78,366.07,139.6,362.83,140.16Z"/><path class="cls-1" d="M262.77,55.43a5.77,5.77,0,0,0,6.84,5,6,6,0,1,0-6.84-5Z"/><path class="cls-1" d="M69.29,336.22a5.62,5.62,0,0,0,1.46,11.14c3-.47,5.35-3.35,5-6C75.32,338.38,72.08,335.81,69.29,336.22Z"/><path class="cls-1" d="M15.38,224.24a5.63,5.63,0,1,0,6.89,4.68A6,6,0,0,0,15.38,224.24Z"/><path class="cls-1" d="M178.49,389.57a5.25,5.25,0,0,0-4.56,6.13c.45,3.22,2.93,5.3,5.86,4.89a5.82,5.82,0,0,0,5.12-6.09A5.68,5.68,0,0,0,178.49,389.57Z"/><path class="cls-1" d="M375.84,255.16a5.7,5.7,0,0,0-4.54,6.42,5.26,5.26,0,0,0,6.39,4.2c3.22-.53,5-3,4.41-6.38A5.13,5.13,0,0,0,375.84,255.16Z"/><path class="cls-1" d="M251.53,49.15c3.13-.44,5-3.08,4.42-6.41a5.12,5.12,0,0,0-6.13-4.47,5.55,5.55,0,0,0-4.5,6.43A5.25,5.25,0,0,0,251.53,49.15Z"/><path class="cls-1" d="M353.31,127.12c.56,3.14,3,4.75,6.32,4.16s4.93-3.13,4.28-6.46a5.37,5.37,0,0,0-6.42-4.26A5.74,5.74,0,0,0,353.31,127.12Z"/><path class="cls-1" d="M293.6,363.1a5.38,5.38,0,0,0-4.49,6.22c.46,3.2,2.85,4.9,6.12,4.38s5.08-2.81,4.59-6.22A5.15,5.15,0,0,0,293.6,363.1Z"/><path class="cls-1" d="M33.19,126.78c3.23-.54,4.87-2.79,4.29-5.89s-2.82-4.78-5.7-4.25a5.07,5.07,0,0,0-4.36,6.15A4.85,4.85,0,0,0,33.19,126.78Z"/><path class="cls-1" d="M390.15,240.09a4.89,4.89,0,0,0-5.58-3.77,5.05,5.05,0,0,0-4.17,6c.43,2.65,2.76,4.09,5.81,3.6A4.69,4.69,0,0,0,390.15,240.09Z"/><path class="cls-1" d="M351.75,111.27c2.86-.36,4.34-2.53,3.92-5.75a4.17,4.17,0,0,0-4.93-3.76,5.13,5.13,0,0,0-4.67,5.79C346.38,110.18,348.64,111.66,351.75,111.27Z"/><path class="cls-1" d="M232.58,39.88a4.59,4.59,0,0,0,3.95-5.14,5.18,5.18,0,0,0-5.65-4.36c-2.81.42-4.44,2.81-3.93,5.79C227.42,39,229.52,40.37,232.58,39.88Z"/><path class="cls-1" d="M81,354.21a4.55,4.55,0,0,0-3.57,5.56c.5,2.92,2.65,4.51,5.42,4a4.43,4.43,0,0,0,3.83-5.54A4.63,4.63,0,0,0,81,354.21Z"/><path class="cls-1" d="M198.43,395.81a5.28,5.28,0,0,0-4.13,5.57,4.58,4.58,0,0,0,5.71,3.89,4.47,4.47,0,0,0,3.86-5.32A4.84,4.84,0,0,0,198.43,395.81Z"/><path class="cls-1" d="M313.22,356c-2.89.52-4.44,2.67-3.93,5.44.54,3,2.41,4.34,5.2,3.86,3-.52,4.75-2.76,4.32-5.49A4.59,4.59,0,0,0,313.22,356Z"/><path class="cls-1" d="M16.62,255.28a4.46,4.46,0,0,0,3.83-5.54A4.31,4.31,0,0,0,15.11,246a4.51,4.51,0,0,0-3.87,5.54A4.39,4.39,0,0,0,16.62,255.28Z"/><path class="cls-1" d="M212.38,33.57a4,4,0,0,0,3.46-4.87A4.12,4.12,0,0,0,211,25.1c-2.49.37-3.83,2.31-3.41,4.93A3.89,3.89,0,0,0,212.38,33.57Z"/><path class="cls-1" d="M219.64,399.78c-2.71.41-4,2.08-3.69,4.66a4,4,0,0,0,5,3.67,3.86,3.86,0,0,0,3.39-4.71C223.9,400.68,222.24,399.39,219.64,399.78Z"/><path class="cls-1" d="M341.46,92.26a3.84,3.84,0,0,0,3.42-4.85A4,4,0,0,0,340,83.94a3.94,3.94,0,0,0-3.42,4.9A4,4,0,0,0,341.46,92.26Z"/><path class="cls-1" d="M390.22,217a3.9,3.9,0,0,0-3.44,4.85c.47,2.65,2.18,3.84,4.83,3.38s3.94-2.2,3.5-4.78A4,4,0,0,0,390.22,217Z"/><path class="cls-1" d="M331.42,346.44c-2.55.47-3.77,2.31-3.25,4.92a4.14,4.14,0,0,0,4.73,3.5,4.41,4.41,0,0,0,3.59-4.95A4.08,4.08,0,0,0,331.42,346.44Z"/><path class="cls-1" d="M95.54,370.13a4,4,0,0,0-3.15,4.94,3.83,3.83,0,0,0,4.68,2.79,4.14,4.14,0,0,0,3-4.87C99.78,371.26,97.44,369.79,95.54,370.13Z"/><path class="cls-1" d="M20.93,142.18c2.19-.34,3.4-2.24,3-4.68-.4-2.21-1.94-3.24-4.26-2.83a4,4,0,0,0-3.47,4.46A4.05,4.05,0,0,0,20.93,142.18Z"/><path class="cls-1" d="M20.8,270.47a3.86,3.86,0,0,0-4.53-3,4,4,0,0,0-3.17,4.45A3.7,3.7,0,0,0,17.51,275,3.82,3.82,0,0,0,20.8,270.47Z"/><path class="cls-1" d="M348.24,334.41c-1.76.26-3.13,2.4-2.86,4.48a4,4,0,0,0,4.47,3.16,3.55,3.55,0,0,0,2.86-4.34A3.7,3.7,0,0,0,348.24,334.41Z"/><path class="cls-1" d="M329.36,75a3.78,3.78,0,0,0,2.85-4.42,3.44,3.44,0,0,0-4.27-2.88,3.35,3.35,0,0,0-3,4.17A3.73,3.73,0,0,0,329.36,75Z"/><path class="cls-1" d="M393.55,196.72a4,4,0,0,0-3,4.41,3.69,3.69,0,0,0,4.36,2.93,3.44,3.44,0,0,0,2.92-4.27A3.87,3.87,0,0,0,393.55,196.72Z"/><path class="cls-1" d="M191.72,30a3.64,3.64,0,0,0,2.87-4.37,3.68,3.68,0,0,0-7.23,1.41A3.84,3.84,0,0,0,191.72,30Z"/><path class="cls-1" d="M240.08,401.36a3.42,3.42,0,0,0-2.88,4.29,3.1,3.1,0,0,0,4,2.58c2.24-.39,3.24-1.76,2.91-3.93A3.3,3.3,0,0,0,240.08,401.36Z"/><path class="cls-1" d="M111.39,384.78a3.28,3.28,0,0,0-2.75,3.9,3.37,3.37,0,0,0,3.87,2.57,3.28,3.28,0,0,0-1.12-6.47Z"/><path class="cls-1" d="M170.23,28.87a3.48,3.48,0,0,0,2.74-4c-.28-1.86-1.34-2.77-3.24-2.54s-3.44,2.18-3.11,3.73S168.84,29.08,170.23,28.87Z"/><path class="cls-1" d="M364,321.08a3.12,3.12,0,0,0-2.44,3.49,3.17,3.17,0,0,0,3.5,3c1.69-.26,3.16-1.93,3-3.39A3.82,3.82,0,0,0,364,321.08Z"/><path class="cls-1" d="M315.31,58.8c1.68-.35,2.76-1.25,2.47-3.14a3.35,3.35,0,0,0-3.91-2.85c-1.55.32-2.82,1.91-2.59,3.22A3.49,3.49,0,0,0,315.31,58.8Z"/><path class="cls-1" d="M394.47,176.79c-1.82.37-2.48,1.52-2.05,3.79.28,1.62,1.56,2.54,3.57,2.14,1.73-.34,2.67-1.37,2.45-3.17A3.32,3.32,0,0,0,394.47,176.79Z"/><path class="cls-1" d="M12.88,156.29A2.71,2.71,0,0,0,9.46,154,2.91,2.91,0,0,0,7,157.34a2.88,2.88,0,0,0,3.53,2.28A2.62,2.62,0,0,0,12.88,156.29Z"/><path class="cls-1" d="M261.14,400.8a2.75,2.75,0,0,0-2.44,3.41,3,3,0,0,0,5.83-1A2.68,2.68,0,0,0,261.14,400.8Z"/><path class="cls-1" d="M19.82,288.88a3.08,3.08,0,0,0-2.26,3.59,2.62,2.62,0,0,0,3.24,2.29,2.73,2.73,0,0,0,2.39-3.36A2.93,2.93,0,0,0,19.82,288.88Z"/><path class="cls-1" d="M377.73,305.92a2.73,2.73,0,0,0-2.24,3.1,2.46,2.46,0,0,0,3.12,1.91,2.24,2.24,0,0,0,2.18-2.71C380.62,306.62,379.31,305.87,377.73,305.92Z"/><path class="cls-1" d="M299.09,44.89a2.45,2.45,0,0,0,2.07-3.14,2.39,2.39,0,0,0-2.88-2.12,2.66,2.66,0,0,0,.81,5.26Z"/><path class="cls-1" d="M128.51,397.59c-1.5.25-2.2,1-2,2.62a2.56,2.56,0,1,0,2-2.62Z"/><path class="cls-1" d="M391.39,159.16a2.36,2.36,0,0,0,2.87,2.18c1.46-.27,2.25-1.41,1.83-3.71-.18-1-1.28-1.59-2.82-1.3A2.24,2.24,0,0,0,391.39,159.16Z"/><path class="cls-1" d="M148.84,29.12c2.37-.44,2.91-1.68,2.64-3.11a2.15,2.15,0,0,0-2.85-1.78c-1.49.35-2.46,1.29-2.14,2.89A2.16,2.16,0,0,0,148.84,29.12Z"/><path class="cls-1" d="M281.5,398a2,2,0,0,0-1.57,2.56,2.3,2.3,0,0,0,2.94,1.89c1-.45,2.07-1,1.68-2.56A2.37,2.37,0,0,0,281.5,398Z"/><path class="cls-1" d="M25.69,309.81a2,2,0,0,0-1.77,2.65c.26,1.46,1.34,1.88,2.71,1.6,1.69-.22,1.82-1.52,1.63-2.7S27,309.58,25.69,309.81Z"/><path class="cls-1" d="M129.09,32.05a1.85,1.85,0,0,0,1.58-2.34,2,2,0,0,0-2.53-1.5,1.81,1.81,0,0,0-1.44,2.38A1.87,1.87,0,0,0,129.09,32.05Z"/><path class="cls-1" d="M390.1,289.56a1.93,1.93,0,0,0-1.6,2.33c.15,1.29,1.23,1.55,2.36,1.64a1.93,1.93,0,0,0,1.44-2.21A1.87,1.87,0,0,0,390.1,289.56Z"/><path class="cls-1" d="M146.79,408.45c-.85.46-1.61,1-1.4,2.2s.79,2,2.06,1.89a1.86,1.86,0,0,0,1.73-2C149.08,409.23,148,408.72,146.79,408.45Z"/><path class="cls-1" d="M282.14,31.9a1.89,1.89,0,0,0,1.47-2.41c-.2-1.07-1.08-1.56-2.66-1.3a1.76,1.76,0,0,0-1.21,2.19A1.94,1.94,0,0,0,282.14,31.9Z"/><path class="cls-1" d="M390.71,140.05a1.88,1.88,0,0,0,1.63-2.3c-.09-1.12-1-1.61-2.13-1.5a1.89,1.89,0,0,0-1.81,2.24A2.09,2.09,0,0,0,390.71,140.05Z"/><path class="cls-1" d="M1.27,174.21A1.67,1.67,0,0,0,.1,176.46a1.72,1.72,0,0,0,2.33,1.41,1.7,1.7,0,0,0,1.31-2.21A2.09,2.09,0,0,0,1.27,174.21Z"/><path class="cls-1" d="M302,392.87a1.6,1.6,0,0,0-1.37,2c.11,1.1,1,1.41,2,1.3C303.85,396,304,395,304.1,394A1.7,1.7,0,0,0,302,392.87Z"/><path class="cls-1" d="M264.24,21.15a1.32,1.32,0,0,0,1-1.71,1.77,1.77,0,0,0-1.94-1.22c-.84.23-.82.93-.72,1.6C262.74,20.72,263.24,21.42,264.24,21.15Z"/><path class="cls-1" d="M384.87,119.57c.93-.19,1.5-.69,1.3-1.57a1.57,1.57,0,0,0-1.85-1.25c-.83.11-1,.79-.88,1.54S384,119.65,384.87,119.57Z"/><path class="cls-1" d="M400.64,272.05c-.71.11-1.28.47-1.15,1.33s.67,1.53,1.63,1.43a1.28,1.28,0,0,0,1.26-1.61A1.54,1.54,0,0,0,400.64,272.05Z"/><path class="cls-1" d="M108.76,37.29c.5-.31,1.39-.53,1.21-1.47a1.43,1.43,0,0,0-1.75-1.3,1.15,1.15,0,0,0-1,1.45C107.31,36.77,107.61,37.42,108.76,37.29Z"/><path class="cls-1" d="M33.66,330a1.12,1.12,0,0,0-1,1.49,1.14,1.14,0,0,0,1.52.95,1.27,1.27,0,0,0,1.2-1.4C35,330.36,34.57,329.8,33.66,330Z"/><path class="cls-1" d="M166.32,417.81a1,1,0,0,0-.94,1.26c.11.88.78.93,1.49.87a.8.8,0,0,0,.82-1A1.13,1.13,0,0,0,166.32,417.81Z"/><path class="cls-1" d="M321.69,385.77a.92.92,0,0,0-.8,1.12,1,1,0,0,0,1.14.87c.5-.11,1-.43.86-1S322.47,385.64,321.69,385.77Z"/><path class="cls-1" d="M408.65,253.33c-.43.22-1.07.42-1,1.06a.92.92,0,0,0,1.2.71c.65-.12.76-.61.69-1.18S409.17,253.06,408.65,253.33Z"/><path class="cls-1" d="M986,70.65c5.45,0,8.28-3.16,8.28-8.83V6.21a6.25,6.25,0,0,1,6.44-6.1,6,6,0,0,1,6.32,6.1V59c0,13.08-7.63,24.21-21.37,24.21a21.39,21.39,0,0,1-19.08-12,7.78,7.78,0,0,1-.65-3,6,6,0,0,1,6.1-6,6.26,6.26,0,0,1,5.89,3.17C979.19,67.81,981.91,70.65,986,70.65Z"/><path class="cls-1" d="M1051.91,26.93a28.13,28.13,0,1,1-28.24,28A28,28,0,0,1,1051.91,26.93Zm0,44.15A16,16,0,1,0,1035.77,55,15.9,15.9,0,0,0,1051.91,71.08Z"/><path class="cls-1" d="M1113.07,83.19c-10.36,0-17.66-5.46-17.66-10.91a5.13,5.13,0,0,1,5.45-5.12c4.79,0,6.65,4.9,12.64,4.9,4.15,0,6-2.18,6-4.36s-1.52-4.36-7.19-7.3l-5.13-2.62c-8.39-4.25-11.23-9.16-11.23-15.59,0-7.74,7-15.15,18.21-15.15,11.77,0,16.46,7.19,16.46,10.46,0,2.73-2.07,4.91-5.34,4.91-4.36,0-7-3.82-12.43-3.82-2.83,0-4.25,2-4.25,3.71,0,2.29,1.2,3.49,5.89,6.22l1.3.76c1.75,1.09,3.93,2,5.78,3,8.29,4.47,10.36,9.81,10.36,15.26C1131.93,75.44,1125.72,83.19,1113.07,83.19Z"/><path class="cls-1" d="M1148.07,55a28.05,28.05,0,0,1,28.23-28c14.18,0,27.8,11.77,27.8,26.06a6.32,6.32,0,0,1-5.88,6.32h-33.58c-1.31,0-2.51.11-3.71.22a16.09,16.09,0,0,0,15.37,12.1c6.11,0,9.71-2.51,13.41-4.69a5.41,5.41,0,0,1,2.73-1.09,5.14,5.14,0,0,1,5.23,5.12c0,7.75-14,12.22-21.37,12.22A28.1,28.1,0,0,1,1148.07,55Zm13.08-5.13a30.57,30.57,0,0,0,3.27.22h23.66c1.2,0,2.18-.11,3.27-.11-1.2-6.21-8.4-10.9-15-10.9S1162.35,43.61,1161.15,49.82Z"/><path class="cls-1" d="M1232.23,32.49a27.62,27.62,0,0,1,16.68-5.56,28.08,28.08,0,1,1,0,56.15,27.2,27.2,0,0,1-16.13-5.24v20c0,4.26-2.73,6.76-6,6.76-3.71,0-6-2.83-6-6.76V34c0-3.82,2.62-6.66,6-6.66C1229.29,27.36,1231.47,28.56,1232.23,32.49Zm16.68,6.43a16.14,16.14,0,1,0,16.14,16.14A15.87,15.87,0,0,0,1248.91,38.92Z"/><path class="cls-1" d="M1294.05,14.06c0-4.36,1.09-8.5,6.1-8.5,4.36,0,5.89,3.27,5.89,8.4V30.2a23.14,23.14,0,0,1,11.88-3.27c14,0,24.1,9.37,24.1,23.22v24.1c0,4.68-2,8.5-5.89,8.5-5,0-6.1-4.8-6.1-10.14V52.55c0-7.2-4.47-13.63-12-13.63-6.43,0-12,3.71-12,11.78V76.1c0,3.38-2.07,6.65-6.1,6.65a3.63,3.63,0,0,1-1.64-.33h-.22a3.36,3.36,0,0,1-2.18-1.2l-.33-.32a6.17,6.17,0,0,1-1.52-4.47Z"/><path class="cls-1" d="M1435.34,82.31h-28.89c-3.27,0-6.54-2.18-6.54-6.1V6.1a6.08,6.08,0,0,1,6.32-6.1,6,6,0,0,1,6.33,6.1V68.69a.91.91,0,0,0,1,1h21.8a6,6,0,0,1,6.22,6.32A6.17,6.17,0,0,1,1435.34,82.31Z"/><path class="cls-1" d="M1470.67,59.09a12.17,12.17,0,0,0,12,12c6.21,0,12-3.38,12-11.33V36.85c0-5.45,1.42-9.49,5.89-9.49,5.23,0,5.89,3.93,6.21,9.6V73.48c0,5.24-1.3,9.38-6.1,9.38a5.54,5.54,0,0,1-5.23-3.6,21.23,21.23,0,0,1-12.65,3.93c-14,0-24.1-9.49-24.1-23.34V37c0-5.45,1-9.6,5.89-9.6,3.38,0,6.11,2.4,6.11,6.76Z"/><path class="cls-1" d="M1530,82.75c-3.38-.11-6-2.84-6-6.65V12.32c0-4,2.29-6.76,6-6.76,3.27,0,6,2.4,6,6.76v20a27.28,27.28,0,0,1,16.14-5.34,28.13,28.13,0,1,1,0,56.26,27.68,27.68,0,0,1-16.68-5.56C1534.45,81.22,1532.27,82.75,1530,82.75Zm22.13-43.83a16.14,16.14,0,1,0,16.13,16.14A15.88,15.88,0,0,0,1552.11,38.92Z"/><path class="cls-1" d="M1596.92,15.81a6.13,6.13,0,0,1,6.1-5.89,6.19,6.19,0,0,1,6,5.89,6.05,6.05,0,1,1-12.1,0Zm0,18.31c0-4.25,2.72-6.76,6.1-6.76,3.16,0,6,2.51,6,6.76v42c0,4.25-2.84,6.65-6,6.65-3.38,0-6.1-2.4-6.1-6.65Z"/><path class="cls-1" d="M1662.22,50.91a12.24,12.24,0,0,0-12-12c-6.21,0-12,3.49-12,11.45V73.26c0,5.13-1.31,9.49-5.89,9.49-5.12,0-5.89-3.6-6.21-9.6V36.63c0-4.9,1.09-9.48,6.1-9.48a5.7,5.7,0,0,1,5.23,3.59,21.2,21.2,0,0,1,12.65-3.81c14,0,24.1,9.37,24.1,23.22v23c0,5.57-1.1,9.6-5.89,9.6-3.38,0-6.11-2.4-6.11-6.65Z"/><path class="cls-1" d="M1758.27,26.93A28.13,28.13,0,1,1,1730,55,28,28,0,0,1,1758.27,26.93Zm0,44.15A16,16,0,1,0,1742.14,55,15.91,15.91,0,0,0,1758.27,71.08Z"/><path class="cls-1" d="M1808.1,22.13c0-10.46,7.08-16.79,15.91-16.79h.77c9,0,15,6.87,15,11.34a4.86,4.86,0,0,1-4.9,4.8c-4.47-.22-5-5.45-9.49-5.67h-.65c-2.84,0-4.58,1.85-4.58,7v5.45h10.57c4.36,0,7.53,1.41,7.53,5.67,0,3.59-2.84,5.23-7.53,5.23H1820.2V74c0,5.23-1.85,8.94-6,8.94-4.8,0-6.1-3.6-6.1-8.94V39.14h-4c-4.58,0-8.17-1.42-8.17-5.56,0-3.93,3.16-5.34,8.17-5.34h4Z"/></g></g></svg>