<?xml version="1.0" encoding="UTF-8"?>
<svg width="20px" height="20px" viewBox="0 0 20 20" version="1.1" xmlns="http://www.w3.org/2000/svg" xmlns:xlink="http://www.w3.org/1999/xlink">
    <title>icon/10x10/-down 2</title>
    <g id="Page-1" stroke="none" stroke-width="1" fill="none" fill-rule="evenodd">
        <g id="element-finance-main-v0.5b" transform="translate(-1085.000000, -3985.000000)" fill="#162ADF" fill-rule="nonzero">
            <g id="Group-24" transform="translate(315.000000, 3650.000000)">
                <g id="btn" transform="translate(770.000000, 332.000000)">
                    <g id="Shape" transform="translate(0.000000, 3.000000)">
                        <path d="M17.8759766,9.54137014 C17.479706,8.86474732 16.9982791,8.24024154 16.4453849,7.6849256 C15.8924906,7.12960966 15.271329,6.64725757 14.5991447,6.25116814 C13.9152269,5.84806987 13.182242,5.53680541 12.4208124,5.32618072 C10.8506638,4.89127309 9.14931395,4.89127309 7.57934313,5.32618072 C6.81755795,5.53698512 6.08475082,5.84824959 5.40101084,6.25116814 C4.72882653,6.64725757 4.10766493,7.12960966 3.55459289,7.6849256 C3.00169863,8.24006182 2.5204495,8.86474732 2.12400121,9.54137014 C1.95866626,9.82370067 1.95866626,10.1746819 2.12400121,10.4571922 C2.52009395,11.1332758 3.00152085,11.7577816 3.55459289,12.313457 C4.10784271,12.8691323 4.72900431,13.3514844 5.40101084,13.7473941 C6.08510638,14.1504924 6.81809128,14.4617569 7.57916535,14.6723816 C8.36406187,14.8898354 9.17846979,15 10.0001667,15 C10.8216858,15 11.6362715,14.8898354 12.4208124,14.6723816 C13.1820643,14.4615772 13.9150492,14.1504924 14.5991447,13.7473941 C15.2711512,13.3516642 15.8923128,12.8691323 16.4457404,12.313457 C16.9988125,11.7577816 17.4800616,11.1332758 17.8761543,10.4571922 C18.0413115,10.1748616 18.0413115,9.82370067 17.8759766,9.54137014 Z M6.29630843,12.1948458 C5.75461428,11.8756739 5.25380941,11.4867731 4.80758285,11.0385666 C4.48900198,10.7186759 4.20011028,10.3705701 3.94464113,9.99928114 C4.20028806,9.62781252 4.48900198,9.27970671 4.80740507,8.95999569 C5.25345385,8.51214866 5.75425872,8.12306808 6.29613065,7.80371648 C6.84653601,7.47951262 7.43605285,7.22899145 8.04868103,7.05934153 C8.55784153,6.91826612 9.08477999,6.83685573 9.61527403,6.8093595 C8.0931259,7.05790382 6.92564789,8.39156064 6.92564789,9.99928114 C6.92564789,11.6062828 8.09241478,12.9397599 9.6138518,13.1886636 C9.08389109,13.1613471 8.55730819,13.0799367 8.04868103,12.939041 C7.43640841,12.7695708 6.84671378,12.5190497 6.29630843,12.1948458 Z M15.1925727,11.0385666 C14.7463461,11.4865933 14.2455413,11.8754942 13.7038471,12.1948458 C13.1530862,12.5192294 12.5635694,12.7695708 11.951119,12.9392208 C11.5872043,13.0400403 11.2136896,13.1081518 10.8362637,13.1511034 C12.2593886,12.8229459 13.3257101,11.535835 13.3257101,9.99928114 C13.3257101,8.46236791 12.2590331,7.17507728 10.8353748,6.84727913 C11.2128007,6.89005104 11.5868488,6.95852203 11.951119,7.05934153 C12.5635694,7.22899145 13.1534418,7.4793329 13.7034916,7.80371648 C14.2453635,8.12306808 14.7463461,8.51214866 15.1923949,8.95999569 C15.5106202,9.27970671 15.7995119,9.62781252 16.0551589,9.99928114 C15.7998675,10.3703903 15.5109758,10.7186759 15.1925727,11.0385666 Z"></path>
                    </g>
                </g>
            </g>
        </g>
    </g>
</svg>