<svg width="44" height="44" viewBox="0 0 74 86" xmlns="http://www.w3.org/2000/svg">
    <path fill="#2337D3" d="M0.109562665,53.8343024 L36.1912299,74.3390556 L36.1912299,85.1147996 L1.36620257,65.0085607 C0.588591292,64.559606 0.109562665,63.7299045 0.109562665,62.8319963 L0.109562665,53.8343024 Z M48.129309,68.9830628 L48.129309,79.6733891 L39.9611496,84.3892785 L39.9611496,73.6249235 L48.129309,68.9830628 Z M61.9523483,61.1276043 L61.9523483,71.6926536 L51.8992289,77.4968246 L51.8992289,66.8406651 L61.9523483,61.1276043 Z M0.109562665,38.7546233 L36.1912299,59.2593765 L36.1912299,70.0029102 L0.109562665,49.498157 L0.109562665,38.7546233 Z M74.7861769,53.8343024 L74.7861769,62.8319963 C74.7861769,63.7299045 74.3071483,64.559606 73.529537,65.0085607 L65.7222681,69.5160892 L65.7222681,58.9852066 L74.7861769,53.8343024 Z M48.129309,53.9033836 L48.129309,64.6469161 L39.9611496,69.2887781 L39.9611496,58.5452444 L48.129309,53.9033836 Z M61.9523482,46.0479251 L61.9523482,56.7914589 L51.8992289,62.5045184 L51.8992289,51.760986 L61.9523482,46.0479251 Z M0.109562665,23.6749442 L36.1912299,44.1796974 L36.1912299,54.9232311 L0.109562665,34.4184779 L0.109562665,23.6749442 Z M74.7861769,38.7546233 L74.7861769,49.498157 L65.7222681,54.6490612 L65.7222681,43.9055275 L74.7861769,38.7546233 Z M48.129309,38.8237045 L48.129309,49.567237 L39.9611496,54.209099 L39.9611496,43.4655653 L48.129309,38.8237045 Z M61.9523482,30.968246 L61.9523482,41.7117798 L51.8992289,47.4248393 L51.8992289,36.6813069 L61.9523482,30.968246 Z M10.5575498,15.1363284 L46.369351,35.4877201 L37.4478698,40.5576842 L1.7066452,20.2464007 L10.5575498,15.1363284 Z M74.7861769,23.6749442 L74.7861769,34.4184779 L65.7222681,39.5693821 L65.7222681,28.8258484 L74.7861769,23.6749442 Z M25.0926325,6.7444933 L61.0203362,27.1617517 L50.1844508,33.3196468 L14.3424688,12.9511032 L25.0926325,6.7444933 Z M38.7045097,0.336715412 L73.1890944,20.2464007 L64.778612,25.0259703 C64.6691297,24.9215661 64.54522,24.828752 64.4077361,24.7506216 L28.8775516,4.55926935 L36.1912299,0.336715412 C36.9688412,-0.112238052 37.9268984,-0.112238052 38.7045097,0.336715412 Z"/>
</svg>