<svg width="250" height="43" viewBox="0 0 495 86" xmlns="http://www.w3.org/2000/svg">
    <path fill="#111746" d="M129.380874,63.2929057 L129.380874,58.6418157 L112.352681,58.6418157 L112.352681,46.9083839 L127.809041,46.9083839 L127.809041,42.3101472 L112.352681,42.3101472 L112.352681,30.9466885 L129.118902,30.9466885 L129.118902,26.2955984 L107.479998,26.2955984 L107.479998,63.2929057 L129.380874,63.2929057 Z M140.383707,63.2929057 L140.383707,24.7099996 L135.82539,24.7099996 L135.82539,63.2929057 L140.383707,63.2929057 Z M159.271903,63.9799986 C164.406558,63.9799986 168.248817,61.9891911 170.79868,58.0075761 L170.79868,58.0075761 L166.921491,55.7877377 C165.349658,58.3599314 162.834725,59.6460283 159.376692,59.6460283 C156.896688,59.6460283 154.809643,58.994171 153.115556,57.6904563 C151.421469,56.3867417 150.347383,54.5544941 149.893298,52.1937136 L149.893298,52.1937136 L171.846569,52.1937136 C171.951358,51.4890029 172.003752,50.8019101 172.003752,50.132435 C172.003752,46.2917621 170.789947,43.0060489 168.362338,40.2752953 C165.934729,37.5445416 162.799795,36.1791648 158.957536,36.1791648 C154.905699,36.1791648 151.60485,37.5004972 149.054987,40.143162 C146.505124,42.7858268 145.230193,46.0979667 145.230193,50.0795817 C145.230193,54.0964322 146.531321,57.417381 149.133578,60.042428 C151.735836,62.6674751 155.115277,63.9799986 159.271903,63.9799986 Z M167.393041,48.176863 L149.893298,48.176863 C150.277524,45.851318 151.273018,43.9926438 152.879781,42.6008403 C154.486544,41.2090368 156.512462,40.5131351 158.957536,40.5131351 C161.053314,40.5131351 162.887119,41.1649924 164.458953,42.4687071 C166.030786,43.7724217 167.008815,45.6751404 167.393041,48.176863 L167.393041,48.176863 Z M181.146582,63.2929057 L181.146582,48.5996894 C181.146582,45.9217891 181.784048,43.9133638 183.058979,42.5744137 C184.333911,41.2354635 185.931941,40.5659884 187.853071,40.5659884 C189.564622,40.5659884 190.918145,41.1297569 191.91364,42.2572939 C192.909134,43.3848309 193.406881,44.9704297 193.406881,47.0140905 L193.406881,47.0140905 L193.406881,63.2929057 L197.965198,63.2929057 L197.965198,48.5996894 C197.965198,45.8865535 198.550269,43.8693194 199.720411,42.547987 C200.890554,41.2266546 202.453655,40.5659884 204.409714,40.5659884 C206.156195,40.5659884 207.55338,41.1297569 208.601269,42.2572939 C209.649158,43.3848309 210.173103,44.9704297 210.173103,47.0140905 L210.173103,47.0140905 L210.173103,63.2929057 L214.731419,63.2929057 L214.731419,46.8555306 C214.731419,43.5786263 213.823249,40.9800059 212.006908,39.0596695 C210.190567,37.139333 207.815353,36.1791648 204.881264,36.1791648 C201.213653,36.1791648 198.471677,37.6766749 196.655337,40.671695 C195.048574,37.6766749 192.481246,36.1791648 188.953354,36.1791648 C185.53025,36.1791648 182.927993,37.5885861 181.146582,40.4074285 L181.146582,40.4074285 L181.146582,36.8662577 L176.588266,36.8662577 L176.588266,63.2929057 L181.146582,63.2929057 Z M233.645812,63.9799986 C238.780467,63.9799986 242.622726,61.9891911 245.172589,58.0075761 L245.172589,58.0075761 L241.295401,55.7877377 C239.723567,58.3599314 237.208634,59.6460283 233.750601,59.6460283 C231.270598,59.6460283 229.183552,58.994171 227.489465,57.6904563 C225.795378,56.3867417 224.721292,54.5544941 224.267207,52.1937136 L224.267207,52.1937136 L246.220478,52.1937136 C246.325267,51.4890029 246.377661,50.8019101 246.377661,50.132435 C246.377661,46.2917621 245.163857,43.0060489 242.736248,40.2752953 C240.308639,37.5445416 237.173705,36.1791648 233.331446,36.1791648 C229.279609,36.1791648 225.978759,37.5004972 223.428896,40.143162 C220.879033,42.7858268 219.604102,46.0979667 219.604102,50.0795817 C219.604102,54.0964322 220.905231,57.417381 223.507488,60.042428 C226.109745,62.6674751 229.489187,63.9799986 233.645812,63.9799986 Z M241.766951,48.176863 L224.267207,48.176863 C224.651433,45.851318 225.646927,43.9926438 227.25369,42.6008403 C228.860453,41.2090368 230.886372,40.5131351 233.331446,40.5131351 C235.427223,40.5131351 237.261029,41.1649924 238.832862,42.4687071 C240.404695,43.7724217 241.382725,45.6751404 241.766951,48.176863 L241.766951,48.176863 Z M256.175422,63.2929057 L256.175422,49.2867823 C256.175422,46.3269977 256.874014,44.1335859 258.2712,42.7065469 C259.668385,41.2795079 261.50219,40.5659884 263.772616,40.5659884 C265.798534,40.5659884 267.387832,41.1561835 268.54051,42.3365738 C269.693188,43.5169641 270.269527,45.1818429 270.269527,47.3312103 L270.269527,47.3312103 L270.269527,63.2929057 L274.827843,63.2929057 L274.827843,47.0669438 C274.827843,43.7195684 273.902208,41.0680947 272.050938,39.1125228 C270.199667,37.1569508 267.737129,36.1791648 264.663321,36.1791648 C260.855992,36.1791648 258.026692,37.6766749 256.175422,40.671695 L256.175422,40.671695 L256.175422,36.8662577 L251.617106,36.8662577 L251.617106,63.2929057 L256.175422,63.2929057 Z M286.014056,62.3151198 C287.865326,63.49551 290.78195,63.8214387 294.763928,63.2929057 L294.763928,63.2929057 L294.763928,59.1703486 C293.227024,59.2408197 291.934628,59.2672463 290.886739,59.2496286 C289.83885,59.2320108 289.061666,58.9501266 288.555187,58.4039758 C288.048707,57.8578251 287.795467,56.9328924 287.795467,55.6291778 L287.795467,55.6291778 L287.795467,41.3059345 L294.763928,41.3059345 L294.763928,36.8662577 L287.795467,36.8662577 L287.795467,29.4667962 L283.237151,30.8409819 L283.237151,36.8662577 L278.050101,36.8662577 L278.050101,41.3059345 L283.237151,41.3059345 L283.237151,55.6291778 C283.237151,58.9060822 284.162786,61.1347295 286.014056,62.3151198 Z M317.450721,63.2929057 L317.450721,47.5954768 L333.01187,47.5954768 L333.01187,42.9443867 L317.450721,42.9443867 L317.450721,30.9466885 L333.692998,30.9466885 L333.692998,26.2955984 L312.578038,26.2955984 L312.578038,63.2929057 L317.450721,63.2929057 Z M341.447375,32.0566077 C342.285686,32.0566077 343.001744,31.7571057 343.595547,31.1581017 C344.189351,30.5590977 344.486253,29.8367693 344.486253,28.9911165 C344.486253,28.1454638 344.189351,27.4143265 343.595547,26.7977048 C343.001744,26.181083 342.285686,25.8727721 341.447375,25.8727721 C340.574134,25.8727721 339.840612,26.181083 339.246809,26.7977048 C338.653005,27.4143265 338.356103,28.1454638 338.356103,28.9911165 C338.356103,29.8367693 338.653005,30.5590977 339.246809,31.1581017 C339.840612,31.7571057 340.574134,32.0566077 341.447375,32.0566077 Z M343.700336,63.2929057 L343.700336,36.8662577 L339.14202,36.8662577 L339.14202,63.2929057 L343.700336,63.2929057 Z M354.572183,63.2929057 L354.572183,49.2867823 C354.572183,46.3269977 355.270775,44.1335859 356.66796,42.7065469 C358.065145,41.2795079 359.898951,40.5659884 362.169377,40.5659884 C364.195295,40.5659884 365.784593,41.1561835 366.937271,42.3365738 C368.089948,43.5169641 368.666287,45.1818429 368.666287,47.3312103 L368.666287,47.3312103 L368.666287,63.2929057 L373.224604,63.2929057 L373.224604,47.0669438 C373.224604,43.7195684 372.298969,41.0680947 370.447698,39.1125228 C368.596428,37.1569508 366.133889,36.1791648 363.060082,36.1791648 C359.252753,36.1791648 356.423453,37.6766749 354.572183,40.671695 L354.572183,40.671695 L354.572183,36.8662577 L350.013866,36.8662577 L350.013866,63.2929057 L354.572183,63.2929057 Z M391.091108,63.9799986 C395.422382,63.9799986 398.723232,62.2358398 400.993658,58.7475223 L400.993658,58.7475223 L400.993658,63.2929057 L405.551974,63.2929057 L405.551974,36.8662577 L400.993658,36.8662577 L400.993658,41.4116411 C398.723232,37.9233236 395.422382,36.1791648 391.091108,36.1791648 C387.423497,36.1791648 384.297296,37.5269239 381.712503,40.222442 C379.127711,42.9179601 377.835315,46.2036733 377.835315,50.0795817 C377.835315,53.9554901 379.127711,57.2412033 381.712503,59.9367214 C384.297296,62.6322395 387.423497,63.9799986 391.091108,63.9799986 Z M391.667447,59.5403217 C389.047725,59.5403217 386.847158,58.6330068 385.065747,56.818377 C383.284336,55.0037471 382.393631,52.757482 382.393631,50.0795817 C382.393631,47.4016814 383.284336,45.1554163 385.065747,43.3407864 C386.847158,41.5261566 389.047725,40.6188417 391.667447,40.6188417 C394.322099,40.6188417 396.54013,41.5261566 398.321541,43.3407864 C400.102952,45.1554163 400.993658,47.4016814 400.993658,50.0795817 C400.993658,52.757482 400.102952,55.0037471 398.321541,56.818377 C396.54013,58.6330068 394.322099,59.5403217 391.667447,59.5403217 Z M416.371426,63.2929057 L416.371426,49.2867823 C416.371426,46.3269977 417.070019,44.1335859 418.467204,42.7065469 C419.864389,41.2795079 421.698194,40.5659884 423.96862,40.5659884 C425.994538,40.5659884 427.583837,41.1561835 428.736514,42.3365738 C429.889192,43.5169641 430.465531,45.1818429 430.465531,47.3312103 L430.465531,47.3312103 L430.465531,63.2929057 L435.023847,63.2929057 L435.023847,47.0669438 C435.023847,43.7195684 434.098212,41.0680947 432.246942,39.1125228 C430.395672,37.1569508 427.933133,36.1791648 424.859326,36.1791648 C421.051996,36.1791648 418.222696,37.6766749 416.371426,40.671695 L416.371426,40.671695 L416.371426,36.8662577 L411.81311,36.8662577 L411.81311,63.2929057 L416.371426,63.2929057 Z M452.366407,63.9799986 C454.91627,63.9799986 457.23909,63.3545679 459.334868,62.1037066 C461.430646,60.8528452 463.037408,59.1879664 464.155157,57.1090701 L464.155157,57.1090701 L460.277968,54.8363784 C459.544446,56.2457996 458.479092,57.3645277 457.081907,58.1925627 C455.684722,59.0205976 454.112889,59.4346151 452.366407,59.4346151 C449.746685,59.4346151 447.554851,58.5361091 445.790905,56.739097 C444.026959,54.9420849 443.144986,52.7222465 443.144986,50.0795817 C443.144986,47.4016814 444.026959,45.1642252 445.790905,43.3672131 C447.554851,41.570201 449.746685,40.671695 452.366407,40.671695 C454.112889,40.671695 455.675989,41.0945214 457.05571,41.9401741 C458.43543,42.7858268 459.457122,43.9133638 460.120785,45.3227851 L460.120785,45.3227851 L463.945579,43.1029466 C462.93262,40.9888148 461.395716,39.3063182 459.334868,38.0554568 C457.27402,36.8045955 454.9512,36.1791648 452.366407,36.1791648 C448.419359,36.1791648 445.135974,37.5093061 442.516252,40.1695887 C439.89653,42.8298713 438.586669,46.1332023 438.586669,50.0795817 C438.586669,54.0259612 439.89653,57.3292922 442.516252,59.9895747 C445.135974,62.6498573 448.419359,63.9799986 452.366407,63.9799986 Z M481.288139,63.9799986 C486.422794,63.9799986 490.265053,61.9891911 492.814916,58.0075761 L492.814916,58.0075761 L488.937727,55.7877377 C487.365894,58.3599314 484.850961,59.6460283 481.392928,59.6460283 C478.912924,59.6460283 476.825879,58.994171 475.131792,57.6904563 C473.437705,56.3867417 472.363619,54.5544941 471.909534,52.1937136 L471.909534,52.1937136 L493.862805,52.1937136 C493.967594,51.4890029 494.019988,50.8019101 494.019988,50.132435 C494.019988,46.2917621 492.806184,43.0060489 490.378574,40.2752953 C487.950965,37.5445416 484.816031,36.1791648 480.973772,36.1791648 C476.921935,36.1791648 473.621086,37.5004972 471.071223,40.143162 C468.52136,42.7858268 467.246429,46.0979667 467.246429,50.0795817 C467.246429,54.0964322 468.547557,57.417381 471.149814,60.042428 C473.752072,62.6674751 477.131513,63.9799986 481.288139,63.9799986 Z M489.409277,48.176863 L471.909534,48.176863 C472.29376,45.851318 473.289254,43.9926438 474.896017,42.6008403 C476.50278,41.2090368 478.528698,40.5131351 480.973772,40.5131351 C483.06955,40.5131351 484.903355,41.1649924 486.475189,42.4687071 C488.047022,43.7724217 489.025051,45.6751404 489.409277,48.176863 L489.409277,48.176863 Z"/>
    <path fill="#2337D3" d="M0.109562665,53.8343024 L36.1912299,74.3390556 L36.1912299,85.1147996 L1.36620257,65.0085607 C0.588591292,64.559606 0.109562665,63.7299045 0.109562665,62.8319963 L0.109562665,53.8343024 Z M48.129309,68.9830628 L48.129309,79.6733891 L39.9611496,84.3892785 L39.9611496,73.6249235 L48.129309,68.9830628 Z M61.9523483,61.1276043 L61.9523483,71.6926536 L51.8992289,77.4968246 L51.8992289,66.8406651 L61.9523483,61.1276043 Z M0.109562665,38.7546233 L36.1912299,59.2593765 L36.1912299,70.0029102 L0.109562665,49.498157 L0.109562665,38.7546233 Z M74.7861769,53.8343024 L74.7861769,62.8319963 C74.7861769,63.7299045 74.3071483,64.559606 73.529537,65.0085607 L65.7222681,69.5160892 L65.7222681,58.9852066 L74.7861769,53.8343024 Z M48.129309,53.9033836 L48.129309,64.6469161 L39.9611496,69.2887781 L39.9611496,58.5452444 L48.129309,53.9033836 Z M61.9523482,46.0479251 L61.9523482,56.7914589 L51.8992289,62.5045184 L51.8992289,51.760986 L61.9523482,46.0479251 Z M0.109562665,23.6749442 L36.1912299,44.1796974 L36.1912299,54.9232311 L0.109562665,34.4184779 L0.109562665,23.6749442 Z M74.7861769,38.7546233 L74.7861769,49.498157 L65.7222681,54.6490612 L65.7222681,43.9055275 L74.7861769,38.7546233 Z M48.129309,38.8237045 L48.129309,49.567237 L39.9611496,54.209099 L39.9611496,43.4655653 L48.129309,38.8237045 Z M61.9523482,30.968246 L61.9523482,41.7117798 L51.8992289,47.4248393 L51.8992289,36.6813069 L61.9523482,30.968246 Z M10.5575498,15.1363284 L46.369351,35.4877201 L37.4478698,40.5576842 L1.7066452,20.2464007 L10.5575498,15.1363284 Z M74.7861769,23.6749442 L74.7861769,34.4184779 L65.7222681,39.5693821 L65.7222681,28.8258484 L74.7861769,23.6749442 Z M25.0926325,6.7444933 L61.0203362,27.1617517 L50.1844508,33.3196468 L14.3424688,12.9511032 L25.0926325,6.7444933 Z M38.7045097,0.336715412 L73.1890944,20.2464007 L64.778612,25.0259703 C64.6691297,24.9215661 64.54522,24.828752 64.4077361,24.7506216 L28.8775516,4.55926935 L36.1912299,0.336715412 C36.9688412,-0.112238052 37.9268984,-0.112238052 38.7045097,0.336715412 Z"/>
</svg>