<?xml version="1.0" encoding="UTF-8"?>
<svg width="231px" height="223px" viewBox="0 0 231 223" version="1.1" xmlns="http://www.w3.org/2000/svg" xmlns:xlink="http://www.w3.org/1999/xlink">
    <title>Group 156</title>
    <defs>
        <polygon id="path-1" points="0 0.204948055 228.88114 0.204948055 228.88114 56.4491897 0 56.4491897"></polygon>
        <polygon id="path-3" points="0.217233056 0.231858056 1.00125008 0.231858056 1.00125008 2.58706812 0.217233056 2.58706812"></polygon>
        <linearGradient x1="78.4459644%" y1="47.6931853%" x2="20.7333926%" y2="54.6367958%" id="linearGradient-5">
            <stop stop-color="#4469FF" offset="0%"></stop>
            <stop stop-color="#0213B3" offset="100%"></stop>
        </linearGradient>
        <polygon id="path-6" points="0.270000057 0.231858056 1.05354908 0.231858056 1.05354908 2.58706812 0.270000057 2.58706812"></polygon>
        <linearGradient x1="78.4459644%" y1="47.6930501%" x2="20.7333926%" y2="54.6370674%" id="linearGradient-8">
            <stop stop-color="#4469FF" offset="0%"></stop>
            <stop stop-color="#0213B3" offset="100%"></stop>
        </linearGradient>
        <linearGradient x1="78.4459644%" y1="37.7801439%" x2="20.7333926%" y2="74.5624305%" id="linearGradient-9">
            <stop stop-color="#4469FF" offset="0%"></stop>
            <stop stop-color="#0213B3" offset="100%"></stop>
        </linearGradient>
        <linearGradient x1="78.4459644%" y1="37.7153496%" x2="20.7333926%" y2="74.6926699%" id="linearGradient-10">
            <stop stop-color="#4469FF" offset="0%"></stop>
            <stop stop-color="#0213B3" offset="100%"></stop>
        </linearGradient>
        <linearGradient x1="78.4459644%" y1="9.21269978%" x2="20.7333926%" y2="131.984208%" id="linearGradient-11">
            <stop stop-color="#4469FF" offset="0%"></stop>
            <stop stop-color="#0213B3" offset="100%"></stop>
        </linearGradient>
        <linearGradient x1="78.4459644%" y1="21.896188%" x2="20.7333926%" y2="106.489858%" id="linearGradient-12">
            <stop stop-color="#4469FF" offset="0%"></stop>
            <stop stop-color="#0213B3" offset="100%"></stop>
        </linearGradient>
        <linearGradient x1="78.1219849%" y1="0%" x2="21.0667187%" y2="150.502127%" id="linearGradient-13">
            <stop stop-color="#4469FF" offset="0%"></stop>
            <stop stop-color="#0213B3" offset="100%"></stop>
        </linearGradient>
        <linearGradient x1="78.4459644%" y1="13.5212125%" x2="20.7333926%" y2="123.323914%" id="linearGradient-14">
            <stop stop-color="#4469FF" offset="0%"></stop>
            <stop stop-color="#0213B3" offset="100%"></stop>
        </linearGradient>
        <polygon id="path-15" points="0.259749847 0.732420021 30.4668819 0.732420021 30.4668819 142.124596 0.259749847 142.124596"></polygon>
        <polygon id="path-17" points="0.598221017 0.732420021 27.0343718 0.732420021 27.0343718 25.1848357 0.598221017 25.1848357"></polygon>
        <linearGradient x1="78.4459644%" y1="7.22028517%" x2="20.7333926%" y2="135.989046%" id="linearGradient-19">
            <stop stop-color="#4469FF" offset="0%"></stop>
            <stop stop-color="#0213B3" offset="100%"></stop>
        </linearGradient>
        <linearGradient x1="78.4459644%" y1="0.00373754929%" x2="20.7333926%" y2="150.494614%" id="linearGradient-20">
            <stop stop-color="#4469FF" offset="0%"></stop>
            <stop stop-color="#0213B3" offset="100%"></stop>
        </linearGradient>
        <linearGradient x1="78.4459644%" y1="0%" x2="20.7333926%" y2="150.502127%" id="linearGradient-21">
            <stop stop-color="#4469FF" offset="0%"></stop>
            <stop stop-color="#0213B3" offset="100%"></stop>
        </linearGradient>
        <linearGradient x1="63.6195741%" y1="0%" x2="35.9875122%" y2="150.502127%" id="linearGradient-22">
            <stop stop-color="#4469FF" offset="0%"></stop>
            <stop stop-color="#0213B3" offset="100%"></stop>
        </linearGradient>
        <linearGradient x1="70.2994995%" y1="0%" x2="29.1148764%" y2="150.502127%" id="linearGradient-23">
            <stop stop-color="#4469FF" offset="0%"></stop>
            <stop stop-color="#0213B3" offset="100%"></stop>
        </linearGradient>
        <linearGradient x1="63.6187812%" y1="0%" x2="35.988328%" y2="150.502127%" id="linearGradient-24">
            <stop stop-color="#4469FF" offset="0%"></stop>
            <stop stop-color="#0213B3" offset="100%"></stop>
        </linearGradient>
        <linearGradient x1="70.2982571%" y1="0%" x2="29.1161547%" y2="150.502127%" id="linearGradient-25">
            <stop stop-color="#4469FF" offset="0%"></stop>
            <stop stop-color="#0213B3" offset="100%"></stop>
        </linearGradient>
    </defs>
    <g id="Page-1" stroke="none" stroke-width="1" fill="none" fill-rule="evenodd">
        <g id="modalka_v0.2a" transform="translate(-845.000000, -236.000000)">
            <g id="modalka#1" transform="translate(495.000000, 170.000000)">
                <g id="title" transform="translate(98.000000, 66.000000)">
                    <g id="Group-156" transform="translate(252.000000, 0.000000)">
                        <path d="M178.190735,143.436505 C178.190735,149.299375 149.516374,154.051915 114.144933,154.051915 C78.7723223,154.051915 50.0991315,149.299375 50.0991315,143.436505 C50.0991315,137.572465 78.7723223,132.819925 114.144933,132.819925 C149.516374,132.819925 178.190735,137.572465 178.190735,143.436505 Z" id="Stroke-2" stroke="#7BE3CE" stroke-width="0.5"></path>
                        <g id="Group-12" transform="translate(0.270000, 144.077584)">
                            <mask id="mask-2" fill="white">
                                <use xlink:href="#path-1"></use>
                            </mask>
                            <g id="Clip-11"></g>
                            <path d="M228.48334,25.9718588 C223.614969,11.5422484 174.416468,0.204948055 114.439926,0.204948055 C54.4645546,0.204948055 5.26605315,11.5422484 0.397683011,25.9718588 C0.135603004,26.7487388 -0.000117000004,27.5338088 -0.000117000004,28.3270689 C-0.000117000004,32.046499 2.94126308,35.5974491 8.27880324,38.8477092 C16.5612335,43.8892393 30.6187839,48.2065394 48.4378844,51.3035295 C67.0900249,54.5444296 89.8593956,56.4491897 114.439926,56.4491897 C139.021627,56.4491897 161.792168,54.5444296 180.443138,51.3035295 C198.263409,48.2065394 212.320959,43.8892393 220.603389,38.8477092 C225.940929,35.5974491 228.88114,32.046499 228.88114,28.3270689 C228.88114,27.5338088 228.74542,26.7487388 228.48334,25.9718588" id="Fill-10" fill="#DADEFF" mask="url(#mask-2)"></path>
                        </g>
                        <g id="Group-19" transform="translate(228.150007, 169.817585)">
                            <mask id="mask-4" fill="white">
                                <use xlink:href="#path-3"></use>
                            </mask>
                            <g id="Clip-18"></g>
                            <path d="M0.603333067,0.231858056 C0.865413074,1.00873808 1.00113308,1.7938081 1.00113308,2.58706812 L1.00113308,0.231858056 L0.603333067,0.231858056 Z" id="Fill-17" fill="#09B79D" mask="url(#mask-4)"></path>
                        </g>
                        <g id="Group-22" transform="translate(0.270000, 172.157585)" fill="url(#linearGradient-5)" fill-rule="nonzero">
                            <path d="M220.602921,10.7674744 C212.320491,15.8101745 198.262941,20.1263046 180.44384,23.2232947 C161.7917,26.4641948 139.021159,28.3689549 114.440628,28.3689549 C89.8589276,28.3689549 67.0895569,26.4641948 48.4385864,23.2232947 C30.6183159,20.1263046 16.5607655,15.8101745 8.27833524,10.7674744 C2.94079508,7.51721426 -0.000585000016,3.96743416 -0.000585000016,0.246834057 L-0.000585000016,21.2869447 L-0.000585000016,23.2232947 L0.269685008,23.2232947 C4.31788512,37.8518051 53.8849365,49.4090655 114.440628,49.4090655 C174.99632,49.4090655 224.564541,37.8518051 228.612742,23.2232947 L228.880672,23.2232947 L228.880672,21.2869447 L228.880672,0.246834057 C228.880672,3.96743416 225.940461,7.51721426 220.602921,10.7674744" id="Fill-20"></path>
                        </g>
                        <g id="Group-25" transform="translate(0.000000, 169.817585)">
                            <mask id="mask-7" fill="white">
                                <use xlink:href="#path-6"></use>
                            </mask>
                            <g id="Clip-24"></g>
                            <path d="M0.269649057,0.231858056 L0.269649057,2.58706812 C0.269649057,1.7938081 0.405369061,1.00873808 0.667449069,0.231858056 L0.269649057,0.231858056 Z" id="Fill-23" fill="#09B79D" mask="url(#mask-7)"></path>
                        </g>
                        <path d="M208.245111,144.933286 C204.253071,133.098736 163.90211,123.799576 114.710628,123.799576 C65.5203169,123.799576 25.1681858,133.098736 21.1749757,144.933286 C20.9608656,145.569766 20.8497156,146.214436 20.8497156,146.863786 C20.8497156,149.916316 23.2610857,152.827276 27.6392258,155.492536 C34.431076,159.629657 45.9614264,163.170077 60.5770668,165.710147 C75.8736472,168.367217 94.5491877,169.930337 114.710628,169.930337 C134.870899,169.930337 153.547609,168.367217 168.84419,165.710147 C183.45866,163.170077 194.989011,159.629657 201.782031,155.492536 C206.160171,152.827276 208.571541,149.916316 208.571541,146.863786 C208.571541,146.214436 208.460391,145.569766 208.245111,144.933286" id="Fill-30" fill="#DADEFF"></path>
                        <path d="M209.043753,144.933286 C209.259033,145.569766 209.370183,146.214436 209.370183,146.863786 L209.370183,144.933286 L209.043753,144.933286 Z" id="Fill-36" fill="#09B79D"></path>
                        <path d="M208.245111,144.933286 C208.460391,145.569766 208.571541,146.214436 208.571541,146.863786 L208.571541,144.933286 L208.245111,144.933286 Z" id="Fill-38" fill="#09B79D"></path>
                        <path d="M201.781563,155.493004 C194.988543,159.628955 183.459362,163.170545 168.844892,165.709445 C153.547141,168.367685 134.871601,169.930805 114.71016,169.930805 C94.5498897,169.930805 75.8743492,168.367685 60.5765988,165.709445 C45.9609584,163.170545 34.431778,159.628955 27.6387578,155.493004 C23.2606177,152.827744 20.8492476,149.915614 20.8492476,146.864254 L20.8492476,164.121755 L20.8492476,165.709445 L21.0703777,165.709445 C24.3896677,177.707795 65.0448289,187.187135 114.71016,187.187135 C164.376662,187.187135 205.030653,177.707795 208.351113,165.709445 L208.572243,165.709445 L208.572243,164.121755 L208.572243,146.864254 C208.572243,149.915614 206.159703,152.827744 201.781563,155.493004" id="Fill-40" fill="url(#linearGradient-8)" fill-rule="nonzero"></path>
                        <path d="M20.8497156,144.933286 L20.8497156,146.863786 C20.8497156,146.214436 20.9608656,145.569766 21.1749757,144.933286 L20.8497156,144.933286 Z" id="Fill-42" fill="#09B79D"></path>
                        <path d="M125.004874,147.717652 C117.771933,150.002662 113.830203,149.973412 106.516533,147.632242 C104.631663,147.028522 103.347003,145.272352 103.348172,143.292712 C103.349343,141.014722 103.435923,138.288622 103.501443,137.408782 C111.663363,140.236672 119.794863,139.952362 127.959124,137.122132 C127.996564,138.815122 128.115904,141.081412 128.200144,143.176882 C128.285554,145.239592 126.972814,147.096382 125.004874,147.717652" id="Fill-57" fill="url(#linearGradient-9)" fill-rule="nonzero"></path>
                        <path d="M127.959592,137.1226 C126.773212,137.53444 125.589172,137.88895 124.403962,138.19198 C124.422682,138.60031 124.439062,139.0063 124.455442,139.40761 C124.538512,141.46915 123.226942,143.32711 121.259002,143.94838 C114.241341,146.16553 110.321841,146.20414 103.415331,144.06538 C103.700811,145.71742 104.881341,147.10855 106.517001,147.63154 C113.830671,149.97271 117.772401,150.00313 125.005342,147.71812 C126.972112,147.09568 128.284852,145.23889 128.200612,143.17735 C128.116372,141.08188 127.995862,138.81442 127.959592,137.1226" id="Fill-59" fill="url(#linearGradient-10)" fill-rule="nonzero"></path>
                        <path d="M94.6317897,101.462754 C93.7917297,100.676514 92.5585497,100.478784 91.5055497,100.943274 C87.0478495,102.911214 74.9161192,108.392664 71.4997191,111.238104 C67.287719,114.746934 57.6586187,137.586505 57.6586187,137.586505 C57.6586187,137.586505 71.4985491,119.802504 75.4121992,118.901604 C78.6987293,118.145784 90.5075396,116.900904 94.2176097,116.520654 C95.0073598,116.439924 95.7280798,116.038614 96.2112898,115.410324 C97.9265098,113.175624 101.06445,107.489424 94.6317897,101.462754" id="Fill-61" fill="url(#linearGradient-11)" fill-rule="nonzero"></path>
                        <path d="M76.8886222,112.172115 C72.2027721,113.820645 57.6585017,137.586856 57.6585017,137.586856 C57.6585017,137.586856 71.4984321,119.801685 75.4120822,118.901955 C78.6986123,118.144965 90.5074226,116.901255 94.2186627,116.521005 C95.0072428,116.439105 95.7279628,116.038965 96.2111728,115.410675 C97.3870228,113.880315 99.2274329,110.731845 98.2060229,106.964445 C92.6344827,108.187095 80.4641423,110.914365 76.8886222,112.172115" id="Fill-63" fill="url(#linearGradient-12)" fill-rule="nonzero"></path>
                        <path d="M138.321697,100.417242 C139.210897,99.6871618 140.454607,99.5713318 141.473677,100.104852 C145.793317,102.362952 157.535438,108.630642 160.758788,111.696042 C164.729768,115.475142 172.832018,138.899713 172.832018,138.899713 C172.832018,138.899713 160.194848,120.241722 156.347888,119.084592 C153.118687,118.113492 141.418687,116.092902 137.740207,115.469292 C136.957477,115.337082 136.266007,114.888972 135.824917,114.230262 C134.259457,111.886752 131.505277,106.006332 138.321697,100.417242" id="Fill-65" fill="url(#linearGradient-13)" fill-rule="nonzero"></path>
                        <path d="M155.319808,112.272618 C159.886319,114.226518 172.832369,138.899479 172.832369,138.899479 C172.832369,138.899479 160.195199,120.242658 156.348239,119.084358 C153.120208,118.113258 141.419038,116.093838 137.740558,115.469058 C136.957828,115.336848 136.266358,114.888738 135.825268,114.230028 C134.753548,112.625958 133.123738,109.362828 134.390848,105.670308 C139.871128,107.257998 151.834378,110.782038 155.319808,112.272618" id="Fill-67" fill="url(#linearGradient-14)" fill-rule="nonzero"></path>
                        <g id="Group-75" transform="translate(84.240002, 0.437580)">
                            <g id="Group-71" transform="translate(29.250001, 0.000000)" fill="#DADEFF">
                                <path d="M0.0468810509,0.731952021 C0.0468810509,0.731952021 21.8088817,26.5339628 28.7972919,78.6761842 C35.7857021,130.819576 15.3586715,139.419076 15.3586715,139.419076 C15.3586715,139.419076 7.58519127,143.223916 0.0468810509,141.809386 L0.0468810509,0.731952021 Z" id="Fill-69"></path>
                            </g>
                            <g id="Group-74">
                                <mask id="mask-16" fill="white">
                                    <use xlink:href="#path-15"></use>
                                </mask>
                                <g id="Clip-73"></g>
                                <path d="M30.4668819,0.731952021 C30.4668819,0.731952021 8.7037113,26.5339628 1.7164711,78.6761842 C-5.2719391,130.819576 15.1539215,139.419076 15.1539215,139.419076 C15.1539215,139.419076 22.9274017,143.223916 30.4668819,141.809386 L30.4668819,0.731952021 Z" id="Fill-72" fill="#DADEFF" mask="url(#mask-16)"></path>
                            </g>
                        </g>
                        <path d="M84.7918555,90.6356906 C82.0575654,132.556792 99.3934559,139.856422 99.3934559,139.856422 C99.3934559,139.856422 107.899356,143.460022 115.305456,142.347352 C122.651887,143.460022 130.018207,139.856422 130.018207,139.856422 C130.018207,139.856422 147.355267,132.556792 144.620977,90.6356906 C136.071787,95.5789407 125.781637,98.4629908 114.706416,98.4629908 C103.632366,98.4629908 93.3410457,95.5789407 84.7918555,90.6356906" id="Fill-76" fill="#F2F4FF"></path>
                        <g id="Group-82" transform="translate(100.890003, 0.437580)">
                            <mask id="mask-18" fill="white">
                                <use xlink:href="#path-17"></use>
                            </mask>
                            <g id="Clip-81"></g>
                            <path d="M17.4731315,5.80261517 C15.2407714,2.42248507 13.8168814,0.731835021 13.8168814,0.731835021 C13.8168814,0.731835021 12.3918214,2.42248507 10.1594613,5.80261517 C7.68959122,9.54076527 4.22873112,15.3521554 0.598221017,23.2473157 C4.47794113,24.4781557 8.99414126,25.1848357 13.8168814,25.1848357 C18.6384515,25.1848357 23.1546517,24.4781557 27.0343718,23.2473157 C23.4038617,15.3521554 19.9430016,9.54076527 17.4731315,5.80261517" id="Fill-80" fill="url(#linearGradient-19)" fill-rule="nonzero" mask="url(#mask-18)"></path>
                        </g>
                        <g id="Group-87" transform="translate(98.550003, 48.137581)">
                            <path d="M32.0432589,15.7640765 C32.0432589,24.4080367 25.0361287,31.4151669 16.3921685,31.4151669 C7.74703822,31.4151669 0.739908021,24.4080367 0.739908021,15.7640765 C0.739908021,7.12011625 7.74703822,0.112986053 16.3921685,0.112986053 C25.0361287,0.112986053 32.0432589,7.12011625 32.0432589,15.7640765" id="Fill-83" fill="#15B6DA"></path>
                            <path d="M32.0432589,15.7640765 C32.0432589,24.4080367 25.0361287,31.4151669 16.3921685,31.4151669 C7.74703822,31.4151669 0.739908021,24.4080367 0.739908021,15.7640765 C0.739908021,7.12011625 7.74703822,0.112986053 16.3921685,0.112986053 C25.0361287,0.112986053 32.0432589,7.12011625 32.0432589,15.7640765" id="Fill-85" fill="url(#linearGradient-20)" fill-rule="nonzero"></path>
                        </g>
                        <path d="M130.593262,61.0742357 C130.593262,69.718196 123.586132,76.7253262 114.942171,76.7253262 C106.297041,76.7253262 99.2899109,69.718196 99.2899109,61.0742357 C99.2899109,52.4302755 106.297041,45.4231453 114.942171,45.4231453 C123.586132,45.4231453 130.593262,52.4302755 130.593262,61.0742357" id="Fill-88" fill="url(#linearGradient-20)" fill-rule="nonzero"></path>
                        <path d="M114.942171,45.4226773 C106.297041,45.4226773 99.2899109,52.4298075 99.2899109,61.0737677 C99.2899109,69.718898 106.297041,76.7260282 114.942171,76.7260282 C123.586132,76.7260282 130.593262,69.718898 130.593262,61.0737677 C130.593262,52.4298075 123.586132,45.4226773 114.942171,45.4226773 M114.942171,48.0142274 C122.143522,48.0142274 128.001712,53.8724175 128.001712,61.0737677 C128.001712,68.2751179 122.143522,74.1344781 114.942171,74.1344781 C107.740821,74.1344781 101.881461,68.2751179 101.881461,61.0737677 C101.881461,53.8724175 107.740821,48.0142274 114.942171,48.0142274" id="Fill-90" fill="url(#linearGradient-21)" fill-rule="nonzero"></path>
                        <path d="M144.620626,90.6356906 C144.387796,87.0531505 144.007546,83.2190604 143.457646,79.1135303 C140.229616,55.0384396 133.854286,36.582859 127.923556,23.6847787 C124.700206,16.6717985 121.610236,11.3073483 119.229285,7.57504822 C121.052146,11.5811283 123.144106,16.7279585 125.198626,22.9886287 C129.985096,37.5633191 134.569156,58.1611697 135.082786,84.4077804 C135.170536,88.8818605 135.107356,93.0470607 134.918986,96.9221008 C133.643686,123.178072 126.565186,136.146352 120.832185,142.412872 C125.942746,141.847762 130.019026,139.856422 130.019026,139.856422 C130.019026,139.856422 147.354916,132.556792 144.620626,90.6356906" id="Fill-92" fill="#F2F4FF"></path>
                        <path d="M94.8077578,104.110113 C93.5581977,103.484163 92.0524077,103.679553 90.9853676,104.585133 C86.4679975,108.420393 74.2239472,119.003043 71.2240671,123.500524 C67.526867,129.046324 64.1993869,158.997155 64.1993869,158.997155 C64.1993869,158.997155 74.1818272,133.484134 78.4347773,131.080954 C82.0032774,129.063874 95.3365978,123.532114 99.5322179,121.804023 C100.424928,121.437813 101.124588,120.721773 101.470908,119.820873 C102.699408,116.623263 104.390058,108.910623 94.8077578,104.110113" id="Fill-96" fill="url(#linearGradient-22)" fill-rule="nonzero"></path>
                        <path d="M75.5541202,129.143902 C78.9143603,126.795712 97.5477808,116.455251 101.560881,114.337551 C101.861571,114.177261 102.135351,113.974851 102.375201,113.740851 C102.619731,116.210721 102.001971,118.438401 101.470791,119.820171 C101.124471,120.722241 100.424811,121.437111 99.5321009,121.804491 C95.3364808,123.531412 82.0031604,129.064342 78.4346603,131.080252 C74.1828802,133.484602 64.1992699,158.997623 64.1992699,158.997623 C64.1992699,158.997623 64.2858499,158.223083 64.4449699,156.905662 C66.0537199,151.446442 72.1049601,131.554102 75.5541202,129.143902" id="Fill-98" fill="url(#linearGradient-23)" fill-rule="nonzero"></path>
                        <path d="M135.097294,104.110113 C136.346854,103.484163 137.853814,103.679553 138.920854,104.585133 C143.437054,108.420393 155.682274,119.003043 158.680985,123.500524 C162.378185,129.046324 165.705665,158.997155 165.705665,158.997155 C165.705665,158.997155 155.723224,133.484134 151.470274,131.080954 C147.901774,129.063874 134.568454,123.532114 130.372834,121.804023 C129.480124,121.437813 128.781634,120.721773 128.435314,119.820873 C127.206814,116.623263 125.516164,108.910623 135.097294,104.110113" id="Fill-100" fill="url(#linearGradient-24)" fill-rule="nonzero"></path>
                        <path d="M154.350931,129.143902 C150.990691,126.795712 132.357271,116.455251 128.345341,114.337551 C128.043481,114.177261 127.770871,113.974851 127.531021,113.740851 C127.286491,116.210721 127.904251,118.438401 128.435431,119.820171 C128.781751,120.722241 129.480241,121.437111 130.372951,121.804491 C134.568571,123.531412 147.901891,129.064342 151.470391,131.080252 C155.723341,133.484602 165.705782,158.997623 165.705782,158.997623 C165.705782,158.997623 165.620372,158.223083 165.461252,156.905662 C163.852502,151.446442 157.801262,131.554102 154.350931,129.143902" id="Fill-102" fill="url(#linearGradient-25)" fill-rule="nonzero"></path>
                        <path d="M124.463281,52.5649425 C125.732731,54.5562826 126.472171,56.9185126 126.472171,59.4550727 C126.472171,66.5441029 120.7263,72.2899731 113.63727,72.2899731 C109.89444,72.2899731 106.52601,70.685903 104.17899,68.1294529 C106.45815,71.701463 110.45253,74.0730531 115.005,74.0730531 C122.094031,74.0730531 127.839901,68.3271829 127.839901,61.2393227 C127.839901,57.8942927 126.558751,54.8487826 124.463281,52.5649425" id="Fill-104" fill="#2B2748"></path>
                        <path d="M106.347702,68.1382279 C105.206952,66.4428979 104.520162,64.4164578 104.466342,62.2238778 C104.317752,56.0954176 109.163892,51.0070875 115.292352,50.8584975 C118.527402,50.7801074 121.474633,52.0963575 123.556063,54.2573475 C121.510903,51.2165175 118.006752,49.2497474 114.073212,49.3456874 C107.944752,49.4942774 103.097442,54.5826076 103.247202,60.7098977 C103.316232,63.6021378 104.487402,66.2077279 106.347702,68.1382279" id="Fill-106" fill="#F4F3FF"></path>
                        <g id="Group" transform="translate(18.509131, 13.418730)" stroke="#5E3BFF">
                            <path d="M184.860005,29.2500008 C184.860005,37.6495283 144.787141,44.4600013 95.3550027,44.4600013 C45.9212296,44.4600013 5.85000017,37.6495283 5.85000017,29.2500008" id="Stroke-109" stroke-width="0.585000017"></path>
                            <path d="M179.010005,44.4600013 C179.010005,52.2134112 141.818196,58.5000017 95.9400027,58.5000017 C50.0602917,58.5000017 12.8700004,52.2134112 12.8700004,44.4600013" id="Stroke-112" stroke-width="0.585000017"></path>
                            <path d="M171.990005,59.6700017 C171.990005,66.7780775 137.679252,72.5400021 95.3550027,72.5400021 C53.0293538,72.5400021 18.7200005,66.7780775 18.7200005,59.6700017" id="Stroke-115" stroke-width="0.585000017"></path>
                            <path d="M166.140005,74.8800021 C166.140005,81.3411771 134.710307,86.5800025 95.9400027,86.5800025 C57.168416,86.5800025 25.7400007,81.3411771 25.7400007,74.8800021" id="Stroke-118" stroke-width="0.585000017"></path>
                            <path d="M159.681605,91.2385916 C159.681605,97.1026318 131.007244,101.855172 95.6358027,101.855172 C60.2631917,101.855172 31.5900009,97.1026318 31.5900009,91.2385916" id="Stroke-121" stroke-width="0.5"></path>
                            <path d="M191.880005,15.7950005 C191.880005,24.5175867 148.926085,31.5900009 95.9400027,31.5900009 C42.9521675,31.5900009 0,24.5175867 0,15.7950005 C0,7.07241424 42.9521675,0 95.9400027,0 C148.926085,0 191.880005,7.07241424 191.880005,15.7950005 Z" id="Stroke-127" stroke-width="0.585000017"></path>
                        </g>
                        <path d="M205.020006,42.7050012 C205.020006,43.6753515 204.235356,44.4600013 203.265006,44.4600013 C202.294656,44.4600013 201.510006,43.6753515 201.510006,42.7050012 C201.510006,41.734651 202.294656,40.9500012 203.265006,40.9500012 C204.235356,40.9500012 205.020006,41.734651 205.020006,42.7050012" id="Fill-130" fill="url(#linearGradient-21)" fill-rule="nonzero"></path>
                        <path d="M85.6800025,56.7450016 C85.6800025,57.7153519 84.8933234,58.5000017 83.9236957,58.5000017 C82.9566815,58.5000017 82.1700024,57.7153519 82.1700024,56.7450016 C82.1700024,55.7746514 82.9566815,54.9900016 83.9236957,54.9900016 C84.8933234,54.9900016 85.6800025,55.7746514 85.6800025,56.7450016" id="Fill-133" fill="url(#linearGradient-21)" fill-rule="nonzero"></path>
                        <path d="M30.6900009,21.6450006 C30.6900009,22.6153509 29.9033218,23.4000007 28.9336941,23.4000007 C27.9666799,23.4000007 27.1800008,22.6153509 27.1800008,21.6450006 C27.1800008,20.6746504 27.9666799,19.8900006 28.9336941,19.8900006 C29.9033218,19.8900006 30.6900009,20.6746504 30.6900009,21.6450006" id="Fill-136" fill="url(#linearGradient-21)" fill-rule="nonzero"></path>
                        <path d="M50.5800015,66.1050019 C50.5800015,67.0753521 49.7953517,67.8600019 48.8250014,67.8600019 C47.8546512,67.8600019 47.0700014,67.0753521 47.0700014,66.1050019 C47.0700014,65.1346516 47.8546512,64.3500018 48.8250014,64.3500018 C49.7953517,64.3500018 50.5800015,65.1346516 50.5800015,66.1050019" id="Fill-139" fill="url(#linearGradient-21)" fill-rule="nonzero"></path>
                        <path d="M54.0900016,107.055003 C54.0900016,108.025353 53.3033225,108.810003 52.3363083,108.810003 C51.3666806,108.810003 50.5800015,108.025353 50.5800015,107.055003 C50.5800015,106.084653 51.3666806,105.300003 52.3363083,105.300003 C53.3033225,105.300003 54.0900016,106.084653 54.0900016,107.055003" id="Fill-142" fill="url(#linearGradient-21)" fill-rule="nonzero"></path>
                        <path d="M44.7300013,77.8050022 C44.7300013,78.7753525 43.9453515,79.5600023 42.9750013,79.5600023 C42.004651,79.5600023 41.2200012,78.7753525 41.2200012,77.8050022 C41.2200012,76.834652 42.004651,76.0500022 42.9750013,76.0500022 C43.9453515,76.0500022 44.7300013,76.834652 44.7300013,77.8050022" id="Fill-145" fill="url(#linearGradient-21)" fill-rule="nonzero"></path>
                        <path d="M124.290004,115.243697 C124.290004,116.213324 123.503324,117.000003 122.53631,117.000003 C121.566683,117.000003 120.780003,116.213324 120.780003,115.243697 C120.780003,114.276682 121.566683,113.490003 122.53631,113.490003 C123.503324,113.490003 124.290004,114.276682 124.290004,115.243697" id="Fill-148" fill="url(#linearGradient-21)" fill-rule="nonzero"></path>
                        <path d="M185.130005,90.6750026 C185.130005,91.6453528 184.343326,92.4300026 183.373699,92.4300026 C182.406684,92.4300026 181.620005,91.6453528 181.620005,90.6750026 C181.620005,89.7046523 182.406684,88.9200025 183.373699,88.9200025 C184.343326,88.9200025 185.130005,89.7046523 185.130005,90.6750026" id="Fill-151" fill="url(#linearGradient-21)" fill-rule="nonzero"></path>
                    </g>
                </g>
            </g>
        </g>
    </g>
</svg>