<?xml version="1.0" encoding="UTF-8"?>
<svg width="202px" height="249px" viewBox="0 0 202 249" version="1.1" xmlns="http://www.w3.org/2000/svg" xmlns:xlink="http://www.w3.org/1999/xlink">
    <title>Group 93</title>
    <defs>
        <linearGradient x1="57.8952436%" y1="0%" x2="41.876985%" y2="150.502127%" id="linearGradient-1">
            <stop stop-color="#4469FF" offset="0%"></stop>
            <stop stop-color="#0213B3" offset="100%"></stop>
        </linearGradient>
        <linearGradient x1="61.3176666%" y1="0%" x2="38.3558279%" y2="150.502127%" id="linearGradient-2">
            <stop stop-color="#4469FF" offset="0%"></stop>
            <stop stop-color="#0213B3" offset="100%"></stop>
        </linearGradient>
        <linearGradient x1="76.3524853%" y1="0%" x2="22.8872669%" y2="150.502127%" id="linearGradient-3">
            <stop stop-color="#4469FF" offset="0%"></stop>
            <stop stop-color="#0213B3" offset="100%"></stop>
        </linearGradient>
        <linearGradient x1="76.354031%" y1="0%" x2="22.8856766%" y2="150.502127%" id="linearGradient-4">
            <stop stop-color="#4469FF" offset="0%"></stop>
            <stop stop-color="#0213B3" offset="100%"></stop>
        </linearGradient>
    </defs>
    <g id="Page-1" stroke="none" stroke-width="1" fill="none" fill-rule="evenodd">
        <g id="modalka_v0.2b" transform="translate(-859.000000, -224.000000)">
            <g id="modalka#2" transform="translate(495.000000, 170.000000)">
                <g id="title" transform="translate(98.000000, 54.000000)">
                    <g id="Group-93" transform="translate(266.000000, 0.000000)">
                        <g id="Group-55" transform="translate(0.000000, 0.671073)">
                            <path d="M40.0224835,68.5328865 C24.0629745,68.5328865 11.1259843,55.5958962 11.1259843,39.6381816 C11.1259843,23.6786726 24.0629745,10.7416824 40.0224835,10.7416824 C55.9873754,10.7416824 68.9189827,23.6786726 68.9189827,39.6381816 C68.9189827,55.5958962 55.9873754,68.5328865 40.0224835,68.5328865 L40.0224835,68.5328865 Z M79.6355117,45.1870917 L79.6355117,34.0892714 L73.6308463,34.0892714 C72.7650907,28.8193768 70.6953517,23.9612767 67.7060277,19.8011641 L71.9576502,15.5504388 L64.1093291,7.70391197 L59.8577066,11.9537402 C55.6966968,8.96710768 50.8412883,6.8928829 45.5687022,6.02981878 L45.5687022,0.0233590215 L34.4726762,0.0233590215 L34.4726762,6.02981878 C29.205473,6.8928829 24.3464758,8.96710768 20.1836718,11.9537402 L15.9374322,7.70391197 L8.08911104,15.5504388 L12.3371449,19.8011641 C9.35051245,23.9612767 7.27628766,28.8193768 6.41591501,34.0892714 L0.407660942,34.0892714 L0.407660942,45.1870917 L6.41591501,45.1870917 C7.27808197,50.4569864 9.35051245,55.3150864 12.3371449,59.475199 L8.08911104,63.7259244 L15.9374322,71.5724512 L20.1854661,67.322623 C24.3464758,70.3092554 29.205473,72.3825831 34.4726762,73.2465444 L34.4726762,79.252107 L45.5687022,79.252107 L45.5687022,73.2465444 C50.8412883,72.3825831 55.6966968,70.3092554 59.8577066,67.322623 L64.1093291,71.5724512 L71.9576502,63.7259244 L67.7060277,59.475199 C70.6944545,55.3150864 72.7650907,50.4569864 73.6308463,45.1870917 L79.6355117,45.1870917 Z" id="Fill-4" fill="#D2D8F9"></path>
                            <path d="M160.335954,234.349036 C160.335954,241.361207 154.597744,247.100315 147.582881,247.100315 L53.4640343,247.100315 C46.4518626,247.100315 40.7127554,241.361207 40.7127554,234.349036 L40.7127554,32.791266 C40.7127554,25.7781972 46.4518626,20.0390899 53.4640343,20.0390899 L147.582881,20.0390899 C154.597744,20.0390899 160.335954,25.7781972 160.335954,32.791266 L160.335954,234.349036 Z" id="Fill-6" fill="#4A50E7"></path>
                            <path d="M157.644486,234.349036 C157.644486,241.361207 151.906276,247.100315 144.891413,247.100315 L50.7725661,247.100315 C43.7603945,247.100315 38.0212872,241.361207 38.0212872,234.349036 L38.0212872,32.791266 C38.0212872,25.7781972 43.7603945,20.0390899 50.7725661,20.0390899 L144.891413,20.0390899 C151.906276,20.0390899 157.644486,25.7781972 157.644486,32.791266 L157.644486,234.349036 Z" id="Fill-8" fill="url(#linearGradient-1)" fill-rule="nonzero"></path>
                            <path d="M114.568795,34.4759457 C114.568795,35.5022922 113.736234,36.334853 112.709887,36.334853 L82.9548097,36.334853 C81.927566,36.334853 81.0950052,35.5022922 81.0950052,34.4759457 C81.0950052,33.4478048 81.927566,32.6161412 82.9548097,32.6161412 L112.709887,32.6161412 C113.736234,32.6161412 114.568795,33.4478048 114.568795,34.4759457" id="Fill-12" fill="#FFFFFF"></path>
                            <path d="M99.5151441,27.32938 C99.5151441,28.2588337 98.761533,29.0124447 97.8329765,29.0124447 C96.9026256,29.0124447 96.1490146,28.2588337 96.1490146,27.32938 C96.1490146,26.3999263 96.9026256,25.6472124 97.8329765,25.6472124 C98.761533,25.6472124 99.5151441,26.3999263 99.5151441,27.32938" id="Fill-14" fill="#FFFFFF"></path>
                            <polygon id="Fill-16" fill="#E9EBFE" points="44.9986947 236.336917 151.928526 236.336917 151.928526 32.0777987 44.9986947 32.0777987"></polygon>
                            <polygon id="Fill-18" fill="#DADEFF" points="44.9991432 236.337275 151.928974 32.0781576 151.928974 236.337275"></polygon>
                            <path d="M63.7305498,54.1016828 C58.8787299,54.1016828 54.9303461,58.0491694 54.9303461,62.9018865 L54.9303461,79.8895363 C54.9303461,84.7422534 58.8787299,88.68974 63.7305498,88.68974 L131.93325,88.68974 C136.785967,88.68974 140.733454,84.7422534 140.733454,79.8895363 L140.733454,62.9018865 C140.733454,58.0491694 136.785967,54.1016828 131.93325,54.1016828 L63.7305498,54.1016828 Z M131.93325,91.3812082 L63.7305498,91.3812082 C57.3948338,91.3812082 52.238878,86.2261495 52.238878,79.8895363 L52.238878,62.9018865 C52.238878,56.5652733 57.3948338,51.4102147 63.7305498,51.4102147 L131.93325,51.4102147 C138.269863,51.4102147 143.424922,56.5652733 143.424922,62.9018865 L143.424922,79.8895363 C143.424922,86.2261495 138.269863,91.3812082 131.93325,91.3812082 L131.93325,91.3812082 Z" id="Fill-19" fill="#FFFFFF"></path>
                            <path d="M92.8127604,126.88571 C92.8127604,132.641863 88.1044854,137.350138 82.3483322,137.350138 L64.0490402,137.350138 C58.2946813,137.350138 53.5846121,132.641863 53.5846121,126.88571 L53.5846121,107.059459 C53.5846121,101.304203 58.2946813,96.5959277 64.0490402,96.5959277 L82.3483322,96.5959277 C88.1044854,96.5959277 92.8127604,101.304203 92.8127604,107.059459 L92.8127604,126.88571 Z" id="Fill-20" fill="#DADEFF"></path>
                            <path d="M141.8514,126.88571 C141.8514,132.641863 137.14133,137.350138 131.386972,137.350138 L113.08768,137.350138 C107.331526,137.350138 102.623251,132.641863 102.623251,126.88571 L102.623251,107.059459 C102.623251,101.304203 107.331526,96.5959277 113.08768,96.5959277 L131.386972,96.5959277 C137.14133,96.5959277 141.8514,101.304203 141.8514,107.059459 L141.8514,126.88571 Z" id="Fill-21" fill="#DADEFF"></path>
                            <path d="M64.0493991,145.287906 C59.0217366,145.287906 54.930705,149.378938 54.930705,154.405703 L54.930705,174.232852 C54.930705,179.260514 59.0217366,183.351546 64.0493991,183.351546 L82.3477939,183.351546 C87.3754564,183.351546 91.4673851,179.260514 91.4673851,174.232852 L91.4673851,154.405703 C91.4673851,149.378938 87.3754564,145.287906 82.3477939,145.287906 L64.0493991,145.287906 Z M82.3477939,186.043014 L64.0493991,186.043014 C57.5378405,186.043014 52.2392369,180.74441 52.2392369,174.232852 L52.2392369,154.405703 C52.2392369,147.894144 57.5378405,142.596438 64.0493991,142.596438 L82.3477939,142.596438 C88.8593525,142.596438 94.1588533,147.894144 94.1588533,154.405703 L94.1588533,174.232852 C94.1588533,180.74441 88.8593525,186.043014 82.3477939,186.043014 L82.3477939,186.043014 Z" id="Fill-22" fill="#FFFFFF"></path>
                            <path d="M113.088128,145.287906 C108.060466,145.287906 103.969434,149.378938 103.969434,154.405703 L103.969434,174.232852 C103.969434,179.260514 108.060466,183.351546 113.088128,183.351546 L131.386523,183.351546 C136.414186,183.351546 140.506114,179.260514 140.506114,174.232852 L140.506114,154.405703 C140.506114,149.378938 136.414186,145.287906 131.386523,145.287906 L113.088128,145.287906 Z M131.386523,186.043014 L113.088128,186.043014 C106.57657,186.043014 101.277966,180.74441 101.277966,174.232852 L101.277966,154.405703 C101.277966,147.894144 106.57657,142.596438 113.088128,142.596438 L131.386523,142.596438 C137.898082,142.596438 143.197582,147.894144 143.197582,154.405703 L143.197582,174.232852 C143.197582,180.74441 137.898082,186.043014 131.386523,186.043014 L131.386523,186.043014 Z" id="Fill-23" fill="#FFFFFF"></path>
                            <path d="M141.896975,200.0635 C141.896975,205.181775 137.328657,209.368802 131.746552,209.368802 L63.7358431,209.368802 C58.152841,209.368802 53.5845223,205.181775 53.5845223,200.0635 C53.5845223,194.945224 58.152841,190.758197 63.7358431,190.758197 L131.746552,190.758197 C137.328657,190.758197 141.896975,194.945224 141.896975,200.0635" id="Fill-24" fill="#B7C6F9"></path>
                            <path d="M113.412271,45.3522582 C108.777563,45.3522582 105.006816,49.123005 105.006816,53.7595075 L105.006816,69.9872661 C105.006816,74.6228715 108.777563,78.3945155 113.412271,78.3945155 L178.566435,78.3945155 C183.201143,78.3945155 186.973684,74.6228715 186.973684,69.9872661 L186.973684,53.7595075 C186.973684,49.123005 183.201143,45.3522582 178.566435,45.3522582 L113.412271,45.3522582 Z" id="Fill-29" fill="#DADEFF"></path>
                            <path d="M115.716526,48.3082976 C111.901819,48.3082976 108.798556,51.4115604 108.798556,55.2262679 L108.798556,68.5813329 C108.798556,72.3960404 111.901819,75.4993032 115.716526,75.4993032 L128.627499,75.4993032 C132.440412,75.4993032 135.543675,72.3960404 135.543675,68.5813329 L135.543675,55.2262679 C135.543675,51.4115604 132.440412,48.3082976 128.627499,48.3082976 L115.716526,48.3082976 Z" id="Fill-30" fill="#FFFFFF"></path>
                            <polygon id="Fill-31" fill="url(#linearGradient-2)" fill-rule="nonzero" points="118.399202 55.9231788 118.399202 67.8849604 125.944285 61.8246713"></polygon>
                            <polygon id="Fill-32" fill="#4A50E7" points="140.740093 50.8572077 150.05347 50.8572077 150.05347 49.8802047 140.740093 49.8802047"></polygon>
                            <polygon id="Fill-33" fill="#4A50E7" points="153.887914 50.8572077 177.856336 50.8572077 177.856336 49.8802047 153.887914 49.8802047"></polygon>
                            <polygon id="Fill-34" fill="#4A50E7" points="140.740093 54.1434903 147.957713 54.1434903 147.957713 53.1673845 140.740093 53.1673845"></polygon>
                            <polygon id="Fill-35" fill="#4A50E7" points="150.929094 54.1434903 169.501121 54.1434903 169.501121 53.1673845 150.929094 53.1673845"></polygon>
                            <polygon id="Fill-36" fill="#4A50E7" points="140.740093 57.4306701 149.090821 57.4306701 149.090821 56.4545643 140.740093 56.4545643"></polygon>
                            <polygon id="Fill-37" fill="#4A50E7" points="152.530517 57.4306701 174.020096 57.4306701 174.020096 56.4545643 152.530517 56.4545643"></polygon>
                            <polygon id="Fill-38" fill="#4A50E7" points="140.740093 60.7178498 147.211279 60.7178498 147.211279 59.7408469 140.740093 59.7408469"></polygon>
                            <polygon id="Fill-39" fill="#4A50E7" points="149.87673 60.7178498 166.530638 60.7178498 166.530638 59.7408469 149.87673 59.7408469"></polygon>
                            <polygon id="Fill-40" fill="#4A50E7" points="140.74099 64.0050296 150.741588 64.0050296 150.741588 63.0280267 140.74099 63.0280267"></polygon>
                            <polygon id="Fill-41" fill="#4A50E7" points="154.85774 64.0050296 180.593559 64.0050296 180.593559 63.0280267 154.85774 63.0280267"></polygon>
                            <polygon id="Fill-42" fill="#4A50E7" points="140.740093 67.2913122 148.491521 67.2913122 148.491521 66.3152064 140.740093 66.3152064"></polygon>
                            <polygon id="Fill-43" fill="#4A50E7" points="151.680911 67.2913122 171.623792 67.2913122 171.623792 66.3152064 151.680911 66.3152064"></polygon>
                            <polygon id="Fill-44" fill="#4A50E7" points="140.74099 70.578492 149.707167 70.578492 149.707167 69.6023862 140.74099 69.6023862"></polygon>
                            <polygon id="Fill-45" fill="#4A50E7" points="153.398964 70.578492 176.475612 70.578492 176.475612 69.6023862 153.398964 69.6023862"></polygon>
                            <polygon id="Fill-46" fill="#4A50E7" points="140.74099 73.8656717 147.69036 73.8656717 147.69036 72.8886688 140.74099 72.8886688"></polygon>
                            <polygon id="Fill-47" fill="#4A50E7" points="150.549597 73.8656717 168.433506 73.8656717 168.433506 72.8886688 150.549597 72.8886688"></polygon>
                            <path d="M57.404882,139.239101 C57.404882,144.361862 53.2151632,148.55158 48.0932993,148.55158 L31.8081227,148.55158 C26.6862588,148.55158 22.4965401,144.361862 22.4965401,139.239101 L22.4965401,121.59563 C22.4965401,116.473766 26.6862588,112.28315 31.8081227,112.28315 L48.0932993,112.28315 C53.2151632,112.28315 57.404882,116.473766 57.404882,121.59563 L57.404882,139.239101 Z" id="Fill-48" fill="url(#linearGradient-3)" fill-rule="nonzero"></path>
                            <polygon id="Fill-49" fill="#FFFFFF" points="36.2288591 128.096512 31.4156169 129.859424 36.2288591 131.607981 36.2288591 133.41575 29.3476722 130.798746 29.3476722 128.920101 36.2288591 126.303097"></polygon>
                            <polygon id="Fill-50" fill="#FFFFFF" points="41.4032066 122.747757 43.4110419 122.747757 38.6417603 136.364792 36.6321308 136.364792"></polygon>
                            <polygon id="Fill-51" fill="#FFFFFF" points="50.551776 128.920101 50.551776 130.798746 43.6705891 133.41575 43.6705891 131.607981 48.4856257 129.859424 43.6705891 128.096512 43.6705891 126.303097"></polygon>
                            <path d="M186.52699,135.539229 C181.035498,135.539229 176.582912,131.088438 176.582912,125.596048 C176.582912,120.103659 181.035498,115.651074 186.52699,115.651074 C192.022071,115.651074 196.472862,120.103659 196.472862,125.596048 C196.472862,131.088438 192.022071,135.539229 186.52699,135.539229 L186.52699,135.539229 Z M201.799277,127.734868 L201.799277,123.455434 L199.484615,123.455434 C199.149975,121.42517 198.353301,119.551908 197.199558,117.947793 L198.840457,116.307792 L195.814349,113.283479 L194.175245,114.922583 C192.570233,113.770635 190.696971,112.971269 188.664913,112.638424 L188.664913,110.322864 L184.387273,110.322864 L184.387273,112.638424 C182.357009,112.971269 180.483747,113.770635 178.878735,114.922583 L177.241425,113.283479 L174.215317,116.307792 L175.854421,117.947793 C174.702473,119.551908 173.90221,121.42517 173.571159,123.455434 L171.254702,123.455434 L171.254702,127.734868 L173.571159,127.734868 C173.904004,129.76603 174.702473,131.638394 175.854421,133.243407 L174.215317,134.882511 L177.241425,137.907721 L178.880529,136.268617 C180.483747,137.420565 182.357009,138.219931 184.387273,138.552776 L184.387273,140.867439 L188.664913,140.867439 L188.664913,138.552776 C190.696971,138.219931 192.570233,137.420565 194.175245,136.268617 L195.814349,137.907721 L198.840457,134.882511 L197.199558,133.243407 C198.353301,131.638394 199.149975,129.76603 199.484615,127.734868 L201.799277,127.734868 Z" id="Fill-52" fill="#D2D8F9"></path>
                            <path d="M174.020276,167.453043 C171.051586,167.453043 168.640928,165.046871 168.640928,162.077284 C168.640928,159.106801 171.051586,156.699731 174.020276,156.699731 C176.992554,156.699731 179.399623,159.106801 179.399623,162.077284 C179.399623,165.046871 176.992554,167.453043 174.020276,167.453043 L174.020276,167.453043 Z M183.317504,163.379058 L183.317504,160.775511 L181.907175,160.775511 C181.705314,159.538333 181.218159,158.39715 180.51748,157.421044 L181.515117,156.42251 L179.673256,154.582443 L178.675618,155.58008 C177.70041,154.878504 176.559227,154.391348 175.322049,154.188591 L175.322049,152.780056 L172.718502,152.780056 L172.718502,154.188591 C171.481324,154.391348 170.340142,154.878504 169.364933,155.58008 L168.367295,154.582443 L166.525434,156.42251 L167.523072,157.421044 C166.822393,158.39715 166.335237,159.538333 166.133377,160.775511 L164.723048,160.775511 L164.723048,163.379058 L166.133377,163.379058 C166.337031,164.616236 166.822393,165.756521 167.523072,166.732627 L166.525434,167.730265 L168.367295,169.571229 L169.364933,168.574488 C170.340142,169.275167 171.481324,169.760529 172.718502,169.964183 L172.718502,171.374512 L175.322049,171.374512 L175.322049,169.964183 C176.559227,169.760529 177.70041,169.275167 178.675618,168.574488 L179.673256,169.571229 L181.515117,167.730265 L180.51748,166.732627 C181.218159,165.756521 181.705314,164.616236 181.907175,163.379058 L183.317504,163.379058 Z" id="Fill-53" fill="#D2D8F9"></path>
                            <path d="M182.45121,197.701467 C182.45121,204.471407 176.913963,210.008654 170.14492,210.008654 L148.623941,210.008654 C141.854899,210.008654 136.315857,204.471407 136.315857,197.701467 L136.315857,174.384381 C136.315857,167.615339 141.854899,162.077195 148.623941,162.077195 L170.14492,162.077195 C176.913963,162.077195 182.45121,167.615339 182.45121,174.384381 L182.45121,197.701467 Z" id="Fill-54" fill="url(#linearGradient-4)" fill-rule="nonzero"></path>
                            <polygon id="Fill-49" fill="#FFFFFF" points="155.4228 184.399267 149.235773 186.5916 155.4228 188.766083 155.4228 191.0142 146.5776 187.759729 146.5776 185.423472 155.4228 182.169"></polygon>
                            <polygon id="Fill-50" fill="#FFFFFF" points="160.758818 177.1146 163.0044 177.1146 157.67039 193.5414 155.4228 193.5414"></polygon>
                            <polygon id="Fill-51" fill="#FFFFFF" points="173.1132 185.423472 173.1132 187.759729 164.268 191.0142 164.268 188.766083 170.457334 186.5916 164.268 184.399267 164.268 182.169"></polygon>
                        </g>
                    </g>
                </g>
            </g>
        </g>
    </g>
</svg>